<svg xmlns="http://www.w3.org/2000/svg" xmlns:xlink="http://www.w3.org/1999/xlink" xmlns:lucid="lucid" width="1760" height="1360"><g transform="translate(0 0)" lucid:page-tab-id="HWEp-vi-RSFO"><path d="M0 0h1760v1360H0z" fill="#fff"/><path d="M200 138h200v205H200z" stroke="#333" stroke-width="2" fill="#fff"/><path d="M200 175.6h200" stroke="#333" stroke-width="2" fill="none"/><use xlink:href="#a" transform="matrix(1,0,0,1,208,146) translate(72.025 14.6)"/><use xlink:href="#b" transform="matrix(1,0,0,1,212,183.6) translate(0 14.800000000000006)"/><use xlink:href="#c" transform="matrix(1,0,0,1,212,183.6) translate(0 36.400000000000006)"/><use xlink:href="#d" transform="matrix(1,0,0,1,212,183.6) translate(0 58.00000000000001)"/><use xlink:href="#e" transform="matrix(1,0,0,1,212,183.6) translate(0 79.60000000000002)"/><use xlink:href="#f" transform="matrix(1,0,0,1,212,183.6) translate(0 101.20000000000002)"/><use xlink:href="#g" transform="matrix(1,0,0,1,212,183.6) translate(0 122.80000000000001)"/><use xlink:href="#h" transform="matrix(1,0,0,1,212,183.6) translate(0 144.4)"/><path d="M1358.5 219h-67.75c-5.94 0-10.75 4.8-10.75 10.75 0 5.94-4.8 10.75-10.75 10.75H401.5" stroke="#333" fill="none"/><path d="M1359 219.5h-.5v-1h.5zM401.5 241h-.5v-1h.5z" stroke="#333" stroke-width=".05" fill="#333"/><use xlink:href="#i" transform="matrix(1,0,0,1,422.3254200078386,214.9) translate(0 14.4)"/><use xlink:href="#j" transform="matrix(1,0,0,1,1307.793259239856,193.39999999999998) translate(0.004999999999999893 14.4)"/><use xlink:href="#k" transform="matrix(1,0,0,1,870.4380474070424,214.9) translate(0.005000000000000782 14.4)"/><path d="M738.5 366.5c-4.7 0-8.5-3.8-8.5-8.5v-54.08c0-6.63-5.37-12-12-12H401.5" stroke="#333" fill="none"/><path d="M739 367h-.5v-1h.5zM401.5 292.42h-.5v-1h.5z" stroke="#333" stroke-width=".05" fill="#333"/><use xlink:href="#l" transform="matrix(1,0,0,1,423.5716152958033,266.3197019867549) translate(0 14.4)"/><use xlink:href="#j" transform="matrix(1,0,0,1,726.2306827554343,267.46559568576305) translate(0.004999999999999893 14.4)"/><use xlink:href="#m" transform="matrix(1,0,0,1,650.2487136621571,266.3197019867549) translate(0.004999999999999005 14.4)"/><path d="M453.15 75c0-4.42 3.58-8 8-8h836.75c4.4 0 8 3.58 8 8v25.16c0 4.4-3.6 8-8 8H461.15c-4.42 0-8-3.6-8-8z" stroke="#000" stroke-opacity="0" stroke-width="2" fill="#fff" fill-opacity="0"/><use xlink:href="#n" transform="matrix(1,0,0,1,457.1465527853429,70.99999999994924) translate(335.67111111111114 23.657777777777778)"/><use xlink:href="#o" transform="matrix(1,0,0,1,457.1465527853429,70.99999999994924) translate(438.8846913580247 23.657777777777778)"/><path d="M729.63 106.8H1039M729.65 106.8h-1.02M1038.96 106.8h1.03" stroke="#a9afb8" stroke-width="2" fill="none"/><path d="M453.15 116.16c0-4.42 3.58-8 8-8h837.7c4.42 0 8 3.58 8 8V119c0 4.42-3.58 8-8 8h-837.7c-4.42 0-8-3.58-8-8z" stroke="#000" stroke-opacity="0" stroke-width="2" fill="#fff" fill-opacity="0"/><path d="M1360 180h200v183h-200z" stroke="#333" stroke-width="2" fill="#fff"/><path d="M1360 217.6h200" stroke="#333" stroke-width="2" fill="none"/><use xlink:href="#p" transform="matrix(1,0,0,1,1368,188) translate(61.55 14.6)"/><use xlink:href="#q" transform="matrix(1,0,0,1,1372,225.6) translate(0 14.600000000000003)"/><use xlink:href="#r" transform="matrix(1,0,0,1,1372,225.6) translate(0 36.2)"/><use xlink:href="#s" transform="matrix(1,0,0,1,1372,225.6) translate(0 57.800000000000004)"/><use xlink:href="#t" transform="matrix(1,0,0,1,1372,225.6) translate(0 79.40000000000002)"/><use xlink:href="#u" transform="matrix(1,0,0,1,1372,225.6) translate(0 101.00000000000001)"/><use xlink:href="#v" transform="matrix(1,0,0,1,1372,225.6) translate(61.900000000000006 101.00000000000001)"/><use xlink:href="#w" transform="matrix(1,0,0,1,1372,225.6) translate(0 122.60000000000001)"/><use xlink:href="#x" transform="matrix(1,0,0,1,1372,225.6) translate(50 122.60000000000001)"/><path d="M740 285.5h200v162H740z" stroke="#333" stroke-width="2" fill="#fff"/><path d="M740 323.1h200" stroke="#333" stroke-width="2" fill="none"/><use xlink:href="#y" transform="matrix(1,0,0,1,748,293.5) translate(49.099999999999994 14.6)"/><use xlink:href="#z" transform="matrix(1,0,0,1,752,331.1) translate(0 14.899999999999993)"/><use xlink:href="#A" transform="matrix(1,0,0,1,752,331.1) translate(0 36.49999999999999)"/><use xlink:href="#B" transform="matrix(1,0,0,1,752,331.1) translate(47.85000000000001 36.49999999999999)"/><use xlink:href="#C" transform="matrix(1,0,0,1,752,331.1) translate(0 58.099999999999994)"/><use xlink:href="#D" transform="matrix(1,0,0,1,752,331.1) translate(0 79.70000000000002)"/><use xlink:href="#E" transform="matrix(1,0,0,1,752,331.1) translate(0 101.30000000000001)"/><path d="M220 576.5h240v250H220z" stroke="#333" stroke-width="2" fill="#fff"/><path d="M220 614.1h240" stroke="#333" stroke-width="2" fill="none"/><use xlink:href="#F" transform="matrix(1,0,0,1,228,584.5) translate(78.625 14.6)"/><use xlink:href="#q" transform="matrix(1,0,0,1,232,622.1) translate(0 15.700000000000012)"/><use xlink:href="#G" transform="matrix(1,0,0,1,232,622.1) translate(0 37.30000000000001)"/><use xlink:href="#s" transform="matrix(1,0,0,1,232,622.1) translate(0 58.90000000000001)"/><use xlink:href="#H" transform="matrix(1,0,0,1,232,622.1) translate(0 80.50000000000003)"/><use xlink:href="#I" transform="matrix(1,0,0,1,232,622.1) translate(0 102.10000000000002)"/><use xlink:href="#J" transform="matrix(1,0,0,1,232,622.1) translate(55 102.10000000000002)"/><use xlink:href="#K" transform="matrix(1,0,0,1,232,622.1) translate(0 123.70000000000002)"/><use xlink:href="#L" transform="matrix(1,0,0,1,232,622.1) translate(0 145.3)"/><use xlink:href="#M" transform="matrix(1,0,0,1,232,622.1) translate(0 166.9)"/><use xlink:href="#N" transform="matrix(1,0,0,1,232,622.1) translate(0 188.5)"/><path d="M1000 792.67h180v113h-180z" stroke="#333" stroke-width="2" fill="#fff"/><path d="M1000 830.27h180" stroke="#333" stroke-width="2" fill="none"/><use xlink:href="#O" transform="matrix(1,0,0,1,1008,800.6657894005797) translate(63.5 14.6)"/><use xlink:href="#z" transform="matrix(1,0,0,1,1012,838.2657894005797) translate(0 22.799999999999997)"/><use xlink:href="#P" transform="matrix(1,0,0,1,1012,838.2657894005797) translate(0 44.4)"/><path d="M799.52 606h160v69h-160z" stroke="#333" stroke-width="2" fill="#fff"/><use xlink:href="#Q" transform="matrix(1,0,0,1,807.5213070194004,613.9999999998179) translate(22.599999999999994 30.1)"/><path d="M1358.5 271.5H1042c-6.63 0-12 5.37-12 12v71c0 6.63-5.37 12-12 12h-76.5" stroke="#333" fill="none"/><path d="M1359 272h-.5v-1h.5zM941.5 367h-.5v-1h.5z" stroke="#333" stroke-width=".05" fill="#333"/><use xlink:href="#i" transform="matrix(1,0,0,1,948.9916015349622,340.9) translate(0 14.4)"/><use xlink:href="#R" transform="matrix(1,0,0,1,1330.7058760258374,245.89999999999998) translate(0.004999999999999893 14.4)"/><use xlink:href="#k" transform="matrix(1,0,0,1,1090.8619525929578,245.89999999999998) translate(0.005000000000000782 14.4)"/><path d="M1000 940h180v162h-180z" stroke="#333" stroke-width="2" fill="#fff"/><path d="M1000 977.6h180" stroke="#333" stroke-width="2" fill="none"/><use xlink:href="#S" transform="matrix(1,0,0,1,1008,948) translate(51.599999999999994 14.6)"/><use xlink:href="#T" transform="matrix(1,0,0,1,1012,985.6) translate(0 14.899999999999993)"/><use xlink:href="#U" transform="matrix(1,0,0,1,1012,985.6) translate(0 36.49999999999999)"/><use xlink:href="#t" transform="matrix(1,0,0,1,1012,985.6) translate(0 58.099999999999994)"/><use xlink:href="#s" transform="matrix(1,0,0,1,1012,985.6) translate(0 79.70000000000002)"/><use xlink:href="#V" transform="matrix(1,0,0,1,1012,985.6) translate(0 101.30000000000001)"/><path d="M140 1100h140v141H140z" stroke="#333" stroke-width="2" fill="#fff"/><path d="M140 1137.6h140" stroke="#333" stroke-width="2" fill="none"/><use xlink:href="#W" transform="matrix(1,0,0,1,148,1108) translate(29.549999999999997 14.6)"/><use xlink:href="#z" transform="matrix(1,0,0,1,152,1145.6) translate(0 26)"/><use xlink:href="#X" transform="matrix(1,0,0,1,152,1145.6) translate(0 47.6)"/><use xlink:href="#Y" transform="matrix(1,0,0,1,152,1145.6) translate(0 69.2)"/><path d="M530 1100h160v141H530z" stroke="#333" stroke-width="2" fill="#fff"/><path d="M530 1137.6h160" stroke="#333" stroke-width="2" fill="none"/><use xlink:href="#Z" transform="matrix(1,0,0,1,538,1108) translate(33.099999999999994 14.6)"/><use xlink:href="#z" transform="matrix(1,0,0,1,542,1145.6) translate(0 26)"/><use xlink:href="#X" transform="matrix(1,0,0,1,542,1145.6) translate(0 47.6)"/><use xlink:href="#aa" transform="matrix(1,0,0,1,542,1145.6) translate(0 69.2)"/><path d="M998.5 1067.4H722c-6.63 0-12-5.37-12-12V396c0-6.63-5.37-12-12-12H312c-6.63 0-12-5.37-12-12v-27.5" stroke="#333" fill="none"/><path d="M999 1067.9h-.5v-1h.5zM300.5 344.5h-1v-.5h1z" stroke="#333" stroke-width=".05" fill="#333"/><use xlink:href="#ab" transform="matrix(1,0,0,1,322.423026991394,358.4) translate(0 14.4)"/><use xlink:href="#ac" transform="matrix(1,0,0,1,928.7703167609887,1041.8034117747366) translate(0.004999999999999893 14.4)"/><use xlink:href="#k" transform="matrix(1,0,0,1,718,597.9177715731968) translate(0.005000000000000782 14.4)"/><path d="M738.5 404.13H352c-6.63 0-12 5.37-12 12V575" stroke="#333" fill="none"/><path d="M739 404.63h-.5v-1h.5zM340.5 575.5h-1v-.5h1z" stroke="#333" stroke-width=".05" fill="#333"/><use xlink:href="#l" transform="matrix(1,0,0,1,322,547.7884358262131) translate(0 14.4)"/><use xlink:href="#j" transform="matrix(1,0,0,1,722.7780120481927,378.5277108433735) translate(0.004999999999999893 14.4)"/><use xlink:href="#ad" transform="matrix(1,0,0,1,398.1926202187602,378.5277108433735) translate(0.005000000000002558 14.4)"/><path d="M941.5 411.72H1078c6.63 0 12 5.38 12 12v367.45" stroke="#333" fill="none"/><path d="M941.5 412.22h-.5v-1h.5zM1090.5 791.67h-1v-.52h1z" stroke="#333" stroke-width=".05" fill="#333"/><use xlink:href="#ae" transform="matrix(1,0,0,1,940.5250000000001,415.72409638554217) translate(0 14.4)"/><use xlink:href="#af" transform="matrix(1,0,0,1,1098,770.8657894005801) translate(0 14.4)"/><use xlink:href="#k" transform="matrix(1,0,0,1,1098,584.9035550885006) translate(0.005000000000000782 14.4)"/><path d="M1385.58 364.5v108c0 6.63-5.37 12-12 12H891.52c-6.63 0-12 5.37-12 12v108" stroke="#333" fill="none"/><path d="M1386.08 364.5h-1v-.5h1zM880.02 605h-1v-.5h1z" stroke="#333" stroke-width=".05" fill="#333"/><use xlink:href="#i" transform="matrix(1,0,0,1,858.5713070194004,573.043353956593) translate(0 14.4)"/><use xlink:href="#R" transform="matrix(1,0,0,1,1367.5807228915662,387.25861373845584) translate(0.004999999999999893 14.4)"/><use xlink:href="#ag" transform="matrix(1,0,0,1,1067.628034367115,458.8999999999089) translate(0.004999999999999005 14.4)"/><use xlink:href="#ah" transform="matrix(1,0,0,1,1067.628034367115,458.8999999999089) translate(36.955 14.4)"/><path d="M1426.6 364.5v479.62c0 6.63-5.37 12-12 12h-233.1" stroke="#333" fill="none"/><path d="M1427.1 364.5h-1v-.5h1zM1181.5 856.62h-.5v-1h.5z" stroke="#333" stroke-width=".05" fill="#333"/><use xlink:href="#i" transform="matrix(1,0,0,1,1194.7743566629665,830.5223841944011) translate(0 14.4)"/><use xlink:href="#j" transform="matrix(1,0,0,1,1405.6512048192772,385.78184489846257) translate(0.004999999999999893 14.4)"/><use xlink:href="#ai" transform="matrix(1,0,0,1,1366.6512048192774,697.6742945068393) translate(0.004999999999999005 14.4)"/><path d="M1200 640h126.85v49H1200z" stroke="#333" stroke-width="2" fill="#fff"/><use xlink:href="#aj" transform="matrix(1,0,0,1,1208,648) translate(25.525 20.1)"/><path d="M1426.1 666.96h-97.75M1426.1 666.96h.5" stroke="#333" fill="none"/><path d="M1328.37 667.46h-.52v-1h.52z" stroke="#333" stroke-width=".05" fill="#333"/><path d="M1514.72 364.5v604.76c0 6.63-5.37 12-12 12H1181.5" stroke="#333" fill="none"/><path d="M1515.22 364.5h-1v-.5h1zM1181.5 981.76h-.5v-1h.5z" stroke="#333" stroke-width=".05" fill="#333"/><use xlink:href="#l" transform="matrix(1,0,0,1,1202.3869458280096,955.6603997265438) translate(0 14.4)"/><use xlink:href="#j" transform="matrix(1,0,0,1,1493.769277108434,395.5895809639971) translate(0.004999999999999893 14.4)"/><use xlink:href="#ag" transform="matrix(1,0,0,1,1522.7192771084337,789.663617984173) translate(0.004999999999999005 14.4)"/><use xlink:href="#ah" transform="matrix(1,0,0,1,1522.7192771084337,789.663617984173) translate(36.955 14.4)"/><path d="M798.02 640.5H641.76c-6.63 0-12 5.37-12 12v37c0 6.63-5.37 12-12 12H461.5" stroke="#333" fill="none"/><path d="M798.52 641h-.5v-1h.5zM461.5 702h-.5v-1h.5z" stroke="#333" stroke-width=".05" fill="#333"/><use xlink:href="#l" transform="matrix(1,0,0,1,467.2050047874057,675.9) translate(0 14.4)"/><use xlink:href="#R" transform="matrix(1,0,0,1,775.4921056898853,614.8999999998179) translate(0.004999999999999893 14.4)"/><use xlink:href="#ag" transform="matrix(1,0,0,1,582.0473769891195,621.4848851349049) translate(0.004999999999999005 14.4)"/><use xlink:href="#ah" transform="matrix(1,0,0,1,582.0473769891195,621.4848851349049) translate(36.955 14.4)"/><path d="M998.5 849.17H942c-6.63 0-12-5.38-12-12V763.8c0-6.62-5.37-12-12-12H461.5" stroke="#333" fill="none"/><path d="M999 849.67h-.5v-1h.5zM461.5 752.3h-.5v-1h.5z" stroke="#333" stroke-width=".05" fill="#333"/><use xlink:href="#i" transform="matrix(1,0,0,1,472.4888592979222,726.2099353937489) translate(0 14.4)"/><use xlink:href="#j" transform="matrix(1,0,0,1,963.6205914716473,823.5657894005798) translate(0.004999999999999893 14.4)"/><g><use xlink:href="#ak" transform="matrix(1,0,0,1,852.7921745498008,726.2099353937489) translate(0.004999999999999005 14.4)"/></g><path d="M998.5 993.57H742c-6.63 0-12-5.38-12-12v-157.2c0-6.64-5.37-12-12-12H461.5" stroke="#333" fill="none"/><path d="M999 994.07h-.5v-1h.5zM461.5 812.86h-.5v-1h.5z" stroke="#333" stroke-width=".05" fill="#333"/><g><use xlink:href="#ab" transform="matrix(1,0,0,1,474.88551257612585,786.7608346429196) translate(0 14.4)"/></g><g><use xlink:href="#al" transform="matrix(1,0,0,1,961.2223897805807,967.9665443048569) translate(0.004999999999999893 14.4)"/></g><g><use xlink:href="#am" transform="matrix(1,0,0,1,738,890.0334499187456) translate(0.005000000000002558 14.4)"/><use xlink:href="#an" transform="matrix(1,0,0,1,738,890.0334499187456) translate(69.95500000000001 14.4)"/></g><path d="M1051.34 791.17v-119.8c0-6.63-5.37-12-12-12h-78.32" stroke="#333" fill="none"/><path d="M1051.84 791.67h-1v-.52h1zM961.03 659.87h-.5v-1h.5z" stroke="#333" stroke-width=".05" fill="#333"/><g><use xlink:href="#i" transform="matrix(1,0,0,1,961.0640623678431,633.766265060241) translate(0 14.4)"/></g><g><use xlink:href="#R" transform="matrix(1,0,0,1,1059.3397590361446,769.6249265626939) translate(0.004999999999999893 14.4)"/></g><g><use xlink:href="#ag" transform="matrix(1,0,0,1,1008.7613906456573,633.766265060241) translate(0.004999999999999005 14.4)"/><use xlink:href="#ah" transform="matrix(1,0,0,1,1008.7613906456573,633.766265060241) translate(36.955 14.4)"/></g><path d="M390 959.5v-53.75c0-6.63-5.37-12-12-12h-26c-6.63 0-12-5.37-12-12V828" stroke="#333" fill="none"/><path d="M390.5 960h-1v-.5h1zM340.5 828h-1v-.5h1z" stroke="#333" stroke-width=".05" fill="#333"/><g><use xlink:href="#l" transform="matrix(1,0,0,1,348,826.7305377047205) translate(0 14.4)"/></g><g><use xlink:href="#j" transform="matrix(1,0,0,1,397.99999999999994,939.1226203138581) translate(0.004999999999999893 14.4)"/></g><g><use xlink:href="#ao" transform="matrix(1,0,0,1,382.821286509527,871.0578156491993) translate(0.004999999999999005 14.4)"/><use xlink:href="#ap" transform="matrix(1,0,0,1,382.821286509527,871.0578156491993) translate(27.805 14.4)"/></g><path d="M298.5 999.5h-88.23c-6.63 0-12 5.37-12 12v87" stroke="#333" fill="none"/><path d="M299 1000h-.5v-1h.5zM198.77 1099h-1v-.5h1z" stroke="#333" stroke-width=".05" fill="#333"/><g><use xlink:href="#l" transform="matrix(1,0,0,1,180.2662316597776,1077.8679853361486) translate(0 14.4)"/></g><g><use xlink:href="#R" transform="matrix(1,0,0,1,283.8115913949154,973.9) translate(0.004999999999999893 14.4)"/></g><g><use xlink:href="#aq" transform="matrix(1,0,0,1,139.9076931838198,977.1321658112114) translate(0.005000000000002558 14.4)"/></g><path d="M571.34 1098.5v-87c0-6.63-5.37-12-12-12H481.5" stroke="#333" fill="none"/><path d="M571.84 1099h-1v-.5h1zM481.5 1000h-.5v-1h.5z" stroke="#333" stroke-width=".05" fill="#333"/><g><use xlink:href="#l" transform="matrix(1,0,0,1,482.035013216339,973.9) translate(0 14.4)"/></g><g><use xlink:href="#R" transform="matrix(1,0,0,1,579.3428082753055,1077.4894759647084) translate(0.004999999999999893 14.4)"/></g><g><use xlink:href="#aq" transform="matrix(1,0,0,1,563.9458746148016,977.8580072738959) translate(0.005000000000002558 14.4)"/></g><path d="M1320 1031.07h160v120h-160z" stroke="#333" stroke-width="2" fill="#fff"/><path d="M1320 1068.67h160" stroke="#333" stroke-width="2" fill="none"/><g><use xlink:href="#ar" transform="matrix(1,0,0,1,1328,1039.0733333332169) translate(16.099999999999994 14.6)"/><use xlink:href="#as" transform="matrix(1,0,0,1,1328,1039.0733333332169) translate(81.9 14.6)"/></g><g><use xlink:href="#at" transform="matrix(1,0,0,1,1332,1076.6733333332168) translate(0 15.500000000000002)"/><use xlink:href="#au" transform="matrix(1,0,0,1,1332,1076.6733333332168) translate(0 37.1)"/><use xlink:href="#av" transform="matrix(1,0,0,1,1332,1076.6733333332168) translate(0 58.7)"/></g><path d="M300 961h180v77H300z" stroke="#333" stroke-width="2" fill="#fff"/><path d="M300 998.6h180" stroke="#333" stroke-width="2" fill="none"/><g><use xlink:href="#aw" transform="matrix(1,0,0,1,308,969) translate(10.649999999999991 14.6)"/></g><g><use xlink:href="#ax" transform="matrix(1,0,0,1,312,1006.6) translate(0 15.6)"/></g><defs><path fill="#333" d="M238-95c0 69-44 99-111 99C63 4 22-25 22-93v-155h51v151c-1 38 19 59 55 60 90 1 49-130 58-211h52v153" id="ay"/><path fill="#333" d="M137-138c1-29-70-34-71-4 15 46 118 7 119 86 1 83-164 76-172 9l43-7c4 19 20 25 44 25 33 8 57-30 24-41C81-84 22-81 20-136c-2-80 154-74 161-7" id="az"/><path fill="#333" d="M185-48c-13 30-37 53-82 52C43 2 14-33 14-96s30-98 90-98c62 0 83 45 84 108H66c0 31 8 55 39 56 18 0 30-7 34-22zm-45-69c5-46-57-63-70-21-2 6-4 13-4 21h74" id="aA"/><path fill="#333" d="M135-150c-39-12-60 13-60 57V0H25l-1-190h47c2 13-1 29 3 40 6-28 27-53 61-41v41" id="aB"/><g id="a"><use transform="matrix(0.05,0,0,0.05,0,0)" xlink:href="#ay"/><use transform="matrix(0.05,0,0,0.05,12.950000000000001,0)" xlink:href="#az"/><use transform="matrix(0.05,0,0,0.05,22.950000000000003,0)" xlink:href="#aA"/><use transform="matrix(0.05,0,0,0.05,32.95,0)" xlink:href="#aB"/></g><path fill="#333" d="M100-194c63 0 86 42 84 106H49c0 40 14 67 53 68 26 1 43-12 49-29l28 8c-11 28-37 45-77 45C44 4 14-33 15-96c1-61 26-98 85-98zm52 81c6-60-76-77-97-28-3 7-6 17-6 28h103" id="aC"/><path fill="#333" d="M210-169c-67 3-38 105-44 169h-31v-121c0-29-5-50-35-48C34-165 62-65 56 0H25l-1-190h30c1 10-1 24 2 32 10-44 99-50 107 0 11-21 27-35 58-36 85-2 47 119 55 194h-31v-121c0-29-5-49-35-48" id="aD"/><path fill="#333" d="M141-36C126-15 110 5 73 4 37 3 15-17 15-53c-1-64 63-63 125-63 3-35-9-54-41-54-24 1-41 7-42 31l-33-3c5-37 33-52 76-52 45 0 72 20 72 64v82c-1 20 7 32 28 27v20c-31 9-61-2-59-35zM48-53c0 20 12 33 32 33 41-3 63-29 60-74-43 2-92-5-92 41" id="aE"/><path fill="#333" d="M24-231v-30h32v30H24zM24 0v-190h32V0H24" id="aF"/><path fill="#333" d="M24 0v-261h32V0H24" id="aG"/><g id="b"><use transform="matrix(0.05,0,0,0.05,0,0)" xlink:href="#aC"/><use transform="matrix(0.05,0,0,0.05,10,0)" xlink:href="#aD"/><use transform="matrix(0.05,0,0,0.05,24.950000000000003,0)" xlink:href="#aE"/><use transform="matrix(0.05,0,0,0.05,34.95,0)" xlink:href="#aF"/><use transform="matrix(0.05,0,0,0.05,38.900000000000006,0)" xlink:href="#aG"/><path fill="#333" d="M-.9 1.25h44.65v1.32H-.9z"/></g><path fill="#333" d="M85-194c31 0 48 13 60 33l-1-100h32l1 261h-30c-2-10 0-23-3-31C134-8 116 4 85 4 32 4 16-35 15-94c0-66 23-100 70-100zm9 24c-40 0-46 34-46 75 0 40 6 74 45 74 42 0 51-32 51-76 0-42-9-74-50-73" id="aH"/><g id="c"><use transform="matrix(0.05,0,0,0.05,0,0)" xlink:href="#aF"/><use transform="matrix(0.05,0,0,0.05,3.95,0)" xlink:href="#aH"/></g><path fill="#333" d="M135-143c-3-34-86-38-87 0 15 53 115 12 119 90S17 21 10-45l28-5c4 36 97 45 98 0-10-56-113-15-118-90-4-57 82-63 122-42 12 7 21 19 24 35" id="aI"/><path fill="#333" d="M-5 72V49h209v23H-5" id="aJ"/><path fill="#333" d="M115-194c55 1 70 41 70 98S169 2 115 4C84 4 66-9 55-30l1 105H24l-1-265h31l2 30c10-21 28-34 59-34zm-8 174c40 0 45-34 45-75s-6-73-45-74c-42 0-51 32-51 76 0 43 10 73 51 73" id="aK"/><path fill="#333" d="M114-163C36-179 61-72 57 0H25l-1-190h30c1 12-1 29 2 39 6-27 23-49 58-41v29" id="aL"/><path fill="#333" d="M100-194c62-1 85 37 85 99 1 63-27 99-86 99S16-35 15-95c0-66 28-99 85-99zM99-20c44 1 53-31 53-75 0-43-8-75-51-75s-53 32-53 75 10 74 51 75" id="aM"/><path fill="#333" d="M108 0H70L1-190h34L89-25l56-165h34" id="aN"/><g id="d"><use transform="matrix(0.05,0,0,0.05,0,0)" xlink:href="#aF"/><use transform="matrix(0.05,0,0,0.05,3.95,0)" xlink:href="#aI"/><use transform="matrix(0.05,0,0,0.05,12.949999999999998,0)" xlink:href="#aJ"/><use transform="matrix(0.05,0,0,0.05,22.95,0)" xlink:href="#aE"/><use transform="matrix(0.05,0,0,0.05,32.95,0)" xlink:href="#aK"/><use transform="matrix(0.05,0,0,0.05,42.95,0)" xlink:href="#aK"/><use transform="matrix(0.05,0,0,0.05,52.95,0)" xlink:href="#aL"/><use transform="matrix(0.05,0,0,0.05,58.900000000000006,0)" xlink:href="#aM"/><use transform="matrix(0.05,0,0,0.05,68.9,0)" xlink:href="#aN"/><use transform="matrix(0.05,0,0,0.05,77.9,0)" xlink:href="#aC"/><use transform="matrix(0.05,0,0,0.05,87.9,0)" xlink:href="#aH"/></g><path fill="#333" d="M117-194c89-4 53 116 60 194h-32v-121c0-31-8-49-39-48C34-167 62-67 57 0H25l-1-190h30c1 10-1 24 2 32 11-22 29-35 61-36" id="aO"/><g id="e"><use transform="matrix(0.05,0,0,0.05,0,0)" xlink:href="#aO"/><use transform="matrix(0.05,0,0,0.05,10,0)" xlink:href="#aE"/><use transform="matrix(0.05,0,0,0.05,20,0)" xlink:href="#aD"/><use transform="matrix(0.05,0,0,0.05,34.95,0)" xlink:href="#aC"/></g><path fill="#333" d="M206 0h-36l-40-164L89 0H53L-1-190h32L70-26l43-164h34l41 164 42-164h31" id="aP"/><path fill="#333" d="M96-169c-40 0-48 33-48 73s9 75 48 75c24 0 41-14 43-38l32 2c-6 37-31 61-74 61-59 0-76-41-82-99-10-93 101-131 147-64 4 7 5 14 7 22l-32 3c-4-21-16-35-41-35" id="aQ"/><path fill="#333" d="M106-169C34-169 62-67 57 0H25v-261h32l-1 103c12-21 28-36 61-36 89 0 53 116 60 194h-32v-121c2-32-8-49-39-48" id="aR"/><path fill="#333" d="M59-47c-2 24 18 29 38 22v24C64 9 27 4 27-40v-127H5v-23h24l9-43h21v43h35v23H59v120" id="aS"/><g id="f"><use transform="matrix(0.05,0,0,0.05,0,0)" xlink:href="#aP"/><use transform="matrix(0.05,0,0,0.05,12.950000000000001,0)" xlink:href="#aE"/><use transform="matrix(0.05,0,0,0.05,22.950000000000003,0)" xlink:href="#aQ"/><use transform="matrix(0.05,0,0,0.05,31.950000000000003,0)" xlink:href="#aR"/><use transform="matrix(0.05,0,0,0.05,41.95,0)" xlink:href="#aS"/><use transform="matrix(0.05,0,0,0.05,46.95,0)" xlink:href="#aP"/><use transform="matrix(0.05,0,0,0.05,59.900000000000006,0)" xlink:href="#aM"/><use transform="matrix(0.05,0,0,0.05,69.9,0)" xlink:href="#aM"/><use transform="matrix(0.05,0,0,0.05,79.9,0)" xlink:href="#aL"/><use transform="matrix(0.05,0,0,0.05,85.85000000000001,0)" xlink:href="#aH"/></g><g id="g"><use transform="matrix(0.05,0,0,0.05,0,0)" xlink:href="#aL"/><use transform="matrix(0.05,0,0,0.05,5.95,0)" xlink:href="#aM"/><use transform="matrix(0.05,0,0,0.05,15.949999999999998,0)" xlink:href="#aG"/><use transform="matrix(0.05,0,0,0.05,19.9,0)" xlink:href="#aC"/></g><path fill="#333" d="M84 4C-5 8 30-112 23-190h32v120c0 31 7 50 39 49 72-2 45-101 50-169h31l1 190h-30c-1-10 1-25-2-33-11 22-28 36-60 37" id="aT"/><g id="h"><use transform="matrix(0.05,0,0,0.05,0,0)" xlink:href="#aI"/><use transform="matrix(0.05,0,0,0.05,9,0)" xlink:href="#aS"/><use transform="matrix(0.05,0,0,0.05,14,0)" xlink:href="#aE"/><use transform="matrix(0.05,0,0,0.05,24,0)" xlink:href="#aS"/><use transform="matrix(0.05,0,0,0.05,29,0)" xlink:href="#aT"/><use transform="matrix(0.05,0,0,0.05,39,0)" xlink:href="#aI"/></g><path fill="#333" d="M190 0L58-211 59 0H30v-248h39L202-35l-2-213h31V0h-41" id="aU"/><use transform="matrix(0.05,0,0,0.05,0,0)" xlink:href="#aU" id="i"/><use transform="matrix(0.05,0,0,0.05,0,0)" xlink:href="#aU" id="j"/><path fill="#333" d="M197 0v-115H63V0H30v-248h33v105h134v-105h34V0h-34" id="aV"/><g id="k"><use transform="matrix(0.05,0,0,0.05,0,0)" xlink:href="#aV"/><use transform="matrix(0.05,0,0,0.05,12.950000000000001,0)" xlink:href="#aE"/><use transform="matrix(0.05,0,0,0.05,22.950000000000003,0)" xlink:href="#aI"/></g><path fill="#333" d="M27 0v-27h64v-190l-56 39v-29l58-41h29v221h61V0H27" id="aW"/><use transform="matrix(0.05,0,0,0.05,0,0)" xlink:href="#aW" id="l"/><path fill="#333" d="M240 0l2-218c-23 76-54 145-80 218h-23L58-218 59 0H30v-248h44l77 211c21-75 51-140 76-211h43V0h-30" id="aX"/><path fill="#333" d="M143 0L79-87 56-68V0H24v-261h32v163l83-92h37l-77 82L181 0h-38" id="aY"/><g id="m"><use transform="matrix(0.05,0,0,0.05,0,0)" xlink:href="#aX"/><use transform="matrix(0.05,0,0,0.05,14.950000000000001,0)" xlink:href="#aE"/><use transform="matrix(0.05,0,0,0.05,24.950000000000003,0)" xlink:href="#aY"/><use transform="matrix(0.05,0,0,0.05,33.95,0)" xlink:href="#aC"/><use transform="matrix(0.05,0,0,0.05,43.95,0)" xlink:href="#aI"/></g><path fill="#a9afb8" d="M24-248c120-7 223 5 221 122C244-46 201 0 124 0H24v-248zM76-40c74 7 117-18 117-86 0-67-45-88-117-82v168" id="aZ"/><path fill="#a9afb8" d="M110-194c64 0 96 36 96 99 0 64-35 99-97 99-61 0-95-36-95-99 0-62 34-99 96-99zm-1 164c35 0 45-28 45-65 0-40-10-65-43-65-34 0-45 26-45 65 0 36 10 65 43 65" id="ba"/><path fill="#a9afb8" d="M220-157c-53 9-28 100-34 157h-49v-107c1-27-5-49-29-50C55-147 81-57 75 0H25l-1-190h47c2 12-1 28 3 38 10-53 101-56 108 0 13-22 24-43 59-42 82 1 51 116 57 194h-49v-107c-1-25-5-48-29-50" id="bb"/><path fill="#a9afb8" d="M133-34C117-15 103 5 69 4 32 3 11-16 11-54c-1-60 55-63 116-61 1-26-3-47-28-47-18 1-26 9-28 27l-52-2c7-38 36-58 82-57s74 22 75 68l1 82c-1 14 12 18 25 15v27c-30 8-71 5-69-32zm-48 3c29 0 43-24 42-57-32 0-66-3-65 30 0 17 8 27 23 27" id="bc"/><path fill="#a9afb8" d="M25-224v-37h50v37H25zM25 0v-190h50V0H25" id="bd"/><path fill="#a9afb8" d="M135-194c87-1 58 113 63 194h-50c-7-57 23-157-34-157-59 0-34 97-39 157H25l-1-190h47c2 12-1 28 3 38 12-26 28-41 61-42" id="be"/><g id="n"><use transform="matrix(0.0728395061728395,0,0,0.0728395061728395,0,0)" xlink:href="#aZ"/><use transform="matrix(0.0728395061728395,0,0,0.0728395061728395,18.86543209876543,0)" xlink:href="#ba"/><use transform="matrix(0.0728395061728395,0,0,0.0728395061728395,34.81728395061728,0)" xlink:href="#bb"/><use transform="matrix(0.0728395061728395,0,0,0.0728395061728395,58.12592592592593,0)" xlink:href="#bc"/><use transform="matrix(0.0728395061728395,0,0,0.0728395061728395,72.69382716049383,0)" xlink:href="#bd"/><use transform="matrix(0.0728395061728395,0,0,0.0728395061728395,79.97777777777777,0)" xlink:href="#be"/></g><path fill="#a9afb8" d="M88-194c31-1 46 15 58 34l-1-101h50l1 261h-48c-2-10 0-23-3-31C134-8 116 4 84 4 32 4 16-41 15-95c0-56 19-97 73-99zm17 164c33 0 40-30 41-66 1-37-9-64-41-64s-38 30-39 65c0 43 13 65 39 65" id="bf"/><path fill="#a9afb8" d="M185-48c-13 30-37 53-82 52C43 2 14-33 14-96s30-98 90-98c62 0 83 45 84 108H66c0 31 8 55 39 56 18 0 30-7 34-22zm-45-69c5-46-57-63-70-21-2 6-4 13-4 21h74" id="bg"/><path fill="#a9afb8" d="M25 0v-261h50V0H25" id="bh"/><g id="o"><use transform="matrix(0.0728395061728395,0,0,0.0728395061728395,0,0)" xlink:href="#bb"/><use transform="matrix(0.0728395061728395,0,0,0.0728395061728395,23.308641975308642,0)" xlink:href="#ba"/><use transform="matrix(0.0728395061728395,0,0,0.0728395061728395,39.260493827160495,0)" xlink:href="#bf"/><use transform="matrix(0.0728395061728395,0,0,0.0728395061728395,55.212345679012344,0)" xlink:href="#bg"/><use transform="matrix(0.0728395061728395,0,0,0.0728395061728395,69.78024691358024,0)" xlink:href="#bh"/></g><path d="M24-248c93 1 206-16 204 79-1 75-69 88-152 82V0H24v-248zm52 121c47 0 100 7 100-41 0-47-54-39-100-39v80" id="bi"/><path d="M135-150c-39-12-60 13-60 57V0H25l-1-190h47c2 13-1 29 3 40 6-28 27-53 61-41v41" id="bj"/><path d="M110-194c64 0 96 36 96 99 0 64-35 99-97 99-61 0-95-36-95-99 0-62 34-99 96-99zm-1 164c35 0 45-28 45-65 0-40-10-65-43-65-34 0-45 26-45 65 0 36 10 65 43 65" id="bk"/><path d="M25-224v-37h50v37H25zM75 22c2 45-34 59-81 51V38c22 5 31-5 31-27v-201h50V22" id="bl"/><path d="M185-48c-13 30-37 53-82 52C43 2 14-33 14-96s30-98 90-98c62 0 83 45 84 108H66c0 31 8 55 39 56 18 0 30-7 34-22zm-45-69c5-46-57-63-70-21-2 6-4 13-4 21h74" id="bm"/><path d="M190-63c-7 42-38 67-86 67-59 0-84-38-90-98-12-110 154-137 174-36l-49 2c-2-19-15-32-35-32-30 0-35 28-38 64-6 74 65 87 74 30" id="bn"/><path d="M115-3C79 11 28 4 28-45v-112H4v-33h27l15-45h31v45h36v33H77v99c-1 23 16 31 38 25v30" id="bo"/><g id="p"><use transform="matrix(0.05,0,0,0.05,0,0)" xlink:href="#bi"/><use transform="matrix(0.05,0,0,0.05,12,0)" xlink:href="#bj"/><use transform="matrix(0.05,0,0,0.05,19,0)" xlink:href="#bk"/><use transform="matrix(0.05,0,0,0.05,29.950000000000003,0)" xlink:href="#bl"/><use transform="matrix(0.05,0,0,0.05,34.95,0)" xlink:href="#bm"/><use transform="matrix(0.05,0,0,0.05,44.95,0)" xlink:href="#bn"/><use transform="matrix(0.05,0,0,0.05,54.95,0)" xlink:href="#bo"/></g><g id="q"><use transform="matrix(0.05,0,0,0.05,0,0)" xlink:href="#aF"/><use transform="matrix(0.05,0,0,0.05,3.95,0)" xlink:href="#aH"/><path fill="#333" d="M-.9 1.25h15.75v1.32H-.9z"/></g><path fill="#333" d="M177-190C167-65 218 103 67 71c-23-6-38-20-44-43l32-5c15 47 100 32 89-28v-30C133-14 115 1 83 1 29 1 15-40 15-95c0-56 16-97 71-98 29-1 48 16 59 35 1-10 0-23 2-32h30zM94-22c36 0 50-32 50-73 0-42-14-75-50-75-39 0-46 34-46 75s6 73 46 73" id="bp"/><g id="r"><use transform="matrix(0.05,0,0,0.05,0,0)" xlink:href="#bp"/><use transform="matrix(0.05,0,0,0.05,10,0)" xlink:href="#aM"/><use transform="matrix(0.05,0,0,0.05,20,0)" xlink:href="#aE"/><use transform="matrix(0.05,0,0,0.05,30,0)" xlink:href="#aG"/><use transform="matrix(0.05,0,0,0.05,33.95,0)" xlink:href="#aI"/></g><g id="s"><use transform="matrix(0.05,0,0,0.05,0,0)" xlink:href="#aO"/><use transform="matrix(0.05,0,0,0.05,10,0)" xlink:href="#aE"/><use transform="matrix(0.05,0,0,0.05,20,0)" xlink:href="#aD"/><use transform="matrix(0.05,0,0,0.05,34.95,0)" xlink:href="#aC"/></g><g id="t"><use transform="matrix(0.05,0,0,0.05,0,0)" xlink:href="#aH"/><use transform="matrix(0.05,0,0,0.05,10,0)" xlink:href="#aC"/><use transform="matrix(0.05,0,0,0.05,20,0)" xlink:href="#aI"/><use transform="matrix(0.05,0,0,0.05,29,0)" xlink:href="#aQ"/><use transform="matrix(0.05,0,0,0.05,38,0)" xlink:href="#aL"/><use transform="matrix(0.05,0,0,0.05,43.95,0)" xlink:href="#aF"/><use transform="matrix(0.05,0,0,0.05,47.900000000000006,0)" xlink:href="#aK"/><use transform="matrix(0.05,0,0,0.05,57.900000000000006,0)" xlink:href="#aS"/><use transform="matrix(0.05,0,0,0.05,62.900000000000006,0)" xlink:href="#aF"/><use transform="matrix(0.05,0,0,0.05,66.85000000000001,0)" xlink:href="#aM"/><use transform="matrix(0.05,0,0,0.05,76.85000000000001,0)" xlink:href="#aO"/></g><g id="u"><use transform="matrix(0.05,0,0,0.05,0,0)" xlink:href="#aK"/><use transform="matrix(0.05,0,0,0.05,10,0)" xlink:href="#aE"/><use transform="matrix(0.05,0,0,0.05,20,0)" xlink:href="#aL"/><use transform="matrix(0.05,0,0,0.05,25.950000000000003,0)" xlink:href="#aS"/><use transform="matrix(0.05,0,0,0.05,30.950000000000003,0)" xlink:href="#aO"/><use transform="matrix(0.05,0,0,0.05,40.95,0)" xlink:href="#aC"/><use transform="matrix(0.05,0,0,0.05,50.95,0)" xlink:href="#aL"/></g><g id="v"><use transform="matrix(0.05,0,0,0.05,0,0)" xlink:href="#aO"/><use transform="matrix(0.05,0,0,0.05,10,0)" xlink:href="#aE"/><use transform="matrix(0.05,0,0,0.05,20,0)" xlink:href="#aD"/><use transform="matrix(0.05,0,0,0.05,34.95,0)" xlink:href="#aC"/></g><path fill="#333" d="M115-194c53 0 69 39 70 98 0 66-23 100-70 100C84 3 66-7 56-30L54 0H23l1-261h32v101c10-23 28-34 59-34zm-8 174c40 0 45-34 45-75 0-40-5-75-45-74-42 0-51 32-51 76 0 43 10 73 51 73" id="bq"/><g id="w"><use transform="matrix(0.05,0,0,0.05,0,0)" xlink:href="#aE"/><use transform="matrix(0.05,0,0,0.05,10,0)" xlink:href="#bq"/><use transform="matrix(0.05,0,0,0.05,20,0)" xlink:href="#aM"/><use transform="matrix(0.05,0,0,0.05,30,0)" xlink:href="#aT"/><use transform="matrix(0.05,0,0,0.05,40,0)" xlink:href="#aS"/></g><g id="x"><use transform="matrix(0.05,0,0,0.05,0,0)" xlink:href="#aK"/><use transform="matrix(0.05,0,0,0.05,10,0)" xlink:href="#aE"/><use transform="matrix(0.05,0,0,0.05,20,0)" xlink:href="#aL"/><use transform="matrix(0.05,0,0,0.05,25.950000000000003,0)" xlink:href="#aS"/><use transform="matrix(0.05,0,0,0.05,30.950000000000003,0)" xlink:href="#aO"/><use transform="matrix(0.05,0,0,0.05,40.95,0)" xlink:href="#aC"/><use transform="matrix(0.05,0,0,0.05,50.95,0)" xlink:href="#aL"/></g><path d="M169-182c-1-43-94-46-97-3 18 66 151 10 154 114 3 95-165 93-204 36-6-8-10-19-12-30l50-8c3 46 112 56 116 5-17-69-150-10-154-114-4-87 153-88 188-35 5 8 8 18 10 28" id="br"/><path d="M85 4C-2 5 27-109 22-190h50c7 57-23 150 33 157 60-5 35-97 40-157h50l1 190h-47c-2-12 1-28-3-38-12 25-28 42-61 42" id="bs"/><path d="M195-6C206 82 75 100 31 46c-4-6-6-13-8-21l49-6c3 16 16 24 34 25 40 0 42-37 40-79-11 22-30 35-61 35-53 0-70-43-70-97 0-56 18-96 73-97 30 0 46 14 59 34l2-30h47zm-90-29c32 0 41-27 41-63 0-35-9-62-40-62-32 0-39 29-40 63 0 36 9 62 39 62" id="bt"/><path d="M137-138c1-29-70-34-71-4 15 46 118 7 119 86 1 83-164 76-172 9l43-7c4 19 20 25 44 25 33 8 57-30 24-41C81-84 22-81 20-136c-2-80 154-74 161-7" id="bu"/><path d="M25-224v-37h50v37H25zM25 0v-190h50V0H25" id="bv"/><g id="y"><use transform="matrix(0.05,0,0,0.05,0,0)" xlink:href="#br"/><use transform="matrix(0.05,0,0,0.05,12,0)" xlink:href="#bs"/><use transform="matrix(0.05,0,0,0.05,22.950000000000003,0)" xlink:href="#bt"/><use transform="matrix(0.05,0,0,0.05,33.900000000000006,0)" xlink:href="#bt"/><use transform="matrix(0.05,0,0,0.05,44.85000000000001,0)" xlink:href="#bm"/><use transform="matrix(0.05,0,0,0.05,54.85,0)" xlink:href="#bu"/><use transform="matrix(0.05,0,0,0.05,64.85000000000001,0)" xlink:href="#bo"/><use transform="matrix(0.05,0,0,0.05,70.80000000000001,0)" xlink:href="#bv"/><use transform="matrix(0.05,0,0,0.05,75.80000000000001,0)" xlink:href="#bm"/></g><g id="z"><use transform="matrix(0.05,0,0,0.05,0,0)" xlink:href="#aF"/><use transform="matrix(0.05,0,0,0.05,3.95,0)" xlink:href="#aH"/><path fill="#333" d="M-.9 1.25h15.75v1.32H-.9z"/></g><g id="A"><use transform="matrix(0.05,0,0,0.05,0,0)" xlink:href="#aC"/><use transform="matrix(0.05,0,0,0.05,10,0)" xlink:href="#aD"/><use transform="matrix(0.05,0,0,0.05,24.950000000000003,0)" xlink:href="#aE"/><use transform="matrix(0.05,0,0,0.05,34.95,0)" xlink:href="#aF"/><use transform="matrix(0.05,0,0,0.05,38.900000000000006,0)" xlink:href="#aG"/></g><g id="B"><use transform="matrix(0.05,0,0,0.05,0,0)" xlink:href="#bp"/><use transform="matrix(0.05,0,0,0.05,10,0)" xlink:href="#aC"/><use transform="matrix(0.05,0,0,0.05,20,0)" xlink:href="#aI"/><use transform="matrix(0.05,0,0,0.05,29,0)" xlink:href="#aS"/><use transform="matrix(0.05,0,0,0.05,34,0)" xlink:href="#aT"/><use transform="matrix(0.05,0,0,0.05,44,0)" xlink:href="#aT"/><use transform="matrix(0.05,0,0,0.05,54,0)" xlink:href="#aL"/><use transform="matrix(0.05,0,0,0.05,59.95,0)" xlink:href="#aH"/></g><g id="C"><use transform="matrix(0.05,0,0,0.05,0,0)" xlink:href="#bq"/><use transform="matrix(0.05,0,0,0.05,10,0)" xlink:href="#aC"/><use transform="matrix(0.05,0,0,0.05,20,0)" xlink:href="#aI"/><use transform="matrix(0.05,0,0,0.05,29,0)" xlink:href="#aG"/><use transform="matrix(0.05,0,0,0.05,32.95,0)" xlink:href="#aF"/><use transform="matrix(0.05,0,0,0.05,36.900000000000006,0)" xlink:href="#aI"/><use transform="matrix(0.05,0,0,0.05,45.900000000000006,0)" xlink:href="#aF"/><use transform="matrix(0.05,0,0,0.05,49.85000000000001,0)" xlink:href="#aO"/><use transform="matrix(0.05,0,0,0.05,59.85,0)" xlink:href="#bp"/></g><g id="D"><use transform="matrix(0.05,0,0,0.05,0,0)" xlink:href="#aL"/><use transform="matrix(0.05,0,0,0.05,5.95,0)" xlink:href="#aC"/><use transform="matrix(0.05,0,0,0.05,15.949999999999998,0)" xlink:href="#aH"/><use transform="matrix(0.05,0,0,0.05,25.950000000000003,0)" xlink:href="#aC"/><use transform="matrix(0.05,0,0,0.05,35.95,0)" xlink:href="#aO"/></g><path fill="#333" d="M101-234c-31-9-42 10-38 44h38v23H63V0H32v-167H5v-23h27c-7-52 17-82 69-68v24" id="bw"/><g id="E"><use transform="matrix(0.05,0,0,0.05,0,0)" xlink:href="#aH"/><use transform="matrix(0.05,0,0,0.05,10,0)" xlink:href="#aC"/><use transform="matrix(0.05,0,0,0.05,20,0)" xlink:href="#bw"/><use transform="matrix(0.05,0,0,0.05,25,0)" xlink:href="#aF"/><use transform="matrix(0.05,0,0,0.05,28.950000000000003,0)" xlink:href="#aO"/><use transform="matrix(0.05,0,0,0.05,38.95,0)" xlink:href="#aF"/><use transform="matrix(0.05,0,0,0.05,42.900000000000006,0)" xlink:href="#aS"/><use transform="matrix(0.05,0,0,0.05,47.900000000000006,0)" xlink:href="#aF"/><use transform="matrix(0.05,0,0,0.05,51.85,0)" xlink:href="#aC"/><use transform="matrix(0.05,0,0,0.05,61.85,0)" xlink:href="#bw"/></g><path d="M88-194c31-1 46 15 58 34l-1-101h50l1 261h-48c-2-10 0-23-3-31C134-8 116 4 84 4 32 4 16-41 15-95c0-56 19-97 73-99zm17 164c33 0 40-30 41-66 1-37-9-64-41-64s-38 30-39 65c0 43 13 65 39 65" id="bx"/><path d="M135-194c87-1 58 113 63 194h-50c-7-57 23-157-34-157-59 0-34 97-39 157H25l-1-190h47c2 12-1 28 3 38 12-26 28-41 61-42" id="by"/><g id="F"><use transform="matrix(0.05,0,0,0.05,0,0)" xlink:href="#br"/><use transform="matrix(0.05,0,0,0.05,12,0)" xlink:href="#bo"/><use transform="matrix(0.05,0,0,0.05,17.95,0)" xlink:href="#bs"/><use transform="matrix(0.05,0,0,0.05,28.899999999999995,0)" xlink:href="#bx"/><use transform="matrix(0.05,0,0,0.05,39.85,0)" xlink:href="#bm"/><use transform="matrix(0.05,0,0,0.05,49.85,0)" xlink:href="#by"/><use transform="matrix(0.05,0,0,0.05,60.800000000000004,0)" xlink:href="#bo"/></g><g id="G"><use transform="matrix(0.05,0,0,0.05,0,0)" xlink:href="#aC"/><use transform="matrix(0.05,0,0,0.05,10,0)" xlink:href="#aD"/><use transform="matrix(0.05,0,0,0.05,24.950000000000003,0)" xlink:href="#aE"/><use transform="matrix(0.05,0,0,0.05,34.95,0)" xlink:href="#aF"/><use transform="matrix(0.05,0,0,0.05,38.900000000000006,0)" xlink:href="#aG"/></g><g id="H"><use transform="matrix(0.05,0,0,0.05,0,0)" xlink:href="#aO"/><use transform="matrix(0.05,0,0,0.05,10,0)" xlink:href="#aF"/><use transform="matrix(0.05,0,0,0.05,13.949999999999998,0)" xlink:href="#aQ"/><use transform="matrix(0.05,0,0,0.05,22.95,0)" xlink:href="#aY"/><use transform="matrix(0.05,0,0,0.05,31.950000000000003,0)" xlink:href="#aO"/><use transform="matrix(0.05,0,0,0.05,41.95,0)" xlink:href="#aE"/><use transform="matrix(0.05,0,0,0.05,51.95,0)" xlink:href="#aD"/><use transform="matrix(0.05,0,0,0.05,66.9,0)" xlink:href="#aC"/></g><g id="I"><use transform="matrix(0.05,0,0,0.05,0,0)" xlink:href="#aK"/><use transform="matrix(0.05,0,0,0.05,10,0)" xlink:href="#aR"/><use transform="matrix(0.05,0,0,0.05,20,0)" xlink:href="#aM"/><use transform="matrix(0.05,0,0,0.05,30,0)" xlink:href="#aO"/><use transform="matrix(0.05,0,0,0.05,40,0)" xlink:href="#aC"/></g><g id="J"><use transform="matrix(0.05,0,0,0.05,0,0)" xlink:href="#aJ"/><use transform="matrix(0.05,0,0,0.05,10,0)" xlink:href="#aO"/><use transform="matrix(0.05,0,0,0.05,20,0)" xlink:href="#aT"/><use transform="matrix(0.05,0,0,0.05,30,0)" xlink:href="#aD"/><use transform="matrix(0.05,0,0,0.05,44.95,0)" xlink:href="#bq"/><use transform="matrix(0.05,0,0,0.05,54.95,0)" xlink:href="#aC"/><use transform="matrix(0.05,0,0,0.05,64.95,0)" xlink:href="#aL"/></g><g id="K"><use transform="matrix(0.05,0,0,0.05,0,0)" xlink:href="#aI"/><use transform="matrix(0.05,0,0,0.05,9,0)" xlink:href="#aY"/><use transform="matrix(0.05,0,0,0.05,18,0)" xlink:href="#aF"/><use transform="matrix(0.05,0,0,0.05,21.95,0)" xlink:href="#aG"/><use transform="matrix(0.05,0,0,0.05,25.899999999999995,0)" xlink:href="#aG"/><use transform="matrix(0.05,0,0,0.05,29.849999999999994,0)" xlink:href="#aI"/></g><g id="L"><use transform="matrix(0.05,0,0,0.05,0,0)" xlink:href="#aC"/><use transform="matrix(0.05,0,0,0.05,10,0)" xlink:href="#aH"/><use transform="matrix(0.05,0,0,0.05,20,0)" xlink:href="#aF"/><use transform="matrix(0.05,0,0,0.05,23.95,0)" xlink:href="#aS"/><use transform="matrix(0.05,0,0,0.05,28.950000000000003,0)" xlink:href="#aF"/><use transform="matrix(0.05,0,0,0.05,32.9,0)" xlink:href="#aM"/><use transform="matrix(0.05,0,0,0.05,42.9,0)" xlink:href="#aO"/></g><g id="M"><use transform="matrix(0.05,0,0,0.05,0,0)" xlink:href="#aE"/><use transform="matrix(0.05,0,0,0.05,10,0)" xlink:href="#aG"/><use transform="matrix(0.05,0,0,0.05,13.949999999999998,0)" xlink:href="#aT"/><use transform="matrix(0.05,0,0,0.05,23.95,0)" xlink:href="#aD"/><use transform="matrix(0.05,0,0,0.05,38.9,0)" xlink:href="#aO"/></g><g id="N"><use transform="matrix(0.05,0,0,0.05,0,0)" xlink:href="#aQ"/><use transform="matrix(0.05,0,0,0.05,9,0)" xlink:href="#aN"/></g><path d="M147 0L96-86 75-71V0H25v-261h50v150l67-79h53l-66 74L201 0h-54" id="bz"/><path d="M25 0v-261h50V0H25" id="bA"/><g id="O"><use transform="matrix(0.05,0,0,0.05,0,0)" xlink:href="#br"/><use transform="matrix(0.05,0,0,0.05,12,0)" xlink:href="#bz"/><use transform="matrix(0.05,0,0,0.05,22,0)" xlink:href="#bv"/><use transform="matrix(0.05,0,0,0.05,27,0)" xlink:href="#bA"/><use transform="matrix(0.05,0,0,0.05,32,0)" xlink:href="#bA"/></g><g id="P"><use transform="matrix(0.05,0,0,0.05,0,0)" xlink:href="#aO"/><use transform="matrix(0.05,0,0,0.05,10,0)" xlink:href="#aE"/><use transform="matrix(0.05,0,0,0.05,20,0)" xlink:href="#aD"/><use transform="matrix(0.05,0,0,0.05,34.95,0)" xlink:href="#aC"/></g><path fill="#333" d="M30-248c87 1 191-15 191 75 0 78-77 80-158 76V0H30v-248zm33 125c57 0 124 11 124-50 0-59-68-47-124-48v98" id="bB"/><g id="Q"><use transform="matrix(0.05,0,0,0.05,0,0)" xlink:href="#bB"/><use transform="matrix(0.05,0,0,0.05,12,0)" xlink:href="#aE"/><use transform="matrix(0.05,0,0,0.05,22,0)" xlink:href="#aL"/><use transform="matrix(0.05,0,0,0.05,27.950000000000003,0)" xlink:href="#aS"/><use transform="matrix(0.05,0,0,0.05,32.95,0)" xlink:href="#aF"/><use transform="matrix(0.05,0,0,0.05,36.900000000000006,0)" xlink:href="#aQ"/><use transform="matrix(0.05,0,0,0.05,45.900000000000006,0)" xlink:href="#aF"/><use transform="matrix(0.05,0,0,0.05,49.85000000000001,0)" xlink:href="#aK"/><use transform="matrix(0.05,0,0,0.05,59.85,0)" xlink:href="#aE"/><use transform="matrix(0.05,0,0,0.05,69.85000000000001,0)" xlink:href="#aS"/><use transform="matrix(0.05,0,0,0.05,74.85000000000001,0)" xlink:href="#aF"/><use transform="matrix(0.05,0,0,0.05,78.80000000000001,0)" xlink:href="#aM"/><use transform="matrix(0.05,0,0,0.05,88.80000000000001,0)" xlink:href="#aO"/></g><use transform="matrix(0.05,0,0,0.05,0,0)" xlink:href="#aW" id="R"/><path d="M24 0v-248h195v40H76v63h132v40H76v65h150V0H24" id="bC"/><g id="S"><use transform="matrix(0.05,0,0,0.05,0,0)" xlink:href="#bC"/><use transform="matrix(0.05,0,0,0.05,12,0)" xlink:href="#bx"/><use transform="matrix(0.05,0,0,0.05,22.950000000000003,0)" xlink:href="#bv"/><use transform="matrix(0.05,0,0,0.05,27.950000000000003,0)" xlink:href="#bo"/><use transform="matrix(0.05,0,0,0.05,33.900000000000006,0)" xlink:href="#bv"/><use transform="matrix(0.05,0,0,0.05,38.900000000000006,0)" xlink:href="#bk"/><use transform="matrix(0.05,0,0,0.05,49.85000000000001,0)" xlink:href="#by"/></g><g id="T"><use transform="matrix(0.05,0,0,0.05,0,0)" xlink:href="#aF"/><use transform="matrix(0.05,0,0,0.05,3.95,0)" xlink:href="#aH"/><path fill="#333" d="M-.9 1.25h15.75v1.32H-.9z"/></g><g id="U"><use transform="matrix(0.05,0,0,0.05,0,0)" xlink:href="#bw"/><use transform="matrix(0.05,0,0,0.05,5,0)" xlink:href="#aM"/><use transform="matrix(0.05,0,0,0.05,15,0)" xlink:href="#aL"/><use transform="matrix(0.05,0,0,0.05,20.95,0)" xlink:href="#aD"/><use transform="matrix(0.05,0,0,0.05,35.9,0)" xlink:href="#aJ"/><use transform="matrix(0.05,0,0,0.05,45.9,0)" xlink:href="#aF"/><use transform="matrix(0.05,0,0,0.05,49.85,0)" xlink:href="#aH"/></g><path fill="#333" d="M179-190L93 31C79 59 56 82 12 73V49c39 6 53-20 64-50L1-190h34L92-34l54-156h33" id="bD"/><g id="V"><use transform="matrix(0.05,0,0,0.05,0,0)" xlink:href="#bD"/><use transform="matrix(0.05,0,0,0.05,9,0)" xlink:href="#aC"/><use transform="matrix(0.05,0,0,0.05,19,0)" xlink:href="#aE"/><use transform="matrix(0.05,0,0,0.05,29,0)" xlink:href="#aL"/></g><path d="M199 0l-22-63H83L61 0H9l90-248h61L250 0h-51zm-33-102l-36-108c-10 38-24 72-36 108h72" id="bE"/><path d="M231 0h-52l-39-155L100 0H48L-1-190h46L77-45c9-52 24-97 36-145h53l37 145 32-145h46" id="bF"/><g id="W"><use transform="matrix(0.05,0,0,0.05,0,0)" xlink:href="#bE"/><use transform="matrix(0.05,0,0,0.05,12.950000000000001,0)" xlink:href="#by"/><use transform="matrix(0.05,0,0,0.05,23.900000000000002,0)" xlink:href="#bu"/><use transform="matrix(0.05,0,0,0.05,33.900000000000006,0)" xlink:href="#bF"/><use transform="matrix(0.05,0,0,0.05,47.900000000000006,0)" xlink:href="#bm"/><use transform="matrix(0.05,0,0,0.05,57.900000000000006,0)" xlink:href="#bj"/></g><g id="X"><use transform="matrix(0.05,0,0,0.05,0,0)" xlink:href="#aS"/><use transform="matrix(0.05,0,0,0.05,5,0)" xlink:href="#aE"/><use transform="matrix(0.05,0,0,0.05,15,0)" xlink:href="#aG"/><use transform="matrix(0.05,0,0,0.05,18.95,0)" xlink:href="#aG"/><use transform="matrix(0.05,0,0,0.05,22.9,0)" xlink:href="#bD"/><use transform="matrix(0.05,0,0,0.05,31.899999999999995,0)" xlink:href="#aJ"/><use transform="matrix(0.05,0,0,0.05,41.9,0)" xlink:href="#aF"/><use transform="matrix(0.05,0,0,0.05,45.85,0)" xlink:href="#aH"/></g><g id="Y"><use transform="matrix(0.05,0,0,0.05,0,0)" xlink:href="#aE"/><use transform="matrix(0.05,0,0,0.05,10,0)" xlink:href="#aO"/><use transform="matrix(0.05,0,0,0.05,20,0)" xlink:href="#aI"/><use transform="matrix(0.05,0,0,0.05,29,0)" xlink:href="#aP"/><use transform="matrix(0.05,0,0,0.05,41.95,0)" xlink:href="#aC"/><use transform="matrix(0.05,0,0,0.05,51.95,0)" xlink:href="#aL"/></g><path d="M140-251c80 0 125 45 125 126 0 70-33 111-92 124 6 28 34 38 68 31l-1 36C177 83 129 55 120 2 51-6 15-50 15-125c0-81 44-126 125-126zm-1 214c52 0 73-35 73-88 0-50-21-86-72-86-52 0-73 35-73 86s22 88 72 88" id="bG"/><g id="Z"><use transform="matrix(0.05,0,0,0.05,0,0)" xlink:href="#bG"/><use transform="matrix(0.05,0,0,0.05,14,0)" xlink:href="#bs"/><use transform="matrix(0.05,0,0,0.05,24.950000000000003,0)" xlink:href="#bm"/><use transform="matrix(0.05,0,0,0.05,34.95,0)" xlink:href="#bu"/><use transform="matrix(0.05,0,0,0.05,44.95,0)" xlink:href="#bo"/><use transform="matrix(0.05,0,0,0.05,50.900000000000006,0)" xlink:href="#bv"/><use transform="matrix(0.05,0,0,0.05,55.900000000000006,0)" xlink:href="#bk"/><use transform="matrix(0.05,0,0,0.05,66.85000000000001,0)" xlink:href="#by"/></g><path fill="#333" d="M145-31C134-9 116 4 85 4 32 4 16-35 15-94c0-59 17-99 70-100 32-1 48 14 60 33 0-11-1-24 2-32h30l-1 268h-32zM93-21c41 0 51-33 51-76s-8-73-50-73c-40 0-46 35-46 75s5 74 45 74" id="bH"/><g id="aa"><use transform="matrix(0.05,0,0,0.05,0,0)" xlink:href="#bH"/><use transform="matrix(0.05,0,0,0.05,10,0)" xlink:href="#aT"/><use transform="matrix(0.05,0,0,0.05,20,0)" xlink:href="#aC"/><use transform="matrix(0.05,0,0,0.05,30,0)" xlink:href="#aI"/><use transform="matrix(0.05,0,0,0.05,39,0)" xlink:href="#aS"/><use transform="matrix(0.05,0,0,0.05,44,0)" xlink:href="#aF"/><use transform="matrix(0.05,0,0,0.05,47.95,0)" xlink:href="#aM"/><use transform="matrix(0.05,0,0,0.05,57.95,0)" xlink:href="#aO"/></g><use transform="matrix(0.05,0,0,0.05,0,0)" xlink:href="#aU" id="ab"/><use transform="matrix(0.05,0,0,0.05,0,0)" xlink:href="#aU" id="ac"/><path fill="#333" d="M185-189c-5-48-123-54-124 2 14 75 158 14 163 119 3 78-121 87-175 55-17-10-28-26-33-46l33-7c5 56 141 63 141-1 0-78-155-14-162-118-5-82 145-84 179-34 5 7 8 16 11 25" id="bI"/><g id="ad"><use transform="matrix(0.05,0,0,0.05,0,0)" xlink:href="#bI"/><use transform="matrix(0.05,0,0,0.05,12,0)" xlink:href="#aT"/><use transform="matrix(0.05,0,0,0.05,22,0)" xlink:href="#bp"/><use transform="matrix(0.05,0,0,0.05,32,0)" xlink:href="#bp"/><use transform="matrix(0.05,0,0,0.05,42,0)" xlink:href="#aC"/><use transform="matrix(0.05,0,0,0.05,52,0)" xlink:href="#aI"/><use transform="matrix(0.05,0,0,0.05,61,0)" xlink:href="#aS"/></g><path d="M190 0L58-211 59 0H30v-248h39L202-35l-2-213h31V0h-41" id="bJ"/><use transform="matrix(0.05,0,0,0.05,0,0)" xlink:href="#bJ" id="ae"/><path d="M27 0v-27h64v-190l-56 39v-29l58-41h29v221h61V0H27" id="bK"/><use transform="matrix(0.05,0,0,0.05,0,0)" xlink:href="#bK" id="af"/><g id="ag"><use transform="matrix(0.05,0,0,0.05,0,0)" xlink:href="#aV"/><use transform="matrix(0.05,0,0,0.05,12.950000000000001,0)" xlink:href="#aE"/><use transform="matrix(0.05,0,0,0.05,22.950000000000003,0)" xlink:href="#aI"/></g><use transform="matrix(0.05,0,0,0.05,0,0)" xlink:href="#aE" id="ah"/><g id="ai"><use transform="matrix(0.05,0,0,0.05,0,0)" xlink:href="#aU"/><use transform="matrix(0.05,0,0,0.05,12.950000000000001,0)" xlink:href="#aC"/><use transform="matrix(0.05,0,0,0.05,22.950000000000003,0)" xlink:href="#aC"/><use transform="matrix(0.05,0,0,0.05,32.95,0)" xlink:href="#aH"/><use transform="matrix(0.05,0,0,0.05,42.95,0)" xlink:href="#aI"/></g><g id="aj"><use transform="matrix(0.05,0,0,0.05,0,0)" xlink:href="#aE"/><use transform="matrix(0.05,0,0,0.05,10,0)" xlink:href="#aD"/><use transform="matrix(0.05,0,0,0.05,24.950000000000003,0)" xlink:href="#aM"/><use transform="matrix(0.05,0,0,0.05,34.95,0)" xlink:href="#aT"/><use transform="matrix(0.05,0,0,0.05,44.95,0)" xlink:href="#aO"/><use transform="matrix(0.05,0,0,0.05,54.95,0)" xlink:href="#aS"/></g><g id="ak"><use transform="matrix(0.05,0,0,0.05,0,0)" xlink:href="#aV"/><use transform="matrix(0.05,0,0,0.05,12.950000000000001,0)" xlink:href="#aC"/><use transform="matrix(0.05,0,0,0.05,22.950000000000003,0)" xlink:href="#aC"/><use transform="matrix(0.05,0,0,0.05,32.95,0)" xlink:href="#bw"/><use transform="matrix(0.05,0,0,0.05,37.95,0)" xlink:href="#aS"/></g><use transform="matrix(0.05,0,0,0.05,0,0)" xlink:href="#aW" id="al"/><path fill="#333" d="M160-131c35 5 61 23 61 61C221 17 115-2 30 0v-248c76 3 177-17 177 60 0 33-19 50-47 57zm-97-11c50-1 110 9 110-42 0-47-63-36-110-37v79zm0 115c55-2 124 14 124-45 0-56-70-42-124-44v89" id="bL"/><g id="am"><use transform="matrix(0.05,0,0,0.05,0,0)" xlink:href="#bL"/><use transform="matrix(0.05,0,0,0.05,12,0)" xlink:href="#aC"/><use transform="matrix(0.05,0,0,0.05,22,0)" xlink:href="#aG"/><use transform="matrix(0.05,0,0,0.05,25.950000000000003,0)" xlink:href="#aM"/><use transform="matrix(0.05,0,0,0.05,35.95,0)" xlink:href="#aO"/><use transform="matrix(0.05,0,0,0.05,45.95,0)" xlink:href="#bp"/><use transform="matrix(0.05,0,0,0.05,55.95,0)" xlink:href="#aI"/></g><g id="an"><use transform="matrix(0.05,0,0,0.05,0,0)" xlink:href="#aS"/><use transform="matrix(0.05,0,0,0.05,5,0)" xlink:href="#aM"/></g><path fill="#333" d="M63-220v92h138v28H63V0H30v-248h175v28H63" id="bM"/><g id="ao"><use transform="matrix(0.05,0,0,0.05,0,0)" xlink:href="#bM"/><use transform="matrix(0.05,0,0,0.05,10.950000000000001,0)" xlink:href="#aF"/><use transform="matrix(0.05,0,0,0.05,14.9,0)" xlink:href="#aG"/><use transform="matrix(0.05,0,0,0.05,18.85,0)" xlink:href="#aG"/></g><g id="ap"><use transform="matrix(0.05,0,0,0.05,0,0)" xlink:href="#aF"/><use transform="matrix(0.05,0,0,0.05,3.95,0)" xlink:href="#aO"/></g><path fill="#333" d="M212-179c-10-28-35-45-73-45-59 0-87 40-87 99 0 60 29 101 89 101 43 0 62-24 78-52l27 14C228-24 195 4 139 4 59 4 22-46 18-125c-6-104 99-153 187-111 19 9 31 26 39 46" id="bN"/><g id="aq"><use transform="matrix(0.05,0,0,0.05,0,0)" xlink:href="#bN"/><use transform="matrix(0.05,0,0,0.05,12.950000000000001,0)" xlink:href="#aM"/><use transform="matrix(0.05,0,0,0.05,22.950000000000003,0)" xlink:href="#aO"/><use transform="matrix(0.05,0,0,0.05,32.95,0)" xlink:href="#aS"/><use transform="matrix(0.05,0,0,0.05,37.95,0)" xlink:href="#aE"/><use transform="matrix(0.05,0,0,0.05,47.95,0)" xlink:href="#aF"/><use transform="matrix(0.05,0,0,0.05,51.900000000000006,0)" xlink:href="#aO"/><use transform="matrix(0.05,0,0,0.05,61.900000000000006,0)" xlink:href="#aI"/></g><path d="M24-248c120-7 223 5 221 122C244-46 201 0 124 0H24v-248zM76-40c74 7 117-18 117-86 0-67-45-88-117-82v168" id="bO"/><path d="M121-226c-27-7-43 5-38 36h38v33H83V0H34v-157H6v-33h28c-9-59 32-81 87-68v32" id="bP"/><path d="M133-34C117-15 103 5 69 4 32 3 11-16 11-54c-1-60 55-63 116-61 1-26-3-47-28-47-18 1-26 9-28 27l-52-2c7-38 36-58 82-57s74 22 75 68l1 82c-1 14 12 18 25 15v27c-30 8-71 5-69-32zm-48 3c29 0 43-24 42-57-32 0-66-3-65 30 0 17 8 27 23 27" id="bQ"/><g id="ar"><use transform="matrix(0.05,0,0,0.05,0,0)" xlink:href="#bO"/><use transform="matrix(0.05,0,0,0.05,12.950000000000001,0)" xlink:href="#bm"/><use transform="matrix(0.05,0,0,0.05,22.950000000000003,0)" xlink:href="#bP"/><use transform="matrix(0.05,0,0,0.05,28.900000000000002,0)" xlink:href="#bQ"/><use transform="matrix(0.05,0,0,0.05,38.900000000000006,0)" xlink:href="#bs"/><use transform="matrix(0.05,0,0,0.05,49.85000000000001,0)" xlink:href="#bA"/><use transform="matrix(0.05,0,0,0.05,54.85,0)" xlink:href="#bo"/></g><path d="M220-157c-53 9-28 100-34 157h-49v-107c1-27-5-49-29-50C55-147 81-57 75 0H25l-1-190h47c2 12-1 28 3 38 10-53 101-56 108 0 13-22 24-43 59-42 82 1 51 116 57 194h-49v-107c-1-25-5-48-29-50" id="bR"/><g id="as"><use transform="matrix(0.05,0,0,0.05,0,0)" xlink:href="#bm"/><use transform="matrix(0.05,0,0,0.05,10,0)" xlink:href="#bR"/><use transform="matrix(0.05,0,0,0.05,26,0)" xlink:href="#bQ"/><use transform="matrix(0.05,0,0,0.05,36,0)" xlink:href="#bv"/><use transform="matrix(0.05,0,0,0.05,41,0)" xlink:href="#bA"/></g><g id="at"><use transform="matrix(0.05,0,0,0.05,0,0)" xlink:href="#aF"/><use transform="matrix(0.05,0,0,0.05,3.95,0)" xlink:href="#aH"/><path fill="#333" d="M-.9 1.25h15.75v1.32H-.9z"/></g><g id="au"><use transform="matrix(0.05,0,0,0.05,0,0)" xlink:href="#aS"/><use transform="matrix(0.05,0,0,0.05,5,0)" xlink:href="#bD"/><use transform="matrix(0.05,0,0,0.05,14,0)" xlink:href="#aK"/><use transform="matrix(0.05,0,0,0.05,24,0)" xlink:href="#aC"/></g><g id="av"><use transform="matrix(0.05,0,0,0.05,0,0)" xlink:href="#aF"/><use transform="matrix(0.05,0,0,0.05,3.95,0)" xlink:href="#aO"/><use transform="matrix(0.05,0,0,0.05,13.949999999999998,0)" xlink:href="#aR"/><use transform="matrix(0.05,0,0,0.05,23.95,0)" xlink:href="#aM"/><use transform="matrix(0.05,0,0,0.05,33.95,0)" xlink:href="#aT"/><use transform="matrix(0.05,0,0,0.05,43.95,0)" xlink:href="#aH"/></g><g id="aw"><use transform="matrix(0.05,0,0,0.05,0,0)" xlink:href="#bG"/><use transform="matrix(0.05,0,0,0.05,14,0)" xlink:href="#bs"/><use transform="matrix(0.05,0,0,0.05,24.950000000000003,0)" xlink:href="#bm"/><use transform="matrix(0.05,0,0,0.05,34.95,0)" xlink:href="#bu"/><use transform="matrix(0.05,0,0,0.05,44.95,0)" xlink:href="#bo"/><use transform="matrix(0.05,0,0,0.05,50.900000000000006,0)" xlink:href="#bv"/><use transform="matrix(0.05,0,0,0.05,55.900000000000006,0)" xlink:href="#bk"/><use transform="matrix(0.05,0,0,0.05,66.85000000000001,0)" xlink:href="#by"/><use transform="matrix(0.05,0,0,0.05,77.80000000000001,0)" xlink:href="#bE"/><use transform="matrix(0.05,0,0,0.05,90.75000000000001,0)" xlink:href="#by"/><use transform="matrix(0.05,0,0,0.05,101.70000000000002,0)" xlink:href="#bu"/><use transform="matrix(0.05,0,0,0.05,111.7,0)" xlink:href="#bF"/><use transform="matrix(0.05,0,0,0.05,125.7,0)" xlink:href="#bm"/><use transform="matrix(0.05,0,0,0.05,135.70000000000002,0)" xlink:href="#bj"/></g><g id="ax"><use transform="matrix(0.05,0,0,0.05,0,0)" xlink:href="#aF"/><use transform="matrix(0.05,0,0,0.05,3.95,0)" xlink:href="#aH"/><path fill="#333" d="M-.9 1.25h15.75v1.32H-.9z"/></g></defs></g></svg>