<svg xmlns="http://www.w3.org/2000/svg" xmlns:xlink="http://www.w3.org/1999/xlink" xmlns:lucid="lucid" width="758.08" height="700"><g transform="translate(-434.2592999279214 -220)" lucid:page-tab-id="0_0"><path d="M0 0h1870.87v1322.83H0z" fill="#fff"/><path d="M680 246c0-3.3 2.7-6 6-6h368c3.3 0 6 2.7 6 6v51.33c0 3.32-2.7 6-6 6H686c-3.3 0-6-2.68-6-6z" stroke="#000" stroke-opacity="0" fill="#fff" fill-opacity="0"/><use xlink:href="#a" transform="matrix(1,0,0,1,685,245) translate(2.9166666666667425 33.41666666666666)"/><use xlink:href="#b" transform="matrix(1,0,0,1,685,245) translate(167.5462962962963 33.41666666666666)"/><use xlink:href="#c" transform="matrix(1,0,0,1,685,245) translate(296.8981481481481 33.41666666666666)"/><path d="M1008 340c50.8 0 92 17.9 92 40s-41.2 40-92 40H732c-50.8 0-92-17.9-92-40s41.2-40 92-40z" stroke="#3a414a" fill="#fff"/><use xlink:href="#d" transform="matrix(1,0,0,1,645,345) translate(181.79512345679012 39.65277777777778)"/><path d="M1008 820c50.8 0 92 17.9 92 40s-41.2 40-92 40H732c-50.8 0-92-17.9-92-40s41.2-40 92-40z" stroke="#3a414a" fill="#fff"/><use xlink:href="#e" transform="matrix(1,0,0,1,645,825) translate(180.62228395061726 39.65277777777778)"/><path d="M701.68 821.3l-10.27-15.62-8.86-14.8-7.53-13.85-6.42-13.1-5.5-12.54-4.74-12.13-4.07-11.86-3.48-11.73-2.97-11.77-2.48-11.96-2.03-12.37-1.58-13.07-1.12-14.2-.6-16.17-.02-11.7.63-21.38 1.2-16.67 1.7-14.7 2.16-13.7 2.67-13.3 3.25-13.3 3.93-13.54 4.74-14.1 5.74-15 7-16.2 8.66-17.9 10.83-20.2 1.18-2" stroke="#3a414a" fill="none"/><path d="M702.5 821.64l-1.1.15-.14-.24.83-.55z" stroke="#3a414a" stroke-width=".05" fill="#3a414a"/><path d="M701.15 419.67l-3.18 14.66-8-4.67z" stroke="#3a414a" fill="#3a414a"/><use xlink:href="#f" transform="matrix(1,0,0,1,440.2592999279214,609.9723067523191) translate(0 14.222222222222223)"/><use xlink:href="#g" transform="matrix(1,0,0,1,440.2592999279214,609.9723067523191) translate(43.35802469135803 14.222222222222223)"/><use xlink:href="#h" transform="matrix(1,0,0,1,440.2592999279214,609.9723067523191) translate(93.7283950617284 14.222222222222223)"/><use xlink:href="#i" transform="matrix(1,0,0,1,440.2592999279214,609.9723067523191) translate(109.03703703703705 14.222222222222223)"/><path d="M1041.68 821.92l-9.84-14.97-8.66-14.45-7.45-13.7-6.44-13.12-5.58-12.67-4.82-12.34-4.17-12.16-3.58-12.1-3.06-12.16-2.58-12.4-2.1-12.8-1.64-13.5-1.15-14.6-.6-16.46-.03-11.78.63-21.23 1.2-16.48 1.65-14.48 2.13-13.5 2.64-13.1 3.2-13.05 3.88-13.36 4.7-13.94 5.7-14.85 6.98-16.15 8.68-17.96 10.96-20.44 1.37-2.36" stroke="#3a414a" fill="none"/><path d="M1042.65 822.47l-1.38-.26v-.02l.82-.55z" stroke="#3a414a" stroke-width=".05" fill="#3a414a"/><path d="M1041.15 419.04l-3.18 14.66-8-4.67z" stroke="#3a414a" fill="#3a414a"/><use xlink:href="#j" transform="matrix(1,0,0,1,853.8385880090073,609.9383829321227) translate(0 14.222222222222223)"/><use xlink:href="#k" transform="matrix(1,0,0,1,853.8385880090073,609.9383829321227) translate(70.96296296296296 14.222222222222223)"/><path d="M740 421v382.12" stroke="#3a414a" fill="none"/><path d="M740.5 421h-1v-.5h1z" stroke="#3a414a" stroke-width=".05" fill="#3a414a"/><path d="M740 817.88l-4.64-14.26h9.28z" stroke="#3a414a" fill="#3a414a"/><g><use xlink:href="#l" transform="matrix(1,0,0,1,748,466.66666666666663) translate(0 14.222222222222223)"/><use xlink:href="#m" transform="matrix(1,0,0,1,748,466.66666666666663) translate(67.11111111111111 14.222222222222223)"/><use xlink:href="#n" transform="matrix(1,0,0,1,748,466.66666666666663) translate(82.41975308641976 14.222222222222223)"/><use xlink:href="#o" transform="matrix(1,0,0,1,748,466.66666666666663) translate(153.38271604938274 14.222222222222223)"/></g><path d="M1063.97 412.78v398.58" stroke="#3a414a" fill="none"/><path d="M1064.47 412.8h-1v-.37l.5-.15.5-.18z" stroke="#3a414a" stroke-width=".05" fill="#3a414a"/><path d="M1063.97 826.12l-4.64-14.26h9.27z" stroke="#3a414a" fill="#3a414a"/><g><use xlink:href="#l" transform="matrix(1,0,0,1,1071.965661813013,609.3420520619294) translate(0 14.222222222222223)"/><use xlink:href="#k" transform="matrix(1,0,0,1,1071.965661813013,609.3420520619294) translate(67.11111111111111 14.222222222222223)"/></g><defs><path fill="#3a414a" d="M33 0v-248h34V0H33" id="p"/><path fill="#3a414a" d="M117-194c89-4 53 116 60 194h-32v-121c0-31-8-49-39-48C34-167 62-67 57 0H25l-1-190h30c1 10-1 24 2 32 11-22 29-35 61-36" id="q"/><path fill="#3a414a" d="M59-47c-2 24 18 29 38 22v24C64 9 27 4 27-40v-127H5v-23h24l9-43h21v43h35v23H59v120" id="r"/><path fill="#3a414a" d="M100-194c63 0 86 42 84 106H49c0 40 14 67 53 68 26 1 43-12 49-29l28 8c-11 28-37 45-77 45C44 4 14-33 15-96c1-61 26-98 85-98zm52 81c6-60-76-77-97-28-3 7-6 17-6 28h103" id="s"/><path fill="#3a414a" d="M114-163C36-179 61-72 57 0H25l-1-190h30c1 12-1 29 2 39 6-27 23-49 58-41v29" id="t"/><path fill="#3a414a" d="M141-36C126-15 110 5 73 4 37 3 15-17 15-53c-1-64 63-63 125-63 3-35-9-54-41-54-24 1-41 7-42 31l-33-3c5-37 33-52 76-52 45 0 72 20 72 64v82c-1 20 7 32 28 27v20c-31 9-61-2-59-35zM48-53c0 20 12 33 32 33 41-3 63-29 60-74-43 2-92-5-92 41" id="u"/><path fill="#3a414a" d="M96-169c-40 0-48 33-48 73s9 75 48 75c24 0 41-14 43-38l32 2c-6 37-31 61-74 61-59 0-76-41-82-99-10-93 101-131 147-64 4 7 5 14 7 22l-32 3c-4-21-16-35-41-35" id="v"/><path fill="#3a414a" d="M24-231v-30h32v30H24zM24 0v-190h32V0H24" id="w"/><path fill="#3a414a" d="M100-194c62-1 85 37 85 99 1 63-27 99-86 99S16-35 15-95c0-66 28-99 85-99zM99-20c44 1 53-31 53-75 0-43-8-75-51-75s-53 32-53 75 10 74 51 75" id="x"/><g id="a"><use transform="matrix(0.09259259259259256,0,0,0.09259259259259256,0,0)" xlink:href="#p"/><use transform="matrix(0.09259259259259256,0,0,0.09259259259259256,9.259259259259256,0)" xlink:href="#q"/><use transform="matrix(0.09259259259259256,0,0,0.09259259259259256,27.777777777777768,0)" xlink:href="#r"/><use transform="matrix(0.09259259259259256,0,0,0.09259259259259256,37.037037037037024,0)" xlink:href="#s"/><use transform="matrix(0.09259259259259256,0,0,0.09259259259259256,55.555555555555536,0)" xlink:href="#t"/><use transform="matrix(0.09259259259259256,0,0,0.09259259259259256,66.57407407407405,0)" xlink:href="#u"/><use transform="matrix(0.09259259259259256,0,0,0.09259259259259256,85.09259259259255,0)" xlink:href="#v"/><use transform="matrix(0.09259259259259256,0,0,0.09259259259259256,101.7592592592592,0)" xlink:href="#r"/><use transform="matrix(0.09259259259259256,0,0,0.09259259259259256,111.01851851851846,0)" xlink:href="#w"/><use transform="matrix(0.09259259259259256,0,0,0.09259259259259256,118.33333333333327,0)" xlink:href="#x"/><use transform="matrix(0.09259259259259256,0,0,0.09259259259259256,136.8518518518518,0)" xlink:href="#q"/></g><path fill="#3a414a" d="M85-194c31 0 48 13 60 33l-1-100h32l1 261h-30c-2-10 0-23-3-31C134-8 116 4 85 4 32 4 16-35 15-94c0-66 23-100 70-100zm9 24c-40 0-46 34-46 75 0 40 6 74 45 74 42 0 51-32 51-76 0-42-9-74-50-73" id="y"/><path fill="#3a414a" d="M177-190C167-65 218 103 67 71c-23-6-38-20-44-43l32-5c15 47 100 32 89-28v-30C133-14 115 1 83 1 29 1 15-40 15-95c0-56 16-97 71-98 29-1 48 16 59 35 1-10 0-23 2-32h30zM94-22c36 0 50-32 50-73 0-42-14-75-50-75-39 0-46 34-46 75s6 73 46 73" id="z"/><path fill="#3a414a" d="M210-169c-67 3-38 105-44 169h-31v-121c0-29-5-50-35-48C34-165 62-65 56 0H25l-1-190h30c1 10-1 24 2 32 10-44 99-50 107 0 11-21 27-35 58-36 85-2 47 119 55 194h-31v-121c0-29-5-49-35-48" id="A"/><g id="b"><use transform="matrix(0.09259259259259256,0,0,0.09259259259259256,0,0)" xlink:href="#y"/><use transform="matrix(0.09259259259259256,0,0,0.09259259259259256,18.518518518518512,0)" xlink:href="#w"/><use transform="matrix(0.09259259259259256,0,0,0.09259259259259256,25.833333333333325,0)" xlink:href="#u"/><use transform="matrix(0.09259259259259256,0,0,0.09259259259259256,44.35185185185183,0)" xlink:href="#z"/><use transform="matrix(0.09259259259259256,0,0,0.09259259259259256,62.870370370370345,0)" xlink:href="#t"/><use transform="matrix(0.09259259259259256,0,0,0.09259259259259256,73.88888888888886,0)" xlink:href="#u"/><use transform="matrix(0.09259259259259256,0,0,0.09259259259259256,92.40740740740736,0)" xlink:href="#A"/></g><path fill="#3a414a" d="M24 0v-261h32V0H24" id="B"/><g id="c"><use transform="matrix(0.09259259259259256,0,0,0.09259259259259256,0,0)" xlink:href="#B"/><use transform="matrix(0.09259259259259256,0,0,0.09259259259259256,7.314814814814812,0)" xlink:href="#x"/><use transform="matrix(0.09259259259259256,0,0,0.09259259259259256,25.833333333333325,0)" xlink:href="#z"/><use transform="matrix(0.09259259259259256,0,0,0.09259259259259256,44.35185185185183,0)" xlink:href="#w"/><use transform="matrix(0.09259259259259256,0,0,0.09259259259259256,51.666666666666636,0)" xlink:href="#q"/></g><path fill="#3a414a" d="M160-131c35 5 61 23 61 61C221 17 115-2 30 0v-248c76 3 177-17 177 60 0 33-19 50-47 57zm-97-11c50-1 110 9 110-42 0-47-63-36-110-37v79zm0 115c55-2 124 14 124-45 0-56-70-42-124-44v89" id="C"/><path fill="#3a414a" d="M143 0L79-87 56-68V0H24v-261h32v163l83-92h37l-77 82L181 0h-38" id="D"/><g id="d"><use transform="matrix(0.06172839506172839,0,0,0.06172839506172839,0,0)" xlink:href="#C"/><use transform="matrix(0.06172839506172839,0,0,0.06172839506172839,14.814814814814813,0)" xlink:href="#u"/><use transform="matrix(0.06172839506172839,0,0,0.06172839506172839,27.160493827160494,0)" xlink:href="#v"/><use transform="matrix(0.06172839506172839,0,0,0.06172839506172839,38.27160493827161,0)" xlink:href="#D"/><use transform="matrix(0.06172839506172839,0,0,0.06172839506172839,49.38271604938272,0)" xlink:href="#s"/><use transform="matrix(0.06172839506172839,0,0,0.06172839506172839,61.7283950617284,0)" xlink:href="#q"/><use transform="matrix(0.06172839506172839,0,0,0.06172839506172839,74.07407407407408,0)" xlink:href="#y"/></g><path fill="#3a414a" d="M63-220v92h138v28H63V0H30v-248h175v28H63" id="E"/><g id="e"><use transform="matrix(0.06172839506172839,0,0,0.06172839506172839,0,0)" xlink:href="#E"/><use transform="matrix(0.06172839506172839,0,0,0.06172839506172839,13.518518518518517,0)" xlink:href="#t"/><use transform="matrix(0.06172839506172839,0,0,0.06172839506172839,20.864197530864196,0)" xlink:href="#x"/><use transform="matrix(0.06172839506172839,0,0,0.06172839506172839,33.20987654320987,0)" xlink:href="#q"/><use transform="matrix(0.06172839506172839,0,0,0.06172839506172839,45.55555555555555,0)" xlink:href="#r"/><use transform="matrix(0.06172839506172839,0,0,0.06172839506172839,51.72839506172839,0)" xlink:href="#s"/><use transform="matrix(0.06172839506172839,0,0,0.06172839506172839,64.07407407407408,0)" xlink:href="#q"/><use transform="matrix(0.06172839506172839,0,0,0.06172839506172839,76.41975308641976,0)" xlink:href="#y"/></g><path fill="#333" d="M24-248c93 1 206-16 204 79-1 75-69 88-152 82V0H24v-248zm52 121c47 0 100 7 100-41 0-47-54-39-100-39v80" id="F"/><path fill="#333" d="M110-194c64 0 96 36 96 99 0 64-35 99-97 99-61 0-95-36-95-99 0-62 34-99 96-99zm-1 164c35 0 45-28 45-65 0-40-10-65-43-65-34 0-45 26-45 65 0 36 10 65 43 65" id="G"/><path fill="#333" d="M137-138c1-29-70-34-71-4 15 46 118 7 119 86 1 83-164 76-172 9l43-7c4 19 20 25 44 25 33 8 57-30 24-41C81-84 22-81 20-136c-2-80 154-74 161-7" id="H"/><path fill="#333" d="M115-3C79 11 28 4 28-45v-112H4v-33h27l15-45h31v45h36v33H77v99c-1 23 16 31 38 25v30" id="I"/><g id="f"><use transform="matrix(0.04938271604938272,0,0,0.04938271604938272,0,0)" xlink:href="#F"/><use transform="matrix(0.04938271604938272,0,0,0.04938271604938272,11.851851851851853,0)" xlink:href="#G"/><use transform="matrix(0.04938271604938272,0,0,0.04938271604938272,22.666666666666668,0)" xlink:href="#H"/><use transform="matrix(0.04938271604938272,0,0,0.04938271604938272,32.543209876543216,0)" xlink:href="#I"/></g><path fill="#333" d="M185-48c-13 30-37 53-82 52C43 2 14-33 14-96s30-98 90-98c62 0 83 45 84 108H66c0 31 8 55 39 56 18 0 30-7 34-22zm-45-69c5-46-57-63-70-21-2 6-4 13-4 21h74" id="J"/><path fill="#333" d="M220-157c-53 9-28 100-34 157h-49v-107c1-27-5-49-29-50C55-147 81-57 75 0H25l-1-190h47c2 12-1 28 3 38 10-53 101-56 108 0 13-22 24-43 59-42 82 1 51 116 57 194h-49v-107c-1-25-5-48-29-50" id="K"/><path fill="#333" d="M133-34C117-15 103 5 69 4 32 3 11-16 11-54c-1-60 55-63 116-61 1-26-3-47-28-47-18 1-26 9-28 27l-52-2c7-38 36-58 82-57s74 22 75 68l1 82c-1 14 12 18 25 15v27c-30 8-71 5-69-32zm-48 3c29 0 43-24 42-57-32 0-66-3-65 30 0 17 8 27 23 27" id="L"/><path fill="#333" d="M25-224v-37h50v37H25zM25 0v-190h50V0H25" id="M"/><path fill="#333" d="M25 0v-261h50V0H25" id="N"/><g id="g"><use transform="matrix(0.04938271604938272,0,0,0.04938271604938272,0,0)" xlink:href="#J"/><use transform="matrix(0.04938271604938272,0,0,0.04938271604938272,9.876543209876544,0)" xlink:href="#K"/><use transform="matrix(0.04938271604938272,0,0,0.04938271604938272,25.679012345679016,0)" xlink:href="#L"/><use transform="matrix(0.04938271604938272,0,0,0.04938271604938272,35.55555555555556,0)" xlink:href="#M"/><use transform="matrix(0.04938271604938272,0,0,0.04938271604938272,40.49382716049383,0)" xlink:href="#N"/></g><path fill="#333" d="M125-100v72H85v-72H15v-39h70v-72h40v72h71v39h-71" id="O"/><use transform="matrix(0.04938271604938272,0,0,0.04938271604938272,0,0)" xlink:href="#O" id="h"/><path fill="#333" d="M135-194c53 0 70 44 70 98 0 56-19 98-73 100-31 1-45-17-59-34 3 33 2 69 2 105H25l-1-265h48c2 10 0 23 3 31 11-24 29-35 60-35zM114-30c33 0 39-31 40-66 0-38-9-64-40-64-56 0-55 130 0 130" id="P"/><path fill="#333" d="M231 0h-52l-39-155L100 0H48L-1-190h46L77-45c9-52 24-97 36-145h53l37 145 32-145h46" id="Q"/><path fill="#333" d="M135-150c-39-12-60 13-60 57V0H25l-1-190h47c2 13-1 29 3 40 6-28 27-53 61-41v41" id="R"/><path fill="#333" d="M88-194c31-1 46 15 58 34l-1-101h50l1 261h-48c-2-10 0-23-3-31C134-8 116 4 84 4 32 4 16-41 15-95c0-56 19-97 73-99zm17 164c33 0 40-30 41-66 1-37-9-64-41-64s-38 30-39 65c0 43 13 65 39 65" id="S"/><g id="i"><use transform="matrix(0.04938271604938272,0,0,0.04938271604938272,0,0)" xlink:href="#P"/><use transform="matrix(0.04938271604938272,0,0,0.04938271604938272,10.814814814814815,0)" xlink:href="#L"/><use transform="matrix(0.04938271604938272,0,0,0.04938271604938272,20.69135802469136,0)" xlink:href="#H"/><use transform="matrix(0.04938271604938272,0,0,0.04938271604938272,30.567901234567906,0)" xlink:href="#H"/><use transform="matrix(0.04938271604938272,0,0,0.04938271604938272,40.44444444444445,0)" xlink:href="#Q"/><use transform="matrix(0.04938271604938272,0,0,0.04938271604938272,54.27160493827161,0)" xlink:href="#G"/><use transform="matrix(0.04938271604938272,0,0,0.04938271604938272,65.08641975308642,0)" xlink:href="#R"/><use transform="matrix(0.04938271604938272,0,0,0.04938271604938272,72,0)" xlink:href="#S"/></g><path fill="#333" d="M240-174c0 40-23 61-54 70L253 0h-59l-57-94H76V0H24v-248c93 4 217-23 216 74zM76-134c48-2 112 12 112-38 0-48-66-32-112-35v73" id="T"/><path fill="#333" d="M121-226c-27-7-43 5-38 36h38v33H83V0H34v-157H6v-33h28c-9-59 32-81 87-68v32" id="U"/><path fill="#333" d="M114-157C55-157 80-60 75 0H25v-261h50l-1 109c12-26 28-41 61-42 86-1 58 113 63 194h-50c-7-57 23-157-34-157" id="V"/><g id="j"><use transform="matrix(0.04938271604938272,0,0,0.04938271604938272,0,0)" xlink:href="#T"/><use transform="matrix(0.04938271604938272,0,0,0.04938271604938272,12.790123456790125,0)" xlink:href="#J"/><use transform="matrix(0.04938271604938272,0,0,0.04938271604938272,22.66666666666667,0)" xlink:href="#U"/><use transform="matrix(0.04938271604938272,0,0,0.04938271604938272,28.54320987654322,0)" xlink:href="#R"/><use transform="matrix(0.04938271604938272,0,0,0.04938271604938272,35.4567901234568,0)" xlink:href="#J"/><use transform="matrix(0.04938271604938272,0,0,0.04938271604938272,45.33333333333334,0)" xlink:href="#H"/><use transform="matrix(0.04938271604938272,0,0,0.04938271604938272,55.209876543209894,0)" xlink:href="#V"/></g><path fill="#333" d="M147 0L96-86 75-71V0H25v-261h50v150l67-79h53l-66 74L201 0h-54" id="W"/><path fill="#333" d="M135-194c87-1 58 113 63 194h-50c-7-57 23-157-34-157-59 0-34 97-39 157H25l-1-190h47c2 12-1 28 3 38 12-26 28-41 61-42" id="X"/><g id="k"><use transform="matrix(0.04938271604938272,0,0,0.04938271604938272,0,0)" xlink:href="#I"/><use transform="matrix(0.04938271604938272,0,0,0.04938271604938272,5.8765432098765435,0)" xlink:href="#G"/><use transform="matrix(0.04938271604938272,0,0,0.04938271604938272,16.691358024691358,0)" xlink:href="#W"/><use transform="matrix(0.04938271604938272,0,0,0.04938271604938272,26.567901234567902,0)" xlink:href="#J"/><use transform="matrix(0.04938271604938272,0,0,0.04938271604938272,36.44444444444444,0)" xlink:href="#X"/></g><path fill="#333" d="M199 0l-22-63H83L61 0H9l90-248h61L250 0h-51zm-33-102l-36-108c-10 38-24 72-36 108h72" id="Y"/><path fill="#333" d="M190-63c-7 42-38 67-86 67-59 0-84-38-90-98-12-110 154-137 174-36l-49 2c-2-19-15-32-35-32-30 0-35 28-38 64-6 74 65 87 74 30" id="Z"/><g id="l"><use transform="matrix(0.04938271604938272,0,0,0.04938271604938272,0,0)" xlink:href="#Y"/><use transform="matrix(0.04938271604938272,0,0,0.04938271604938272,12.790123456790125,0)" xlink:href="#Z"/><use transform="matrix(0.04938271604938272,0,0,0.04938271604938272,22.66666666666667,0)" xlink:href="#Z"/><use transform="matrix(0.04938271604938272,0,0,0.04938271604938272,32.543209876543216,0)" xlink:href="#J"/><use transform="matrix(0.04938271604938272,0,0,0.04938271604938272,42.41975308641976,0)" xlink:href="#H"/><use transform="matrix(0.04938271604938272,0,0,0.04938271604938272,52.2962962962963,0)" xlink:href="#H"/></g><use transform="matrix(0.04938271604938272,0,0,0.04938271604938272,0,0)" xlink:href="#O" id="m"/><g id="n"><use transform="matrix(0.04938271604938272,0,0,0.04938271604938272,0,0)" xlink:href="#T"/><use transform="matrix(0.04938271604938272,0,0,0.04938271604938272,12.790123456790125,0)" xlink:href="#J"/><use transform="matrix(0.04938271604938272,0,0,0.04938271604938272,22.66666666666667,0)" xlink:href="#U"/><use transform="matrix(0.04938271604938272,0,0,0.04938271604938272,28.54320987654322,0)" xlink:href="#R"/><use transform="matrix(0.04938271604938272,0,0,0.04938271604938272,35.4567901234568,0)" xlink:href="#J"/><use transform="matrix(0.04938271604938272,0,0,0.04938271604938272,45.33333333333334,0)" xlink:href="#H"/><use transform="matrix(0.04938271604938272,0,0,0.04938271604938272,55.209876543209894,0)" xlink:href="#V"/></g><g id="o"><use transform="matrix(0.04938271604938272,0,0,0.04938271604938272,0,0)" xlink:href="#I"/><use transform="matrix(0.04938271604938272,0,0,0.04938271604938272,5.8765432098765435,0)" xlink:href="#G"/><use transform="matrix(0.04938271604938272,0,0,0.04938271604938272,16.691358024691358,0)" xlink:href="#W"/><use transform="matrix(0.04938271604938272,0,0,0.04938271604938272,26.567901234567902,0)" xlink:href="#J"/><use transform="matrix(0.04938271604938272,0,0,0.04938271604938272,36.44444444444444,0)" xlink:href="#X"/></g></defs></g></svg>