<svg xmlns="http://www.w3.org/2000/svg" xmlns:xlink="http://www.w3.org/1999/xlink" xmlns:lucid="lucid" width="1760" height="1360"><g transform="translate(0 0)" lucid:page-tab-id="HWEp-vi-RSFO"><path d="M0 0h1760v1360H0z" fill="#fff"/><path d="M200 138h200v183H200z" stroke="#333" stroke-width="2" fill="#fff"/><path d="M200 175.6h200" stroke="#333" stroke-width="2" fill="none"/><use xlink:href="#a" transform="matrix(1,0,0,1,208,146) translate(72.025 14.6)"/><use xlink:href="#b" transform="matrix(1,0,0,1,212,183.6) translate(0 14.600000000000003)"/><use xlink:href="#c" transform="matrix(1,0,0,1,212,183.6) translate(0 36.2)"/><use xlink:href="#d" transform="matrix(1,0,0,1,212,183.6) translate(0 57.800000000000004)"/><use xlink:href="#e" transform="matrix(1,0,0,1,212,183.6) translate(0 79.40000000000002)"/><use xlink:href="#f" transform="matrix(1,0,0,1,212,183.6) translate(0 101.00000000000001)"/><use xlink:href="#g" transform="matrix(1,0,0,1,212,183.6) translate(0 122.60000000000001)"/><path d="M1358.5 219h-73.25c-2.9 0-5.25 2.35-5.25 5.25s-2.35 5.25-5.25 5.25H401.5" stroke="#333" fill="none"/><path d="M1359 219.5h-.5v-1h.5zM401.5 230h-.5v-1h.5z" stroke="#333" stroke-width=".05" fill="#333"/><use xlink:href="#h" transform="matrix(1,0,0,1,422.0510990988056,203.89999999999998) translate(0 14.4)"/><use xlink:href="#i" transform="matrix(1,0,0,1,1308.2346501175657,193.39999999999998) translate(0.004999999999999893 14.4)"/><use xlink:href="#j" transform="matrix(1,0,0,1,860.2011879828652,203.89999999999998) translate(0.004999999999999005 14.4)"/><path d="M738.5 366.5c-4.7 0-8.5-3.8-8.5-8.5v-70.6c0-6.63-5.37-12-12-12H401.5" stroke="#333" fill="none"/><path d="M739 367h-.5v-1h.5zM401.5 275.9h-.5v-1h.5z" stroke="#333" stroke-width=".05" fill="#333"/><use xlink:href="#k" transform="matrix(1,0,0,1,424.5757054833536,249.80149006622514) translate(0 14.4)"/><use xlink:href="#i" transform="matrix(1,0,0,1,737.3471610013897,262.99001007213457) translate(0.004999999999999893 14.4)"/><use xlink:href="#l" transform="matrix(1,0,0,1,659.5151136500026,249.80149006622514) translate(0.004999999999999005 14.4)"/><path d="M453.15 75c0-4.42 3.58-8 8-8h836.75c4.4 0 8 3.58 8 8v25.16c0 4.4-3.6 8-8 8H461.15c-4.42 0-8-3.6-8-8z" stroke="#000" stroke-opacity="0" stroke-width="2" fill="#fff" fill-opacity="0"/><use xlink:href="#m" transform="matrix(1,0,0,1,457.1465527853429,70.99999999994924) translate(335.67111111111114 23.657777777777778)"/><use xlink:href="#n" transform="matrix(1,0,0,1,457.1465527853429,70.99999999994924) translate(438.8846913580247 23.657777777777778)"/><path d="M729.63 106.8H1039M729.65 106.8h-1.02M1038.96 106.8h1.03" stroke="#a9afb8" stroke-width="2" fill="none"/><path d="M453.15 116.16c0-4.42 3.58-8 8-8h837.7c4.42 0 8 3.58 8 8V119c0 4.42-3.58 8-8 8h-837.7c-4.42 0-8-3.58-8-8z" stroke="#000" stroke-opacity="0" stroke-width="2" fill="#fff" fill-opacity="0"/><path d="M1360 180h200v183h-200z" stroke="#333" stroke-width="2" fill="#fff"/><path d="M1360 217.6h200" stroke="#333" stroke-width="2" fill="none"/><use xlink:href="#o" transform="matrix(1,0,0,1,1368,188) translate(61.55 14.6)"/><use xlink:href="#p" transform="matrix(1,0,0,1,1372,225.6) translate(0 14.600000000000003)"/><use xlink:href="#q" transform="matrix(1,0,0,1,1372,225.6) translate(0 36.2)"/><use xlink:href="#r" transform="matrix(1,0,0,1,1372,225.6) translate(0 57.800000000000004)"/><use xlink:href="#s" transform="matrix(1,0,0,1,1372,225.6) translate(0 79.40000000000002)"/><use xlink:href="#t" transform="matrix(1,0,0,1,1372,225.6) translate(53.95 79.40000000000002)"/><use xlink:href="#u" transform="matrix(1,0,0,1,1372,225.6) translate(0 101.00000000000001)"/><use xlink:href="#v" transform="matrix(1,0,0,1,1372,225.6) translate(49.95 101.00000000000001)"/><use xlink:href="#w" transform="matrix(1,0,0,1,1372,225.6) translate(0 122.60000000000001)"/><use xlink:href="#x" transform="matrix(1,0,0,1,1372,225.6) translate(39.95 122.60000000000001)"/><path d="M740 285.5h200v162H740z" stroke="#333" stroke-width="2" fill="#fff"/><path d="M740 323.1h200" stroke="#333" stroke-width="2" fill="none"/><use xlink:href="#y" transform="matrix(1,0,0,1,748,293.5) translate(49.099999999999994 14.6)"/><use xlink:href="#z" transform="matrix(1,0,0,1,752,331.1) translate(0 14.899999999999993)"/><use xlink:href="#A" transform="matrix(1,0,0,1,752,331.1) translate(0 36.49999999999999)"/><use xlink:href="#B" transform="matrix(1,0,0,1,752,331.1) translate(47.85000000000001 36.49999999999999)"/><use xlink:href="#C" transform="matrix(1,0,0,1,752,331.1) translate(0 58.099999999999994)"/><use xlink:href="#D" transform="matrix(1,0,0,1,752,331.1) translate(0 79.70000000000002)"/><use xlink:href="#E" transform="matrix(1,0,0,1,752,331.1) translate(0 101.30000000000001)"/><path d="M220 576.5h240v207H220z" stroke="#333" stroke-width="2" fill="#fff"/><path d="M220 614.1h240" stroke="#333" stroke-width="2" fill="none"/><use xlink:href="#F" transform="matrix(1,0,0,1,228,584.5) translate(62.15 14.6)"/><use xlink:href="#G" transform="matrix(1,0,0,1,228,584.5) translate(133.9 14.6)"/><use xlink:href="#H" transform="matrix(1,0,0,1,232,622.1) translate(0 15.300000000000006)"/><use xlink:href="#I" transform="matrix(1,0,0,1,232,622.1) translate(0 36.900000000000006)"/><use xlink:href="#J" transform="matrix(1,0,0,1,232,622.1) translate(38.95 36.900000000000006)"/><use xlink:href="#K" transform="matrix(1,0,0,1,232,622.1) translate(0 58.50000000000001)"/><use xlink:href="#L" transform="matrix(1,0,0,1,232,622.1) translate(0 80.10000000000002)"/><use xlink:href="#M" transform="matrix(1,0,0,1,232,622.1) translate(0 101.70000000000002)"/><use xlink:href="#N" transform="matrix(1,0,0,1,232,622.1) translate(0 123.30000000000001)"/><use xlink:href="#O" transform="matrix(1,0,0,1,232,622.1) translate(0 144.9)"/><path d="M1000 792.67h180v113h-180z" stroke="#333" stroke-width="2" fill="#fff"/><path d="M1000 830.27h180" stroke="#333" stroke-width="2" fill="none"/><use xlink:href="#P" transform="matrix(1,0,0,1,1008,800.6657894005797) translate(47.55 14.6)"/><use xlink:href="#z" transform="matrix(1,0,0,1,1012,838.2657894005797) translate(0 22.799999999999997)"/><use xlink:href="#Q" transform="matrix(1,0,0,1,1012,838.2657894005797) translate(0 44.4)"/><path d="M799.52 606h160v69h-160z" stroke="#333" stroke-width="2" fill="#fff"/><use xlink:href="#R" transform="matrix(1,0,0,1,807.5213070194004,613.9999999998179) translate(31.074999999999996 30.1)"/><path d="M1358.5 271.5H1042c-6.63 0-12 5.37-12 12v71c0 6.63-5.37 12-12 12h-76.5" stroke="#333" fill="none"/><path d="M1359 272h-.5v-1h.5zM941.5 367h-.5v-1h.5z" stroke="#333" stroke-width=".05" fill="#333"/><use xlink:href="#h" transform="matrix(1,0,0,1,948.9916015349622,340.9) translate(0 14.4)"/><use xlink:href="#S" transform="matrix(1,0,0,1,1330.7058760258374,245.89999999999998) translate(0.004999999999999893 14.4)"/><use xlink:href="#j" transform="matrix(1,0,0,1,1085.7352694585436,245.89999999999998) translate(0.004999999999999005 14.4)"/><path d="M1260 995.93h180v140h-180z" stroke="#333" stroke-width="2" fill="#fff"/><path d="M1260 1033.53h180" stroke="#333" stroke-width="2" fill="none"/><use xlink:href="#T" transform="matrix(1,0,0,1,1268,1003.9320210603572) translate(57.55 14.6)"/><use xlink:href="#U" transform="matrix(1,0,0,1,1272,1041.5320210603572) translate(0 14.69999999999999)"/><use xlink:href="#V" transform="matrix(1,0,0,1,1272,1041.5320210603572) translate(40.9 14.69999999999999)"/><use xlink:href="#r" transform="matrix(1,0,0,1,1272,1041.5320210603572) translate(0 36.29999999999999)"/><use xlink:href="#W" transform="matrix(1,0,0,1,1272,1041.5320210603572) translate(0 57.89999999999999)"/><use xlink:href="#X" transform="matrix(1,0,0,1,1272,1041.5320210603572) translate(0 79.5)"/><path d="M333.15 917.1H460v80H333.15z" stroke="#333" stroke-width="2" fill="#fff"/><use xlink:href="#Y" transform="matrix(1,0,0,1,341.1465527853429,925.0991263600674) translate(22.574999999999996 35.6)"/><path d="M140 1100h140v120H140z" stroke="#333" stroke-width="2" fill="#fff"/><path d="M140 1137.6h140" stroke="#333" stroke-width="2" fill="none"/><use xlink:href="#Z" transform="matrix(1,0,0,1,148,1108) translate(20.15 14.6)"/><use xlink:href="#z" transform="matrix(1,0,0,1,152,1145.6) translate(0 26.299999999999997)"/><use xlink:href="#aa" transform="matrix(1,0,0,1,152,1145.6) translate(0 47.9)"/><path d="M530 1100h160v120H530z" stroke="#333" stroke-width="2" fill="#fff"/><path d="M530 1137.6h160" stroke="#333" stroke-width="2" fill="none"/><use xlink:href="#ab" transform="matrix(1,0,0,1,538,1108) translate(47.525 14.6)"/><use xlink:href="#z" transform="matrix(1,0,0,1,542,1145.6) translate(0 26.299999999999997)"/><use xlink:href="#ac" transform="matrix(1,0,0,1,542,1145.6) translate(0 47.9)"/><path d="M1258.5 1106.03H722c-6.63 0-12-5.37-12-12V334c0-6.63-5.37-12-12-12H300.5" stroke="#333" fill="none"/><path d="M1259 1106.53h-.5v-1h.5zM300.5 322.5H297v-.5h3.5z" stroke="#333" stroke-width=".05" fill="#333"/><use xlink:href="#h" transform="matrix(1,0,0,1,400.14925756325675,296.4) translate(0 14.4)"/><use xlink:href="#i" transform="matrix(1,0,0,1,1172.6780255978695,1080.4337349397592) translate(0.004999999999999893 14.4)"/><use xlink:href="#j" transform="matrix(1,0,0,1,718,706.1278228877767) translate(0.004999999999999005 14.4)"/><path d="M738.5 404.13H352c-6.63 0-12 5.37-12 12V575" stroke="#333" fill="none"/><path d="M739 404.63h-.5v-1h.5zM340.5 575.5h-1v-.5h1z" stroke="#333" stroke-width=".05" fill="#333"/><use xlink:href="#k" transform="matrix(1,0,0,1,322,547.7884358262131) translate(0 14.4)"/><use xlink:href="#i" transform="matrix(1,0,0,1,722.7780120481927,378.5277108433735) translate(0.004999999999999893 14.4)"/><use xlink:href="#ad" transform="matrix(1,0,0,1,388.71294138635653,378.5277108433735) translate(0.005000000000002558 14.4)"/><use xlink:href="#ae" transform="matrix(1,0,0,1,388.71294138635653,378.5277108433735) translate(44.005 14.4)"/><path d="M941.5 411.72H1078c6.63 0 12 5.38 12 12v367.45" stroke="#333" fill="none"/><path d="M941.5 412.22h-.5v-1h.5zM1090.5 791.67h-1v-.52h1z" stroke="#333" stroke-width=".05" fill="#333"/><use xlink:href="#af" transform="matrix(1,0,0,1,940.5250000000001,415.72409638554217) translate(0 14.4)"/><use xlink:href="#ag" transform="matrix(1,0,0,1,1098,770.8657894005801) translate(0 14.4)"/><use xlink:href="#j" transform="matrix(1,0,0,1,1098,583.2373493975904) translate(0.004999999999999005 14.4)"/><path d="M1385.58 364.5v108c0 6.63-5.37 12-12 12H891.52c-6.63 0-12 5.37-12 12v108" stroke="#333" fill="none"/><path d="M1386.08 364.5h-1v-.5h1zM880.02 605h-1v-.5h1z" stroke="#333" stroke-width=".05" fill="#333"/><use xlink:href="#h" transform="matrix(1,0,0,1,858.5713070194004,573.043353956593) translate(0 14.4)"/><use xlink:href="#S" transform="matrix(1,0,0,1,1367.5807228915662,387.25861373845584) translate(0.004999999999999893 14.4)"/><use xlink:href="#ah" transform="matrix(1,0,0,1,1037.2962996882886,458.8999999999089) translate(0.005000000000002558 14.4)"/><use xlink:href="#ai" transform="matrix(1,0,0,1,1037.2962996882886,458.8999999999089) translate(47.955000000000005 14.4)"/><path d="M1426.6 364.5v479.62c0 6.63-5.37 12-12 12h-233.1" stroke="#333" fill="none"/><path d="M1427.1 364.5h-1v-.5h1zM1181.5 856.62h-.5v-1h.5z" stroke="#333" stroke-width=".05" fill="#333"/><use xlink:href="#h" transform="matrix(1,0,0,1,1194.7743566629665,830.5223841944011) translate(0 14.4)"/><use xlink:href="#i" transform="matrix(1,0,0,1,1405.6512048192772,385.78184489846257) translate(0.004999999999999893 14.4)"/><use xlink:href="#aj" transform="matrix(1,0,0,1,1371.701204819277,698.9367945068391) translate(0.004999999999999005 14.4)"/><path d="M1200 640h126.85v49H1200z" stroke="#333" stroke-width="2" fill="#fff"/><use xlink:href="#ak" transform="matrix(1,0,0,1,1208,648) translate(30.025 20.1)"/><path d="M1426.1 666.96h-97.75M1426.1 666.96h.5" stroke="#333" fill="none"/><path d="M1328.37 667.46h-.52v-1h.52z" stroke="#333" stroke-width=".05" fill="#333"/><path d="M1514.72 364.5v655.1c0 6.62-5.37 12-12 12h-61.22" stroke="#333" fill="none"/><path d="M1515.22 364.5h-1v-.5h1zM1441.5 1032.1h-.5v-1h.5z" stroke="#333" stroke-width=".05" fill="#333"/><use xlink:href="#k" transform="matrix(1,0,0,1,1456.393980566534,1005.9891566265062) translate(0 14.4)"/><use xlink:href="#i" transform="matrix(1,0,0,1,1493.769277108434,385.9467133963388) translate(0.004999999999999893 14.4)"/><use xlink:href="#ah" transform="matrix(1,0,0,1,1522.7192771084337,703.2602409638555) translate(0.005000000000002558 14.4)"/><use xlink:href="#ai" transform="matrix(1,0,0,1,1522.7192771084337,703.2602409638555) translate(47.955000000000005 14.4)"/><path d="M798.02 640.5H641.76c-6.63 0-12 5.37-12 12V668c0 6.63-5.37 12-12 12H461.5" stroke="#333" fill="none"/><path d="M798.52 641h-.5v-1h.5zM461.5 680.5h-.5v-1h.5z" stroke="#333" stroke-width=".05" fill="#333"/><use xlink:href="#k" transform="matrix(1,0,0,1,466.5904772479269,654.4000000000001) translate(0 14.4)"/><use xlink:href="#S" transform="matrix(1,0,0,1,776.4808996209907,614.8999999998179) translate(0.004999999999999893 14.4)"/><use xlink:href="#ah" transform="matrix(1,0,0,1,576.6507950044979,616.7446361127966) translate(0.005000000000002558 14.4)"/><use xlink:href="#ai" transform="matrix(1,0,0,1,576.6507950044979,616.7446361127966) translate(47.955000000000005 14.4)"/><path d="M998.5 849.17H942c-6.63 0-12-5.38-12-12v-103.5c0-6.64-5.37-12-12-12H461.5" stroke="#333" fill="none"/><path d="M999 849.67h-.5v-1h.5zM461.5 722.16h-.5v-1h.5z" stroke="#333" stroke-width=".05" fill="#333"/><g><use xlink:href="#h" transform="matrix(1,0,0,1,473.3507215638717,696.0566265060241) translate(0 14.4)"/></g><g><use xlink:href="#i" transform="matrix(1,0,0,1,962.2338282702087,823.5657894005798) translate(0.004999999999999893 14.4)"/></g><g><use xlink:href="#j" transform="matrix(1,0,0,1,872.700577969363,696.0566265060241) translate(0.004999999999999005 14.4)"/></g><path d="M1258.5 1042.22H872c-6.63 0-12-5.37-12-12V783.8c0-6.63-5.37-12-12-12H461.5" stroke="#333" fill="none"/><path d="M1259 1042.72h-.5v-1h.5zM461.5 772.3h-.5v-1h.5z" stroke="#333" stroke-width=".05" fill="#333"/><g><use xlink:href="#h" transform="matrix(1,0,0,1,484.86731528783565,746.1927710843374) translate(0 14.4)"/></g><g><use xlink:href="#S" transform="matrix(1,0,0,1,1205.1613586489216,1016.6240963855423) translate(0.004999999999999893 14.4)"/></g><g><use xlink:href="#al" transform="matrix(1,0,0,1,868,897.7277108433735) translate(0.005000000000002558 14.4)"/><use xlink:href="#am" transform="matrix(1,0,0,1,868,897.7277108433735) translate(48.90500000000001 14.4)"/></g><path d="M1051.34 791.17v-119.8c0-6.63-5.37-12-12-12h-78.32" stroke="#333" fill="none"/><path d="M1051.84 791.67h-1v-.52h1zM961.03 659.87h-.5v-1h.5z" stroke="#333" stroke-width=".05" fill="#333"/><g><use xlink:href="#h" transform="matrix(1,0,0,1,961.0640623678431,633.766265060241) translate(0 14.4)"/></g><g><use xlink:href="#S" transform="matrix(1,0,0,1,1059.3397590361446,769.6249265626939) translate(0.004999999999999893 14.4)"/></g><g><use xlink:href="#ah" transform="matrix(1,0,0,1,997.1719879518072,633.766265060241) translate(0.005000000000002558 14.4)"/><use xlink:href="#ai" transform="matrix(1,0,0,1,997.1719879518072,633.766265060241) translate(47.955000000000005 14.4)"/></g><path d="M396.57 915.6v-53.3c0-6.63-5.37-12-12-12H352c-6.63 0-12-5.37-12-12V785" stroke="#333" fill="none"/><path d="M397.07 916.1h-1v-.5h1zM340.5 785h-1v-.5h1z" stroke="#333" stroke-width=".05" fill="#333"/><g><use xlink:href="#k" transform="matrix(1,0,0,1,348,783.8926701561891) translate(0 14.4)"/></g><g><use xlink:href="#i" transform="matrix(1,0,0,1,404.57327639267146,894.9608705150096) translate(0.004999999999999893 14.4)"/></g><g><use xlink:href="#an" transform="matrix(1,0,0,1,385.64616819726814,827.8509765171896) translate(0.004999999999999005 14.4)"/></g><path d="M354 998.6v37.95c0 6.63-5.38 12-12 12H222c-6.63 0-12 5.37-12 12v37.95" stroke="#333" fill="none"/><path d="M354.5 998.6h-1v-.5h1zM210.5 1099h-1v-.5h1z" stroke="#333" stroke-width=".05" fill="#333"/><g><use xlink:href="#k" transform="matrix(1,0,0,1,192,1078.3861193847265) translate(0 14.4)"/></g><g><use xlink:href="#S" transform="matrix(1,0,0,1,335.99156626506027,998.2628722735122) translate(0.004999999999999893 14.4)"/></g><g><use xlink:href="#ao" transform="matrix(1,0,0,1,217.9958813708816,1022.9495631800337) translate(0.004999999999999005 14.4)"/></g><path d="M571.25 1098.5v-37.95c0-6.63-5.37-12-12-12h-118.8c-6.64 0-12-5.37-12-12V998.6" stroke="#333" fill="none"/><path d="M571.75 1099h-1v-.5h1zM428.94 998.6h-1v-.5h1z" stroke="#333" stroke-width=".05" fill="#333"/><g><use xlink:href="#k" transform="matrix(1,0,0,1,436.43614457831325,998.0792931921442) translate(0 14.4)"/></g><g><use xlink:href="#S" transform="matrix(1,0,0,1,579.2481927710843,1077.2905006126718) translate(0.004999999999999893 14.4)"/></g><g><use xlink:href="#ao" transform="matrix(1,0,0,1,517.8420704363473,1022.9495631800337) translate(0.004999999999999005 14.4)"/></g><defs><path fill="#333" d="M238-95c0 69-44 99-111 99C63 4 22-25 22-93v-155h51v151c-1 38 19 59 55 60 90 1 49-130 58-211h52v153" id="ap"/><path fill="#333" d="M137-138c1-29-70-34-71-4 15 46 118 7 119 86 1 83-164 76-172 9l43-7c4 19 20 25 44 25 33 8 57-30 24-41C81-84 22-81 20-136c-2-80 154-74 161-7" id="aq"/><path fill="#333" d="M185-48c-13 30-37 53-82 52C43 2 14-33 14-96s30-98 90-98c62 0 83 45 84 108H66c0 31 8 55 39 56 18 0 30-7 34-22zm-45-69c5-46-57-63-70-21-2 6-4 13-4 21h74" id="ar"/><path fill="#333" d="M135-150c-39-12-60 13-60 57V0H25l-1-190h47c2 13-1 29 3 40 6-28 27-53 61-41v41" id="as"/><g id="a"><use transform="matrix(0.05,0,0,0.05,0,0)" xlink:href="#ap"/><use transform="matrix(0.05,0,0,0.05,12.950000000000001,0)" xlink:href="#aq"/><use transform="matrix(0.05,0,0,0.05,22.950000000000003,0)" xlink:href="#ar"/><use transform="matrix(0.05,0,0,0.05,32.95,0)" xlink:href="#as"/></g><path fill="#333" d="M100-194c63 0 86 42 84 106H49c0 40 14 67 53 68 26 1 43-12 49-29l28 8c-11 28-37 45-77 45C44 4 14-33 15-96c1-61 26-98 85-98zm52 81c6-60-76-77-97-28-3 7-6 17-6 28h103" id="at"/><path fill="#333" d="M210-169c-67 3-38 105-44 169h-31v-121c0-29-5-50-35-48C34-165 62-65 56 0H25l-1-190h30c1 10-1 24 2 32 10-44 99-50 107 0 11-21 27-35 58-36 85-2 47 119 55 194h-31v-121c0-29-5-49-35-48" id="au"/><path fill="#333" d="M141-36C126-15 110 5 73 4 37 3 15-17 15-53c-1-64 63-63 125-63 3-35-9-54-41-54-24 1-41 7-42 31l-33-3c5-37 33-52 76-52 45 0 72 20 72 64v82c-1 20 7 32 28 27v20c-31 9-61-2-59-35zM48-53c0 20 12 33 32 33 41-3 63-29 60-74-43 2-92-5-92 41" id="av"/><path fill="#333" d="M24-231v-30h32v30H24zM24 0v-190h32V0H24" id="aw"/><path fill="#333" d="M24 0v-261h32V0H24" id="ax"/><g id="b"><use transform="matrix(0.05,0,0,0.05,0,0)" xlink:href="#at"/><use transform="matrix(0.05,0,0,0.05,10,0)" xlink:href="#au"/><use transform="matrix(0.05,0,0,0.05,24.950000000000003,0)" xlink:href="#av"/><use transform="matrix(0.05,0,0,0.05,34.95,0)" xlink:href="#aw"/><use transform="matrix(0.05,0,0,0.05,38.900000000000006,0)" xlink:href="#ax"/><path fill="#333" d="M-.9 1.25h44.65v1.32H-.9z"/></g><path fill="#333" d="M85-194c31 0 48 13 60 33l-1-100h32l1 261h-30c-2-10 0-23-3-31C134-8 116 4 85 4 32 4 16-35 15-94c0-66 23-100 70-100zm9 24c-40 0-46 34-46 75 0 40 6 74 45 74 42 0 51-32 51-76 0-42-9-74-50-73" id="ay"/><g id="c"><use transform="matrix(0.05,0,0,0.05,0,0)" xlink:href="#aw"/><use transform="matrix(0.05,0,0,0.05,3.95,0)" xlink:href="#ay"/></g><path fill="#333" d="M135-143c-3-34-86-38-87 0 15 53 115 12 119 90S17 21 10-45l28-5c4 36 97 45 98 0-10-56-113-15-118-90-4-57 82-63 122-42 12 7 21 19 24 35" id="az"/><path fill="#333" d="M-5 72V49h209v23H-5" id="aA"/><path fill="#333" d="M115-194c55 1 70 41 70 98S169 2 115 4C84 4 66-9 55-30l1 105H24l-1-265h31l2 30c10-21 28-34 59-34zm-8 174c40 0 45-34 45-75s-6-73-45-74c-42 0-51 32-51 76 0 43 10 73 51 73" id="aB"/><path fill="#333" d="M114-163C36-179 61-72 57 0H25l-1-190h30c1 12-1 29 2 39 6-27 23-49 58-41v29" id="aC"/><path fill="#333" d="M100-194c62-1 85 37 85 99 1 63-27 99-86 99S16-35 15-95c0-66 28-99 85-99zM99-20c44 1 53-31 53-75 0-43-8-75-51-75s-53 32-53 75 10 74 51 75" id="aD"/><path fill="#333" d="M108 0H70L1-190h34L89-25l56-165h34" id="aE"/><g id="d"><use transform="matrix(0.05,0,0,0.05,0,0)" xlink:href="#aw"/><use transform="matrix(0.05,0,0,0.05,3.95,0)" xlink:href="#az"/><use transform="matrix(0.05,0,0,0.05,12.949999999999998,0)" xlink:href="#aA"/><use transform="matrix(0.05,0,0,0.05,22.95,0)" xlink:href="#av"/><use transform="matrix(0.05,0,0,0.05,32.95,0)" xlink:href="#aB"/><use transform="matrix(0.05,0,0,0.05,42.95,0)" xlink:href="#aB"/><use transform="matrix(0.05,0,0,0.05,52.95,0)" xlink:href="#aC"/><use transform="matrix(0.05,0,0,0.05,58.900000000000006,0)" xlink:href="#aD"/><use transform="matrix(0.05,0,0,0.05,68.9,0)" xlink:href="#aE"/><use transform="matrix(0.05,0,0,0.05,77.9,0)" xlink:href="#at"/><use transform="matrix(0.05,0,0,0.05,87.9,0)" xlink:href="#ay"/></g><path fill="#333" d="M117-194c89-4 53 116 60 194h-32v-121c0-31-8-49-39-48C34-167 62-67 57 0H25l-1-190h30c1 10-1 24 2 32 11-22 29-35 61-36" id="aF"/><g id="e"><use transform="matrix(0.05,0,0,0.05,0,0)" xlink:href="#aF"/><use transform="matrix(0.05,0,0,0.05,10,0)" xlink:href="#av"/><use transform="matrix(0.05,0,0,0.05,20,0)" xlink:href="#av"/><use transform="matrix(0.05,0,0,0.05,30,0)" xlink:href="#au"/></g><path fill="#333" d="M206 0h-36l-40-164L89 0H53L-1-190h32L70-26l43-164h34l41 164 42-164h31" id="aG"/><path fill="#333" d="M96-169c-40 0-48 33-48 73s9 75 48 75c24 0 41-14 43-38l32 2c-6 37-31 61-74 61-59 0-76-41-82-99-10-93 101-131 147-64 4 7 5 14 7 22l-32 3c-4-21-16-35-41-35" id="aH"/><path fill="#333" d="M106-169C34-169 62-67 57 0H25v-261h32l-1 103c12-21 28-36 61-36 89 0 53 116 60 194h-32v-121c2-32-8-49-39-48" id="aI"/><path fill="#333" d="M59-47c-2 24 18 29 38 22v24C64 9 27 4 27-40v-127H5v-23h24l9-43h21v43h35v23H59v120" id="aJ"/><g id="f"><use transform="matrix(0.05,0,0,0.05,0,0)" xlink:href="#aG"/><use transform="matrix(0.05,0,0,0.05,12.950000000000001,0)" xlink:href="#av"/><use transform="matrix(0.05,0,0,0.05,22.950000000000003,0)" xlink:href="#aH"/><use transform="matrix(0.05,0,0,0.05,31.950000000000003,0)" xlink:href="#aI"/><use transform="matrix(0.05,0,0,0.05,41.95,0)" xlink:href="#aJ"/><use transform="matrix(0.05,0,0,0.05,46.95,0)" xlink:href="#aG"/><use transform="matrix(0.05,0,0,0.05,59.900000000000006,0)" xlink:href="#aD"/><use transform="matrix(0.05,0,0,0.05,69.9,0)" xlink:href="#aD"/><use transform="matrix(0.05,0,0,0.05,79.9,0)" xlink:href="#aC"/><use transform="matrix(0.05,0,0,0.05,85.85000000000001,0)" xlink:href="#ay"/></g><g id="g"><use transform="matrix(0.05,0,0,0.05,0,0)" xlink:href="#aC"/><use transform="matrix(0.05,0,0,0.05,5.95,0)" xlink:href="#aD"/><use transform="matrix(0.05,0,0,0.05,15.949999999999998,0)" xlink:href="#ax"/></g><path fill="#333" d="M190 0L58-211 59 0H30v-248h39L202-35l-2-213h31V0h-41" id="aK"/><use transform="matrix(0.05,0,0,0.05,0,0)" xlink:href="#aK" id="h"/><use transform="matrix(0.05,0,0,0.05,0,0)" xlink:href="#aK" id="i"/><path fill="#333" d="M197 0v-115H63V0H30v-248h33v105h134v-105h34V0h-34" id="aL"/><path fill="#333" d="M101-234c-31-9-42 10-38 44h38v23H63V0H32v-167H5v-23h27c-7-52 17-82 69-68v24" id="aM"/><g id="j"><use transform="matrix(0.05,0,0,0.05,0,0)" xlink:href="#aL"/><use transform="matrix(0.05,0,0,0.05,12.950000000000001,0)" xlink:href="#at"/><use transform="matrix(0.05,0,0,0.05,22.950000000000003,0)" xlink:href="#at"/><use transform="matrix(0.05,0,0,0.05,32.95,0)" xlink:href="#aM"/><use transform="matrix(0.05,0,0,0.05,37.95,0)" xlink:href="#aJ"/></g><path fill="#333" d="M27 0v-27h64v-190l-56 39v-29l58-41h29v221h61V0H27" id="aN"/><use transform="matrix(0.05,0,0,0.05,0,0)" xlink:href="#aN" id="k"/><path fill="#333" d="M240 0l2-218c-23 76-54 145-80 218h-23L58-218 59 0H30v-248h44l77 211c21-75 51-140 76-211h43V0h-30" id="aO"/><path fill="#333" d="M143 0L79-87 56-68V0H24v-261h32v163l83-92h37l-77 82L181 0h-38" id="aP"/><g id="l"><use transform="matrix(0.05,0,0,0.05,0,0)" xlink:href="#aO"/><use transform="matrix(0.05,0,0,0.05,14.950000000000001,0)" xlink:href="#av"/><use transform="matrix(0.05,0,0,0.05,24.950000000000003,0)" xlink:href="#av"/><use transform="matrix(0.05,0,0,0.05,34.95,0)" xlink:href="#aP"/><use transform="matrix(0.05,0,0,0.05,43.95,0)" xlink:href="#aJ"/></g><path fill="#a9afb8" d="M24-248c120-7 223 5 221 122C244-46 201 0 124 0H24v-248zM76-40c74 7 117-18 117-86 0-67-45-88-117-82v168" id="aQ"/><path fill="#a9afb8" d="M110-194c64 0 96 36 96 99 0 64-35 99-97 99-61 0-95-36-95-99 0-62 34-99 96-99zm-1 164c35 0 45-28 45-65 0-40-10-65-43-65-34 0-45 26-45 65 0 36 10 65 43 65" id="aR"/><path fill="#a9afb8" d="M220-157c-53 9-28 100-34 157h-49v-107c1-27-5-49-29-50C55-147 81-57 75 0H25l-1-190h47c2 12-1 28 3 38 10-53 101-56 108 0 13-22 24-43 59-42 82 1 51 116 57 194h-49v-107c-1-25-5-48-29-50" id="aS"/><path fill="#a9afb8" d="M133-34C117-15 103 5 69 4 32 3 11-16 11-54c-1-60 55-63 116-61 1-26-3-47-28-47-18 1-26 9-28 27l-52-2c7-38 36-58 82-57s74 22 75 68l1 82c-1 14 12 18 25 15v27c-30 8-71 5-69-32zm-48 3c29 0 43-24 42-57-32 0-66-3-65 30 0 17 8 27 23 27" id="aT"/><path fill="#a9afb8" d="M25-224v-37h50v37H25zM25 0v-190h50V0H25" id="aU"/><path fill="#a9afb8" d="M135-194c87-1 58 113 63 194h-50c-7-57 23-157-34-157-59 0-34 97-39 157H25l-1-190h47c2 12-1 28 3 38 12-26 28-41 61-42" id="aV"/><g id="m"><use transform="matrix(0.0728395061728395,0,0,0.0728395061728395,0,0)" xlink:href="#aQ"/><use transform="matrix(0.0728395061728395,0,0,0.0728395061728395,18.86543209876543,0)" xlink:href="#aR"/><use transform="matrix(0.0728395061728395,0,0,0.0728395061728395,34.81728395061728,0)" xlink:href="#aS"/><use transform="matrix(0.0728395061728395,0,0,0.0728395061728395,58.12592592592593,0)" xlink:href="#aT"/><use transform="matrix(0.0728395061728395,0,0,0.0728395061728395,72.69382716049383,0)" xlink:href="#aU"/><use transform="matrix(0.0728395061728395,0,0,0.0728395061728395,79.97777777777777,0)" xlink:href="#aV"/></g><path fill="#a9afb8" d="M88-194c31-1 46 15 58 34l-1-101h50l1 261h-48c-2-10 0-23-3-31C134-8 116 4 84 4 32 4 16-41 15-95c0-56 19-97 73-99zm17 164c33 0 40-30 41-66 1-37-9-64-41-64s-38 30-39 65c0 43 13 65 39 65" id="aW"/><path fill="#a9afb8" d="M185-48c-13 30-37 53-82 52C43 2 14-33 14-96s30-98 90-98c62 0 83 45 84 108H66c0 31 8 55 39 56 18 0 30-7 34-22zm-45-69c5-46-57-63-70-21-2 6-4 13-4 21h74" id="aX"/><path fill="#a9afb8" d="M25 0v-261h50V0H25" id="aY"/><g id="n"><use transform="matrix(0.0728395061728395,0,0,0.0728395061728395,0,0)" xlink:href="#aS"/><use transform="matrix(0.0728395061728395,0,0,0.0728395061728395,23.308641975308642,0)" xlink:href="#aR"/><use transform="matrix(0.0728395061728395,0,0,0.0728395061728395,39.260493827160495,0)" xlink:href="#aW"/><use transform="matrix(0.0728395061728395,0,0,0.0728395061728395,55.212345679012344,0)" xlink:href="#aX"/><use transform="matrix(0.0728395061728395,0,0,0.0728395061728395,69.78024691358024,0)" xlink:href="#aY"/></g><path d="M24-248c93 1 206-16 204 79-1 75-69 88-152 82V0H24v-248zm52 121c47 0 100 7 100-41 0-47-54-39-100-39v80" id="aZ"/><path d="M135-150c-39-12-60 13-60 57V0H25l-1-190h47c2 13-1 29 3 40 6-28 27-53 61-41v41" id="ba"/><path d="M110-194c64 0 96 36 96 99 0 64-35 99-97 99-61 0-95-36-95-99 0-62 34-99 96-99zm-1 164c35 0 45-28 45-65 0-40-10-65-43-65-34 0-45 26-45 65 0 36 10 65 43 65" id="bb"/><path d="M25-224v-37h50v37H25zM75 22c2 45-34 59-81 51V38c22 5 31-5 31-27v-201h50V22" id="bc"/><path d="M185-48c-13 30-37 53-82 52C43 2 14-33 14-96s30-98 90-98c62 0 83 45 84 108H66c0 31 8 55 39 56 18 0 30-7 34-22zm-45-69c5-46-57-63-70-21-2 6-4 13-4 21h74" id="bd"/><path d="M190-63c-7 42-38 67-86 67-59 0-84-38-90-98-12-110 154-137 174-36l-49 2c-2-19-15-32-35-32-30 0-35 28-38 64-6 74 65 87 74 30" id="be"/><path d="M115-3C79 11 28 4 28-45v-112H4v-33h27l15-45h31v45h36v33H77v99c-1 23 16 31 38 25v30" id="bf"/><g id="o"><use transform="matrix(0.05,0,0,0.05,0,0)" xlink:href="#aZ"/><use transform="matrix(0.05,0,0,0.05,12,0)" xlink:href="#ba"/><use transform="matrix(0.05,0,0,0.05,19,0)" xlink:href="#bb"/><use transform="matrix(0.05,0,0,0.05,29.950000000000003,0)" xlink:href="#bc"/><use transform="matrix(0.05,0,0,0.05,34.95,0)" xlink:href="#bd"/><use transform="matrix(0.05,0,0,0.05,44.95,0)" xlink:href="#be"/><use transform="matrix(0.05,0,0,0.05,54.95,0)" xlink:href="#bf"/></g><g id="p"><use transform="matrix(0.05,0,0,0.05,0,0)" xlink:href="#aF"/><use transform="matrix(0.05,0,0,0.05,10,0)" xlink:href="#av"/><use transform="matrix(0.05,0,0,0.05,20,0)" xlink:href="#av"/><use transform="matrix(0.05,0,0,0.05,30,0)" xlink:href="#au"/><path fill="#333" d="M-.9 1.25h46.75v1.32H-.9z"/></g><path fill="#333" d="M177-190C167-65 218 103 67 71c-23-6-38-20-44-43l32-5c15 47 100 32 89-28v-30C133-14 115 1 83 1 29 1 15-40 15-95c0-56 16-97 71-98 29-1 48 16 59 35 1-10 0-23 2-32h30zM94-22c36 0 50-32 50-73 0-42-14-75-50-75-39 0-46 34-46 75s6 73 46 73" id="bg"/><g id="q"><use transform="matrix(0.05,0,0,0.05,0,0)" xlink:href="#bg"/><use transform="matrix(0.05,0,0,0.05,10,0)" xlink:href="#aD"/><use transform="matrix(0.05,0,0,0.05,20,0)" xlink:href="#av"/><use transform="matrix(0.05,0,0,0.05,30,0)" xlink:href="#ax"/><use transform="matrix(0.05,0,0,0.05,33.95,0)" xlink:href="#az"/></g><path fill="#333" d="M115-194c53 0 69 39 70 98 0 66-23 100-70 100C84 3 66-7 56-30L54 0H23l1-261h32v101c10-23 28-34 59-34zm-8 174c40 0 45-34 45-75 0-40-5-75-45-74-42 0-51 32-51 76 0 43 10 73 51 73" id="bh"/><path fill="#333" d="M24-231v-30h32v30H24zM-9 49c24 4 33-6 33-30v-209h32V24c2 40-23 58-65 49V49" id="bi"/><g id="r"><use transform="matrix(0.05,0,0,0.05,0,0)" xlink:href="#bh"/><use transform="matrix(0.05,0,0,0.05,10,0)" xlink:href="#at"/><use transform="matrix(0.05,0,0,0.05,20,0)" xlink:href="#az"/><use transform="matrix(0.05,0,0,0.05,29,0)" xlink:href="#aH"/><use transform="matrix(0.05,0,0,0.05,38,0)" xlink:href="#aI"/><use transform="matrix(0.05,0,0,0.05,48,0)" xlink:href="#aC"/><use transform="matrix(0.05,0,0,0.05,53.95,0)" xlink:href="#aw"/><use transform="matrix(0.05,0,0,0.05,57.900000000000006,0)" xlink:href="#bi"/><use transform="matrix(0.05,0,0,0.05,61.85,0)" xlink:href="#aE"/><use transform="matrix(0.05,0,0,0.05,70.85000000000001,0)" xlink:href="#aw"/><use transform="matrix(0.05,0,0,0.05,74.80000000000001,0)" xlink:href="#aF"/><use transform="matrix(0.05,0,0,0.05,84.80000000000001,0)" xlink:href="#bg"/></g><g id="s"><use transform="matrix(0.05,0,0,0.05,0,0)" xlink:href="#av"/><use transform="matrix(0.05,0,0,0.05,10,0)" xlink:href="#av"/><use transform="matrix(0.05,0,0,0.05,20,0)" xlink:href="#aF"/><use transform="matrix(0.05,0,0,0.05,30,0)" xlink:href="#aJ"/><use transform="matrix(0.05,0,0,0.05,35,0)" xlink:href="#av"/><use transform="matrix(0.05,0,0,0.05,45,0)" xlink:href="#ax"/></g><path fill="#333" d="M84 4C-5 8 30-112 23-190h32v120c0 31 7 50 39 49 72-2 45-101 50-169h31l1 190h-30c-1-10 1-25-2-33-11 22-28 36-60 37" id="bj"/><g id="t"><use transform="matrix(0.05,0,0,0.05,0,0)" xlink:href="#az"/><use transform="matrix(0.05,0,0,0.05,9,0)" xlink:href="#aJ"/><use transform="matrix(0.05,0,0,0.05,14,0)" xlink:href="#bj"/><use transform="matrix(0.05,0,0,0.05,24,0)" xlink:href="#ay"/><use transform="matrix(0.05,0,0,0.05,34,0)" xlink:href="#at"/><use transform="matrix(0.05,0,0,0.05,44,0)" xlink:href="#aF"/><use transform="matrix(0.05,0,0,0.05,54,0)" xlink:href="#aJ"/><use transform="matrix(0.05,0,0,0.05,59,0)" xlink:href="#at"/><use transform="matrix(0.05,0,0,0.05,69,0)" xlink:href="#aF"/></g><g id="u"><use transform="matrix(0.05,0,0,0.05,0,0)" xlink:href="#aF"/><use transform="matrix(0.05,0,0,0.05,10,0)" xlink:href="#av"/><use transform="matrix(0.05,0,0,0.05,20,0)" xlink:href="#av"/><use transform="matrix(0.05,0,0,0.05,30,0)" xlink:href="#au"/></g><g id="v"><use transform="matrix(0.05,0,0,0.05,0,0)" xlink:href="#aB"/><use transform="matrix(0.05,0,0,0.05,10,0)" xlink:href="#av"/><use transform="matrix(0.05,0,0,0.05,20,0)" xlink:href="#aC"/><use transform="matrix(0.05,0,0,0.05,25.950000000000003,0)" xlink:href="#aJ"/><use transform="matrix(0.05,0,0,0.05,30.950000000000003,0)" xlink:href="#aF"/><use transform="matrix(0.05,0,0,0.05,40.95,0)" xlink:href="#at"/><use transform="matrix(0.05,0,0,0.05,50.95,0)" xlink:href="#aC"/></g><g id="w"><use transform="matrix(0.05,0,0,0.05,0,0)" xlink:href="#aD"/><use transform="matrix(0.05,0,0,0.05,10,0)" xlink:href="#aE"/><use transform="matrix(0.05,0,0,0.05,19,0)" xlink:href="#at"/><use transform="matrix(0.05,0,0,0.05,29,0)" xlink:href="#aC"/></g><g id="x"><use transform="matrix(0.05,0,0,0.05,0,0)" xlink:href="#aB"/><use transform="matrix(0.05,0,0,0.05,10,0)" xlink:href="#av"/><use transform="matrix(0.05,0,0,0.05,20,0)" xlink:href="#aC"/><use transform="matrix(0.05,0,0,0.05,25.950000000000003,0)" xlink:href="#aJ"/><use transform="matrix(0.05,0,0,0.05,30.950000000000003,0)" xlink:href="#aF"/><use transform="matrix(0.05,0,0,0.05,40.95,0)" xlink:href="#at"/><use transform="matrix(0.05,0,0,0.05,50.95,0)" xlink:href="#aC"/></g><path d="M169-182c-1-43-94-46-97-3 18 66 151 10 154 114 3 95-165 93-204 36-6-8-10-19-12-30l50-8c3 46 112 56 116 5-17-69-150-10-154-114-4-87 153-88 188-35 5 8 8 18 10 28" id="bk"/><path d="M85 4C-2 5 27-109 22-190h50c7 57-23 150 33 157 60-5 35-97 40-157h50l1 190h-47c-2-12 1-28-3-38-12 25-28 42-61 42" id="bl"/><path d="M195-6C206 82 75 100 31 46c-4-6-6-13-8-21l49-6c3 16 16 24 34 25 40 0 42-37 40-79-11 22-30 35-61 35-53 0-70-43-70-97 0-56 18-96 73-97 30 0 46 14 59 34l2-30h47zm-90-29c32 0 41-27 41-63 0-35-9-62-40-62-32 0-39 29-40 63 0 36 9 62 39 62" id="bm"/><path d="M137-138c1-29-70-34-71-4 15 46 118 7 119 86 1 83-164 76-172 9l43-7c4 19 20 25 44 25 33 8 57-30 24-41C81-84 22-81 20-136c-2-80 154-74 161-7" id="bn"/><path d="M25-224v-37h50v37H25zM25 0v-190h50V0H25" id="bo"/><g id="y"><use transform="matrix(0.05,0,0,0.05,0,0)" xlink:href="#bk"/><use transform="matrix(0.05,0,0,0.05,12,0)" xlink:href="#bl"/><use transform="matrix(0.05,0,0,0.05,22.950000000000003,0)" xlink:href="#bm"/><use transform="matrix(0.05,0,0,0.05,33.900000000000006,0)" xlink:href="#bm"/><use transform="matrix(0.05,0,0,0.05,44.85000000000001,0)" xlink:href="#bd"/><use transform="matrix(0.05,0,0,0.05,54.85,0)" xlink:href="#bn"/><use transform="matrix(0.05,0,0,0.05,64.85000000000001,0)" xlink:href="#bf"/><use transform="matrix(0.05,0,0,0.05,70.80000000000001,0)" xlink:href="#bo"/><use transform="matrix(0.05,0,0,0.05,75.80000000000001,0)" xlink:href="#bd"/></g><g id="z"><use transform="matrix(0.05,0,0,0.05,0,0)" xlink:href="#aw"/><use transform="matrix(0.05,0,0,0.05,3.95,0)" xlink:href="#ay"/><path fill="#333" d="M-.9 1.25h15.75v1.32H-.9z"/></g><g id="A"><use transform="matrix(0.05,0,0,0.05,0,0)" xlink:href="#at"/><use transform="matrix(0.05,0,0,0.05,10,0)" xlink:href="#au"/><use transform="matrix(0.05,0,0,0.05,24.950000000000003,0)" xlink:href="#av"/><use transform="matrix(0.05,0,0,0.05,34.95,0)" xlink:href="#aw"/><use transform="matrix(0.05,0,0,0.05,38.900000000000006,0)" xlink:href="#ax"/></g><g id="B"><use transform="matrix(0.05,0,0,0.05,0,0)" xlink:href="#bg"/><use transform="matrix(0.05,0,0,0.05,10,0)" xlink:href="#at"/><use transform="matrix(0.05,0,0,0.05,20,0)" xlink:href="#az"/><use transform="matrix(0.05,0,0,0.05,29,0)" xlink:href="#aJ"/><use transform="matrix(0.05,0,0,0.05,34,0)" xlink:href="#bj"/><use transform="matrix(0.05,0,0,0.05,44,0)" xlink:href="#bj"/><use transform="matrix(0.05,0,0,0.05,54,0)" xlink:href="#aC"/><use transform="matrix(0.05,0,0,0.05,59.95,0)" xlink:href="#ay"/></g><g id="C"><use transform="matrix(0.05,0,0,0.05,0,0)" xlink:href="#bh"/><use transform="matrix(0.05,0,0,0.05,10,0)" xlink:href="#at"/><use transform="matrix(0.05,0,0,0.05,20,0)" xlink:href="#az"/><use transform="matrix(0.05,0,0,0.05,29,0)" xlink:href="#ax"/><use transform="matrix(0.05,0,0,0.05,32.95,0)" xlink:href="#aw"/><use transform="matrix(0.05,0,0,0.05,36.900000000000006,0)" xlink:href="#az"/><use transform="matrix(0.05,0,0,0.05,45.900000000000006,0)" xlink:href="#aw"/><use transform="matrix(0.05,0,0,0.05,49.85000000000001,0)" xlink:href="#aF"/><use transform="matrix(0.05,0,0,0.05,59.85,0)" xlink:href="#bg"/></g><g id="D"><use transform="matrix(0.05,0,0,0.05,0,0)" xlink:href="#aC"/><use transform="matrix(0.05,0,0,0.05,5.95,0)" xlink:href="#at"/><use transform="matrix(0.05,0,0,0.05,15.949999999999998,0)" xlink:href="#ay"/><use transform="matrix(0.05,0,0,0.05,25.950000000000003,0)" xlink:href="#at"/><use transform="matrix(0.05,0,0,0.05,35.95,0)" xlink:href="#aF"/></g><g id="E"><use transform="matrix(0.05,0,0,0.05,0,0)" xlink:href="#ay"/><use transform="matrix(0.05,0,0,0.05,10,0)" xlink:href="#at"/><use transform="matrix(0.05,0,0,0.05,20,0)" xlink:href="#aM"/><use transform="matrix(0.05,0,0,0.05,25,0)" xlink:href="#aw"/><use transform="matrix(0.05,0,0,0.05,28.950000000000003,0)" xlink:href="#aF"/><use transform="matrix(0.05,0,0,0.05,38.95,0)" xlink:href="#aw"/><use transform="matrix(0.05,0,0,0.05,42.900000000000006,0)" xlink:href="#aJ"/><use transform="matrix(0.05,0,0,0.05,47.900000000000006,0)" xlink:href="#aw"/><use transform="matrix(0.05,0,0,0.05,51.85,0)" xlink:href="#at"/><use transform="matrix(0.05,0,0,0.05,61.85,0)" xlink:href="#aM"/></g><path d="M88-194c31-1 46 15 58 34l-1-101h50l1 261h-48c-2-10 0-23-3-31C134-8 116 4 84 4 32 4 16-41 15-95c0-56 19-97 73-99zm17 164c33 0 40-30 41-66 1-37-9-64-41-64s-38 30-39 65c0 43 13 65 39 65" id="bp"/><path d="M135-194c87-1 58 113 63 194h-50c-7-57 23-157-34-157-59 0-34 97-39 157H25l-1-190h47c2 12-1 28 3 38 12-26 28-41 61-42" id="bq"/><g id="F"><use transform="matrix(0.05,0,0,0.05,0,0)" xlink:href="#bk"/><use transform="matrix(0.05,0,0,0.05,12,0)" xlink:href="#bf"/><use transform="matrix(0.05,0,0,0.05,17.95,0)" xlink:href="#bl"/><use transform="matrix(0.05,0,0,0.05,28.899999999999995,0)" xlink:href="#bp"/><use transform="matrix(0.05,0,0,0.05,39.85,0)" xlink:href="#bd"/><use transform="matrix(0.05,0,0,0.05,49.85,0)" xlink:href="#bq"/><use transform="matrix(0.05,0,0,0.05,60.800000000000004,0)" xlink:href="#bf"/></g><g id="G"><use transform="matrix(0.05,0,0,0.05,0,0)" xlink:href="#ba"/><use transform="matrix(0.05,0,0,0.05,7,0)" xlink:href="#bd"/><use transform="matrix(0.05,0,0,0.05,17,0)" xlink:href="#bm"/></g><g id="H"><use transform="matrix(0.05,0,0,0.05,0,0)" xlink:href="#at"/><use transform="matrix(0.05,0,0,0.05,10,0)" xlink:href="#au"/><use transform="matrix(0.05,0,0,0.05,24.950000000000003,0)" xlink:href="#av"/><use transform="matrix(0.05,0,0,0.05,34.95,0)" xlink:href="#aw"/><use transform="matrix(0.05,0,0,0.05,38.900000000000006,0)" xlink:href="#ax"/><path fill="#333" d="M-.9 1.25h44.65v1.32H-.9z"/></g><g id="I"><use transform="matrix(0.05,0,0,0.05,0,0)" xlink:href="#bg"/><use transform="matrix(0.05,0,0,0.05,10,0)" xlink:href="#az"/><use transform="matrix(0.05,0,0,0.05,19,0)" xlink:href="#au"/></g><g id="J"><use transform="matrix(0.05,0,0,0.05,0,0)" xlink:href="#aF"/><use transform="matrix(0.05,0,0,0.05,10,0)" xlink:href="#aC"/></g><g id="K"><use transform="matrix(0.05,0,0,0.05,0,0)" xlink:href="#av"/><use transform="matrix(0.05,0,0,0.05,10,0)" xlink:href="#ax"/><use transform="matrix(0.05,0,0,0.05,13.949999999999998,0)" xlink:href="#bj"/><use transform="matrix(0.05,0,0,0.05,23.95,0)" xlink:href="#au"/><use transform="matrix(0.05,0,0,0.05,38.9,0)" xlink:href="#aF"/><use transform="matrix(0.05,0,0,0.05,48.9,0)" xlink:href="#aw"/></g><g id="L"><use transform="matrix(0.05,0,0,0.05,0,0)" xlink:href="#bh"/><use transform="matrix(0.05,0,0,0.05,10,0)" xlink:href="#at"/><use transform="matrix(0.05,0,0,0.05,20,0)" xlink:href="#ax"/><use transform="matrix(0.05,0,0,0.05,23.95,0)" xlink:href="#bg"/></g><g id="M"><use transform="matrix(0.05,0,0,0.05,0,0)" xlink:href="#aF"/><use transform="matrix(0.05,0,0,0.05,10,0)" xlink:href="#aw"/><use transform="matrix(0.05,0,0,0.05,13.949999999999998,0)" xlink:href="#aH"/><use transform="matrix(0.05,0,0,0.05,22.95,0)" xlink:href="#aP"/><use transform="matrix(0.05,0,0,0.05,31.950000000000003,0)" xlink:href="#aF"/><use transform="matrix(0.05,0,0,0.05,41.95,0)" xlink:href="#av"/><use transform="matrix(0.05,0,0,0.05,51.95,0)" xlink:href="#au"/><use transform="matrix(0.05,0,0,0.05,66.9,0)" xlink:href="#at"/></g><g id="N"><use transform="matrix(0.05,0,0,0.05,0,0)" xlink:href="#aH"/><use transform="matrix(0.05,0,0,0.05,9,0)" xlink:href="#aE"/></g><g id="O"><use transform="matrix(0.05,0,0,0.05,0,0)" xlink:href="#bh"/><use transform="matrix(0.05,0,0,0.05,10,0)" xlink:href="#at"/><use transform="matrix(0.05,0,0,0.05,20,0)" xlink:href="#az"/><use transform="matrix(0.05,0,0,0.05,29,0)" xlink:href="#ax"/><use transform="matrix(0.05,0,0,0.05,32.95,0)" xlink:href="#aw"/><use transform="matrix(0.05,0,0,0.05,36.900000000000006,0)" xlink:href="#az"/><use transform="matrix(0.05,0,0,0.05,45.900000000000006,0)" xlink:href="#az"/><use transform="matrix(0.05,0,0,0.05,54.900000000000006,0)" xlink:href="#aw"/><use transform="matrix(0.05,0,0,0.05,58.85,0)" xlink:href="#aF"/><use transform="matrix(0.05,0,0,0.05,68.85000000000001,0)" xlink:href="#bg"/></g><path d="M240-174c0 40-23 61-54 70L253 0h-59l-57-94H76V0H24v-248c93 4 217-23 216 74zM76-134c48-2 112 12 112-38 0-48-66-32-112-35v73" id="br"/><path d="M25 0v-261h50V0H25" id="bs"/><path d="M4 7l51-268h42L46 7H4" id="bt"/><path d="M147 0L96-86 75-71V0H25v-261h50v150l67-79h53l-66 74L201 0h-54" id="bu"/><g id="P"><use transform="matrix(0.05,0,0,0.05,0,0)" xlink:href="#br"/><use transform="matrix(0.05,0,0,0.05,12.950000000000001,0)" xlink:href="#bb"/><use transform="matrix(0.05,0,0,0.05,23.900000000000002,0)" xlink:href="#bs"/><use transform="matrix(0.05,0,0,0.05,28.900000000000002,0)" xlink:href="#bt"/><use transform="matrix(0.05,0,0,0.05,33.900000000000006,0)" xlink:href="#bn"/><use transform="matrix(0.05,0,0,0.05,43.900000000000006,0)" xlink:href="#bu"/><use transform="matrix(0.05,0,0,0.05,53.900000000000006,0)" xlink:href="#bo"/><use transform="matrix(0.05,0,0,0.05,58.900000000000006,0)" xlink:href="#bs"/><use transform="matrix(0.05,0,0,0.05,63.900000000000006,0)" xlink:href="#bs"/></g><g id="Q"><use transform="matrix(0.05,0,0,0.05,0,0)" xlink:href="#aF"/><use transform="matrix(0.05,0,0,0.05,10,0)" xlink:href="#av"/><use transform="matrix(0.05,0,0,0.05,20,0)" xlink:href="#av"/><use transform="matrix(0.05,0,0,0.05,30,0)" xlink:href="#au"/></g><path fill="#333" d="M30-248c118-7 216 8 213 122C240-48 200 0 122 0H30v-248zM63-27c89 8 146-16 146-99s-60-101-146-95v194" id="bv"/><g id="R"><use transform="matrix(0.05,0,0,0.05,0,0)" xlink:href="#bv"/><use transform="matrix(0.05,0,0,0.05,12.950000000000001,0)" xlink:href="#at"/><use transform="matrix(0.05,0,0,0.05,22.950000000000003,0)" xlink:href="#at"/><use transform="matrix(0.05,0,0,0.05,32.95,0)" xlink:href="#ax"/><use transform="matrix(0.05,0,0,0.05,36.900000000000006,0)" xlink:href="#aF"/><use transform="matrix(0.05,0,0,0.05,46.900000000000006,0)" xlink:href="#av"/><use transform="matrix(0.05,0,0,0.05,56.900000000000006,0)" xlink:href="#au"/><use transform="matrix(0.05,0,0,0.05,71.85000000000001,0)" xlink:href="#at"/></g><use transform="matrix(0.05,0,0,0.05,0,0)" xlink:href="#aN" id="S"/><path d="M24 0v-248h195v40H76v63h132v40H76v65h150V0H24" id="bw"/><g id="T"><use transform="matrix(0.05,0,0,0.05,0,0)" xlink:href="#bw"/><use transform="matrix(0.05,0,0,0.05,12,0)" xlink:href="#bp"/><use transform="matrix(0.05,0,0,0.05,22.950000000000003,0)" xlink:href="#bo"/><use transform="matrix(0.05,0,0,0.05,27.950000000000003,0)" xlink:href="#bf"/><use transform="matrix(0.05,0,0,0.05,33.900000000000006,0)" xlink:href="#bo"/><use transform="matrix(0.05,0,0,0.05,38.900000000000006,0)" xlink:href="#bd"/></g><g id="U"><use transform="matrix(0.05,0,0,0.05,0,0)" xlink:href="#aM"/><use transform="matrix(0.05,0,0,0.05,5,0)" xlink:href="#aD"/><use transform="matrix(0.05,0,0,0.05,15,0)" xlink:href="#aC"/><use transform="matrix(0.05,0,0,0.05,20.95,0)" xlink:href="#au"/><path fill="#333" d="M-.9 1.25h42.7v1.32H-.9z"/></g><g id="V"><use transform="matrix(0.05,0,0,0.05,0,0)" xlink:href="#aw"/><use transform="matrix(0.05,0,0,0.05,3.95,0)" xlink:href="#ay"/><path fill="#333" d="M-.9 1.25h15.75v1.32H-.9z"/></g><g id="W"><use transform="matrix(0.05,0,0,0.05,0,0)" xlink:href="#aF"/><use transform="matrix(0.05,0,0,0.05,10,0)" xlink:href="#av"/><use transform="matrix(0.05,0,0,0.05,20,0)" xlink:href="#av"/><use transform="matrix(0.05,0,0,0.05,30,0)" xlink:href="#au"/></g><g id="X"><use transform="matrix(0.05,0,0,0.05,0,0)" xlink:href="#bi"/><use transform="matrix(0.05,0,0,0.05,3.95,0)" xlink:href="#av"/><use transform="matrix(0.05,0,0,0.05,13.949999999999998,0)" xlink:href="#av"/><use transform="matrix(0.05,0,0,0.05,23.95,0)" xlink:href="#aC"/></g><path fill="#333" d="M33 0v-248h34V0H33" id="bx"/><g id="Y"><use transform="matrix(0.05,0,0,0.05,0,0)" xlink:href="#bx"/><use transform="matrix(0.05,0,0,0.05,5,0)" xlink:href="#aF"/><use transform="matrix(0.05,0,0,0.05,15,0)" xlink:href="#aE"/><use transform="matrix(0.05,0,0,0.05,24,0)" xlink:href="#bj"/><use transform="matrix(0.05,0,0,0.05,34,0)" xlink:href="#ax"/><use transform="matrix(0.05,0,0,0.05,37.95,0)" xlink:href="#ax"/><use transform="matrix(0.05,0,0,0.05,41.900000000000006,0)" xlink:href="#aw"/><use transform="matrix(0.05,0,0,0.05,45.85000000000001,0)" xlink:href="#aF"/><use transform="matrix(0.05,0,0,0.05,55.85,0)" xlink:href="#bg"/></g><path d="M199 0l-22-63H83L61 0H9l90-248h61L250 0h-51zm-33-102l-36-108c-10 38-24 72-36 108h72" id="by"/><path d="M231 0h-52l-39-155L100 0H48L-1-190h46L77-45c9-52 24-97 36-145h53l37 145 32-145h46" id="bz"/><g id="Z"><use transform="matrix(0.05,0,0,0.05,0,0)" xlink:href="#by"/><use transform="matrix(0.05,0,0,0.05,12.950000000000001,0)" xlink:href="#bq"/><use transform="matrix(0.05,0,0,0.05,23.900000000000002,0)" xlink:href="#bf"/><use transform="matrix(0.05,0,0,0.05,29.85,0)" xlink:href="#bz"/><use transform="matrix(0.05,0,0,0.05,43.85,0)" xlink:href="#bb"/><use transform="matrix(0.05,0,0,0.05,54.800000000000004,0)" xlink:href="#bb"/><use transform="matrix(0.05,0,0,0.05,65.75,0)" xlink:href="#ba"/><use transform="matrix(0.05,0,0,0.05,72.75,0)" xlink:href="#bp"/></g><g id="aa"><use transform="matrix(0.05,0,0,0.05,0,0)" xlink:href="#av"/><use transform="matrix(0.05,0,0,0.05,10,0)" xlink:href="#aF"/><use transform="matrix(0.05,0,0,0.05,20,0)" xlink:href="#aJ"/><use transform="matrix(0.05,0,0,0.05,25,0)" xlink:href="#aG"/><use transform="matrix(0.05,0,0,0.05,37.95,0)" xlink:href="#aD"/><use transform="matrix(0.05,0,0,0.05,47.95,0)" xlink:href="#aD"/><use transform="matrix(0.05,0,0,0.05,57.95,0)" xlink:href="#aC"/><use transform="matrix(0.05,0,0,0.05,63.900000000000006,0)" xlink:href="#ay"/></g><path d="M147 0H94L2-248h55l64 206c17-72 42-137 63-206h54" id="bA"/><path d="M133-34C117-15 103 5 69 4 32 3 11-16 11-54c-1-60 55-63 116-61 1-26-3-47-28-47-18 1-26 9-28 27l-52-2c7-38 36-58 82-57s74 22 75 68l1 82c-1 14 12 18 25 15v27c-30 8-71 5-69-32zm-48 3c29 0 43-24 42-57-32 0-66-3-65 30 0 17 8 27 23 27" id="bB"/><g id="ab"><use transform="matrix(0.05,0,0,0.05,0,0)" xlink:href="#bA"/><use transform="matrix(0.05,0,0,0.05,11,0)" xlink:href="#ba"/><use transform="matrix(0.05,0,0,0.05,18,0)" xlink:href="#bB"/><use transform="matrix(0.05,0,0,0.05,28,0)" xlink:href="#bB"/><use transform="matrix(0.05,0,0,0.05,38,0)" xlink:href="#bm"/></g><g id="ac"><use transform="matrix(0.05,0,0,0.05,0,0)" xlink:href="#aE"/><use transform="matrix(0.05,0,0,0.05,9,0)" xlink:href="#aC"/><use transform="matrix(0.05,0,0,0.05,14.949999999999998,0)" xlink:href="#av"/><use transform="matrix(0.05,0,0,0.05,24.95,0)" xlink:href="#av"/><use transform="matrix(0.05,0,0,0.05,34.95,0)" xlink:href="#bg"/><use transform="matrix(0.05,0,0,0.05,44.95,0)" xlink:href="#az"/><use transform="matrix(0.05,0,0,0.05,53.95,0)" xlink:href="#aJ"/><use transform="matrix(0.05,0,0,0.05,58.95,0)" xlink:href="#at"/><use transform="matrix(0.05,0,0,0.05,68.95,0)" xlink:href="#ax"/><use transform="matrix(0.05,0,0,0.05,72.9,0)" xlink:href="#ax"/><use transform="matrix(0.05,0,0,0.05,76.85000000000001,0)" xlink:href="#aw"/><use transform="matrix(0.05,0,0,0.05,80.80000000000001,0)" xlink:href="#aF"/><use transform="matrix(0.05,0,0,0.05,90.80000000000001,0)" xlink:href="#bg"/></g><path fill="#333" d="M143 4C61 4 22-44 18-125c-5-107 100-154 193-111 17 8 29 25 37 43l-32 9c-13-25-37-40-76-40-61 0-88 39-88 99 0 61 29 100 91 101 35 0 62-11 79-27v-45h-74v-28h105v86C228-13 192 4 143 4" id="bC"/><g id="ad"><use transform="matrix(0.05,0,0,0.05,0,0)" xlink:href="#bC"/><use transform="matrix(0.05,0,0,0.05,14,0)" xlink:href="#av"/><use transform="matrix(0.05,0,0,0.05,24,0)" xlink:href="#av"/><use transform="matrix(0.05,0,0,0.05,34,0)" xlink:href="#aJ"/></g><g id="ae"><use transform="matrix(0.05,0,0,0.05,0,0)" xlink:href="#aD"/><use transform="matrix(0.05,0,0,0.05,10,0)" xlink:href="#aE"/><use transform="matrix(0.05,0,0,0.05,19,0)" xlink:href="#at"/><use transform="matrix(0.05,0,0,0.05,29,0)" xlink:href="#aC"/></g><path d="M190 0L58-211 59 0H30v-248h39L202-35l-2-213h31V0h-41" id="bD"/><use transform="matrix(0.05,0,0,0.05,0,0)" xlink:href="#bD" id="af"/><path d="M27 0v-27h64v-190l-56 39v-29l58-41h29v221h61V0H27" id="bE"/><use transform="matrix(0.05,0,0,0.05,0,0)" xlink:href="#bE" id="ag"/><g id="ah"><use transform="matrix(0.05,0,0,0.05,0,0)" xlink:href="#aL"/><use transform="matrix(0.05,0,0,0.05,12.950000000000001,0)" xlink:href="#at"/><use transform="matrix(0.05,0,0,0.05,22.950000000000003,0)" xlink:href="#at"/><use transform="matrix(0.05,0,0,0.05,32.95,0)" xlink:href="#aM"/><use transform="matrix(0.05,0,0,0.05,37.95,0)" xlink:href="#aJ"/></g><g id="ai"><use transform="matrix(0.05,0,0,0.05,0,0)" xlink:href="#at"/><use transform="matrix(0.05,0,0,0.05,10,0)" xlink:href="#at"/><use transform="matrix(0.05,0,0,0.05,20,0)" xlink:href="#aF"/></g><g id="aj"><use transform="matrix(0.05,0,0,0.05,0,0)" xlink:href="#aK"/><use transform="matrix(0.05,0,0,0.05,12.950000000000001,0)" xlink:href="#aD"/><use transform="matrix(0.05,0,0,0.05,22.950000000000003,0)" xlink:href="#ay"/><use transform="matrix(0.05,0,0,0.05,32.95,0)" xlink:href="#aw"/><use transform="matrix(0.05,0,0,0.05,36.900000000000006,0)" xlink:href="#bg"/></g><path fill="#333" d="M205 0l-28-72H64L36 0H1l101-248h38L239 0h-34zm-38-99l-47-123c-12 45-31 82-46 123h93" id="bF"/><g id="ak"><use transform="matrix(0.05,0,0,0.05,0,0)" xlink:href="#bF"/><use transform="matrix(0.05,0,0,0.05,12,0)" xlink:href="#av"/><use transform="matrix(0.05,0,0,0.05,22,0)" xlink:href="#aF"/><use transform="matrix(0.05,0,0,0.05,32,0)" xlink:href="#aJ"/><use transform="matrix(0.05,0,0,0.05,37,0)" xlink:href="#av"/><use transform="matrix(0.05,0,0,0.05,47,0)" xlink:href="#ax"/></g><g id="al"><use transform="matrix(0.05,0,0,0.05,0,0)" xlink:href="#aL"/><use transform="matrix(0.05,0,0,0.05,12.950000000000001,0)" xlink:href="#aD"/><use transform="matrix(0.05,0,0,0.05,22.950000000000003,0)" xlink:href="#aD"/><use transform="matrix(0.05,0,0,0.05,32.95,0)" xlink:href="#aC"/><use transform="matrix(0.05,0,0,0.05,38.900000000000006,0)" xlink:href="#aJ"/></g><g id="am"><use transform="matrix(0.05,0,0,0.05,0,0)" xlink:href="#bh"/><use transform="matrix(0.05,0,0,0.05,10,0)" xlink:href="#aw"/><use transform="matrix(0.05,0,0,0.05,13.949999999999998,0)" xlink:href="#bi"/></g><g id="an"><use transform="matrix(0.05,0,0,0.05,0,0)" xlink:href="#bx"/><use transform="matrix(0.05,0,0,0.05,5,0)" xlink:href="#aF"/><use transform="matrix(0.05,0,0,0.05,15,0)" xlink:href="#aE"/><use transform="matrix(0.05,0,0,0.05,24,0)" xlink:href="#bj"/><use transform="matrix(0.05,0,0,0.05,34,0)" xlink:href="#ax"/><use transform="matrix(0.05,0,0,0.05,37.95,0)" xlink:href="#ax"/><use transform="matrix(0.05,0,0,0.05,41.900000000000006,0)" xlink:href="#at"/><use transform="matrix(0.05,0,0,0.05,51.900000000000006,0)" xlink:href="#aF"/></g><path fill="#333" d="M160-131c35 5 61 23 61 61C221 17 115-2 30 0v-248c76 3 177-17 177 60 0 33-19 50-47 57zm-97-11c50-1 110 9 110-42 0-47-63-36-110-37v79zm0 115c55-2 124 14 124-45 0-56-70-42-124-44v89" id="bG"/><g id="ao"><use transform="matrix(0.05,0,0,0.05,0,0)" xlink:href="#bG"/><use transform="matrix(0.05,0,0,0.05,12,0)" xlink:href="#at"/><use transform="matrix(0.05,0,0,0.05,22,0)" xlink:href="#aE"/><use transform="matrix(0.05,0,0,0.05,31,0)" xlink:href="#av"/><use transform="matrix(0.05,0,0,0.05,41,0)" xlink:href="#aJ"/></g></defs></g></svg>