<svg width="30px" height="30px" viewBox="0 0 24 24" fill="none" xmlns="http://www.w3.org/2000/svg">
<path d="M11.9949 3.75C12.4091 3.75 12.7449 4.08579 12.7449 4.5V5.30313C15.2892 5.66694 17.2451 7.85506 17.2451 10.5V13.65L18.1949 14.7897C19.0091 15.7667 18.3143 17.25 17.0426 17.25H6.94769C5.67593 17.25 4.9812 15.7667 5.79536 14.7897L6.74513 13.65V10.5C6.74513 7.85523 8.70078 5.66724 11.2449 5.3032V4.5C11.2449 4.08579 11.5807 3.75 11.9949 3.75Z" fill="#3A52EE"/>
<path d="M9.34803 19.9017C9.01645 19.5701 8.75015 19.1794 8.56274 18.75H15.4366C15.2492 19.1794 14.9829 19.5701 14.6513 19.9017C14.3031 20.2499 13.8897 20.5261 13.4347 20.7145C12.9798 20.903 12.4921 21 11.9997 21C11.5072 21 11.0196 20.903 10.5646 20.7145C10.1096 20.5261 9.69624 20.2499 9.34803 19.9017Z" fill="#3A52EE"/>
</svg>
