<?xml version="1.0" encoding="UTF-8" standalone="no"?> <svg id="Layer_1" data-name="Layer 1" xmlns="http://www.w3.org/2000/svg" viewBox="0 0 128 128"><defs><style>.cls-1{fill:#ff453f;}</style></defs><path class="cls-1" d="M92.73,23.27H35.27a12,12,0,0,0-12,12V92.73a12,12,0,0,0,12,12H92.73a12,12,0,0,0,12-12V35.27A12,12,0,0,0,92.73,23.27Zm-2,60.39a3.34,3.34,0,0,1,0,4.72l-2.39,2.39a3.34,3.34,0,0,1-4.72,0L64,71.11,44.34,90.77a3.34,3.34,0,0,1-4.72,0l-2.39-2.39a3.34,3.34,0,0,1,0-4.72L56.89,64,37.23,44.35a3.34,3.34,0,0,1,0-4.72l2.39-2.4a3.36,3.36,0,0,1,4.72,0L64,56.89,83.66,37.23a3.36,3.36,0,0,1,4.72,0l2.39,2.4a3.34,3.34,0,0,1,0,4.72L71.11,64Z"/><path d="M90.77,83.66a3.34,3.34,0,0,1,0,4.72l-2.39,2.39a3.34,3.34,0,0,1-4.72,0L64,71.11,44.34,90.77a3.34,3.34,0,0,1-4.72,0l-2.39-2.39a3.34,3.34,0,0,1,0-4.72L56.89,64,37.23,44.35a3.34,3.34,0,0,1,0-4.72l2.39-2.4a3.36,3.36,0,0,1,4.72,0L64,56.89,83.66,37.23a3.36,3.36,0,0,1,4.72,0l2.39,2.4a3.34,3.34,0,0,1,0,4.72L71.11,64Z"/></svg>