<svg xmlns="http://www.w3.org/2000/svg" xmlns:xlink="http://www.w3.org/1999/xlink" xmlns:lucid="lucid" width="1627" height="1042"><g transform="translate(0 7.105427357601002e-15)" lucid:page-tab-id="HWEp-vi-RSFO"><path d="M100 40h200v226H100z" stroke="#333" stroke-width="2" fill="#fff"/><path d="M100 77.6h200" stroke="#333" stroke-width="2" fill="none"/><use xlink:href="#a" transform="matrix(1,0,0,1,108,48) translate(72.025 14.6)"/><use xlink:href="#b" transform="matrix(1,0,0,1,112,85.6) translate(0 14.500000000000009)"/><use xlink:href="#c" transform="matrix(1,0,0,1,112,85.6) translate(0 36.10000000000001)"/><use xlink:href="#d" transform="matrix(1,0,0,1,112,85.6) translate(0 57.70000000000001)"/><use xlink:href="#e" transform="matrix(1,0,0,1,112,85.6) translate(0 79.30000000000003)"/><use xlink:href="#f" transform="matrix(1,0,0,1,112,85.6) translate(0 100.90000000000002)"/><use xlink:href="#g" transform="matrix(1,0,0,1,112,85.6) translate(0 122.50000000000001)"/><use xlink:href="#h" transform="matrix(1,0,0,1,112,85.6) translate(0 144.1)"/><use xlink:href="#i" transform="matrix(1,0,0,1,112,85.6) translate(0 165.70000000000002)"/><path d="M1378.5 101.95h-1077" stroke="#333" fill="none"/><path d="M1379 102.45h-.5v-1h.5zM301.5 102.45h-.5v-1h.5z" stroke="#333" stroke-width=".05" fill="#333"/><use xlink:href="#j" transform="matrix(1,0,0,1,326.81212500270294,76.35109936321034) translate(0 14.4)"/><use xlink:href="#k" transform="matrix(1,0,0,1,1322.9473321985267,76.35109936321034) translate(0.004999999999999893 14.4)"/><path d="M658.5 183.66h-357" stroke="#333" fill="none"/><path d="M659 184.16h-.5v-1h.5zM301.5 184.16h-.5v-1h.5z" stroke="#333" stroke-width=".05" fill="#333"/><use xlink:href="#l" transform="matrix(1,0,0,1,317.7616948415724,158.0625615763547) translate(0 14.4)"/><use xlink:href="#k" transform="matrix(1,0,0,1,635.4372153866997,158.0625615763547) translate(0.004999999999999893 14.4)"/><path d="M413.15 28c0-4.42 3.58-8 8-8h836.75c4.4 0 8 3.58 8 8v25.16c0 4.4-3.6 8-8 8H421.15c-4.42 0-8-3.6-8-8z" stroke="#000" stroke-opacity="0" stroke-width="2" fill="#fff" fill-opacity="0"/><use xlink:href="#m" transform="matrix(1,0,0,1,417.1465527853429,23.999999999999993) translate(335.67111111111114 23.657777777777778)"/><use xlink:href="#n" transform="matrix(1,0,0,1,417.1465527853429,23.999999999999993) translate(438.8846913580247 23.657777777777778)"/><path d="M689.63 59.8H999M689.65 59.8h-1.02M998.96 59.8h1.03" stroke="#a9afb8" stroke-width="2" fill="none"/><path d="M413.15 69.16c0-4.42 3.58-8 8-8h837.7c4.42 0 8 3.58 8 8V72c0 4.42-3.58 8-8 8h-837.7c-4.42 0-8-3.58-8-8z" stroke="#000" stroke-opacity="0" stroke-width="2" fill="#fff" fill-opacity="0"/><path d="M1380 240h200v183h-200z" stroke="#333" stroke-width="2" fill="#fff"/><path d="M1380 277.6h200" stroke="#333" stroke-width="2" fill="none"/><use xlink:href="#o" transform="matrix(1,0,0,1,1388,248.0000000000001) translate(61.55 14.6)"/><use xlink:href="#p" transform="matrix(1,0,0,1,1392,285.60000000000014) translate(0 14.600000000000003)"/><use xlink:href="#q" transform="matrix(1,0,0,1,1392,285.60000000000014) translate(0 36.2)"/><use xlink:href="#r" transform="matrix(1,0,0,1,1392,285.60000000000014) translate(0 57.800000000000004)"/><use xlink:href="#s" transform="matrix(1,0,0,1,1392,285.60000000000014) translate(0 79.40000000000002)"/><use xlink:href="#t" transform="matrix(1,0,0,1,1392,285.60000000000014) translate(0 101.00000000000001)"/><use xlink:href="#u" transform="matrix(1,0,0,1,1392,285.60000000000014) translate(0 122.60000000000001)"/><path d="M660 133.4h200v205H660z" stroke="#333" stroke-width="2" fill="#fff"/><path d="M660 171h200" stroke="#333" stroke-width="2" fill="none"/><use xlink:href="#v" transform="matrix(1,0,0,1,668,141.39890875281378) translate(43.14999999999999 14.6)"/><use xlink:href="#p" transform="matrix(1,0,0,1,672,178.99890875281378) translate(0 14.800000000000006)"/><use xlink:href="#w" transform="matrix(1,0,0,1,672,178.99890875281378) translate(0 36.400000000000006)"/><use xlink:href="#x" transform="matrix(1,0,0,1,672,178.99890875281378) translate(0 58.00000000000001)"/><use xlink:href="#y" transform="matrix(1,0,0,1,672,178.99890875281378) translate(0 79.60000000000002)"/><use xlink:href="#z" transform="matrix(1,0,0,1,672,178.99890875281378) translate(0 101.20000000000002)"/><use xlink:href="#A" transform="matrix(1,0,0,1,672,178.99890875281378) translate(0 122.80000000000001)"/><use xlink:href="#B" transform="matrix(1,0,0,1,672,178.99890875281378) translate(0 144.4)"/><path d="M100 360h240v142H100z" stroke="#333" stroke-width="2" fill="#fff"/><path d="M100 397.6h240" stroke="#333" stroke-width="2" fill="none"/><use xlink:href="#C" transform="matrix(1,0,0,1,108,368) translate(78.625 14.6)"/><use xlink:href="#p" transform="matrix(1,0,0,1,112,405.6) translate(0 15.69999999999999)"/><use xlink:href="#q" transform="matrix(1,0,0,1,112,405.6) translate(0 37.29999999999999)"/><use xlink:href="#D" transform="matrix(1,0,0,1,112,405.6) translate(0 58.89999999999999)"/><use xlink:href="#E" transform="matrix(1,0,0,1,112,405.6) translate(0 80.5)"/><path d="M1100 520h180v75h-180z" stroke="#333" stroke-width="2" fill="#fff"/><path d="M1100 557.6h180" stroke="#333" stroke-width="2" fill="none"/><use xlink:href="#F" transform="matrix(1,0,0,1,1108,528) translate(63.5 14.6)"/><use xlink:href="#G" transform="matrix(1,0,0,1,1112,565.6) translate(0 14.6)"/><path d="M1378.5 331.5H1312c-6.63 0-12-5.37-12-12v-71.6c0-6.63-5.37-12-12-12H861.5" stroke="#333" fill="none"/><path d="M1379 332h-.5v-1h.5zM861.5 236.4h-.5v-1h.5z" stroke="#333" stroke-width=".05" fill="#333"/><use xlink:href="#H" transform="matrix(1,0,0,1,871.8670499569627,210.2989087528138) translate(0 14.4)"/><use xlink:href="#I" transform="matrix(1,0,0,1,1346.0791900496604,305.9000000000001) translate(0.004999999999999893 14.4)"/><path d="M1180 695h180v140h-180z" stroke="#333" stroke-width="2" fill="#fff"/><path d="M1180 732.6h180" stroke="#333" stroke-width="2" fill="none"/><use xlink:href="#J" transform="matrix(1,0,0,1,1188,703) translate(51.599999999999994 14.6)"/><use xlink:href="#K" transform="matrix(1,0,0,1,1192,740.6) translate(0 14.69999999999999)"/><use xlink:href="#r" transform="matrix(1,0,0,1,1192,740.6) translate(0 36.29999999999999)"/><use xlink:href="#L" transform="matrix(1,0,0,1,1192,740.6) translate(0 57.89999999999999)"/><use xlink:href="#M" transform="matrix(1,0,0,1,1192,740.6) translate(0 79.5)"/><path d="M20 695h140v120H20z" stroke="#333" stroke-width="2" fill="#fff"/><path d="M20 732.6h140" stroke="#333" stroke-width="2" fill="none"/><use xlink:href="#N" transform="matrix(1,0,0,1,28,703) translate(29.549999999999997 14.6)"/><use xlink:href="#O" transform="matrix(1,0,0,1,32,740.6) translate(0 26.299999999999997)"/><use xlink:href="#P" transform="matrix(1,0,0,1,32,740.6) translate(0 47.9)"/><path d="M380 695h160v140H380z" stroke="#333" stroke-width="2" fill="#fff"/><path d="M380 732.6h160" stroke="#333" stroke-width="2" fill="none"/><use xlink:href="#Q" transform="matrix(1,0,0,1,388,703) translate(33.099999999999994 14.6)"/><use xlink:href="#p" transform="matrix(1,0,0,1,392,740.6) translate(0 14.69999999999999)"/><use xlink:href="#R" transform="matrix(1,0,0,1,392,740.6) translate(0 36.29999999999999)"/><use xlink:href="#S" transform="matrix(1,0,0,1,392,740.6) translate(0 57.89999999999999)"/><use xlink:href="#T" transform="matrix(1,0,0,1,392,740.6) translate(0 79.5)"/><path d="M678.5 868.5H612c-6.63 0-12-5.37-12-12V249.34c0-6.63-5.37-12-12-12H301.5" stroke="#333" fill="none"/><path d="M679 869h-.5v-1h.5zM301.5 237.84h-.5v-1h.5z" stroke="#333" stroke-width=".05" fill="#333"/><use xlink:href="#j" transform="matrix(1,0,0,1,324.6586252728821,211.7423645320197) translate(0 14.4)"/><use xlink:href="#k" transform="matrix(1,0,0,1,626.4292922648942,842.9) translate(0.004999999999999893 14.4)"/><path d="M697.3 339.9v35.43c0 6.63-5.37 12-12 12H341.5" stroke="#333" fill="none"/><path d="M697.8 339.9h-1v-.5h1zM341.5 387.83h-.5v-1h.5z" stroke="#333" stroke-width=".05" fill="#333"/><use xlink:href="#l" transform="matrix(1,0,0,1,346.7594939021995,361.7300492610837) translate(0 14.4)"/><use xlink:href="#k" transform="matrix(1,0,0,1,676.3529556650245,338.7643113903396) translate(0.004999999999999893 14.4)"/><path d="M861.5 293.13H1178c6.63 0 12 5.37 12 12V518.5" stroke="#333" fill="none"/><path d="M861.5 293.63h-.5v-1h.5zM1190.5 519h-1v-.5h1z" stroke="#333" stroke-width=".05" fill="#333"/><use xlink:href="#U" transform="matrix(1,0,0,1,860.525,297.1269319567406) translate(0 14.4)"/><use xlink:href="#V" transform="matrix(1,0,0,1,1198,498.2000000000002) translate(0 14.4)"/><path d="M1378.5 409.43h-397" stroke="#333" fill="none"/><path d="M1379 409.93h-.5v-1h.5zM981.5 409.93h-.5v-1h.5z" stroke="#333" stroke-width=".05" fill="#333"/><use xlink:href="#W" transform="matrix(1,0,0,1,985.900905149421,383.83349753694586) translate(0 14.4)"/><use xlink:href="#X" transform="matrix(1,0,0,1,1355.695814670699,383.83349753694586) translate(0.004999999999999893 14.4)"/><path d="M1378.5 562.12h-97" stroke="#333" fill="none"/><path d="M1379 562.62h-.5v-1h.5zM1281.5 562.62h-.5v-1h.5z" stroke="#333" stroke-width=".05" fill="#333"/><use xlink:href="#j" transform="matrix(1,0,0,1,1280.801102272973,536.5172089339522) translate(0 14.4)"/><use xlink:href="#k" transform="matrix(1,0,0,1,1367.0179392907753,536.5172089339525) translate(0.004999999999999893 14.4)"/><path d="M1581.5 369.44h27.5c6.63 0 12 5.38 12 12v337.22c0 6.62-5.37 12-12 12h-247.5" stroke="#333" fill="none"/><path d="M1581.5 369.94h-.5v-1h.5zM1361.5 731.16h-.5v-1h.5z" stroke="#333" stroke-width=".05" fill="#333"/><use xlink:href="#l" transform="matrix(1,0,0,1,1373.3100627753372,705.057135566149) translate(0 14.4)"/><use xlink:href="#k" transform="matrix(1,0,0,1,1600.0500000000002,375.63510760989885) translate(0.004999999999999893 14.4)"/><path d="M798.5 415h-457" stroke="#333" fill="none"/><path d="M799 415.5h-.5v-1h.5zM341.5 415.5h-.5v-1h.5z" stroke="#333" stroke-width=".05" fill="#333"/><use xlink:href="#l" transform="matrix(1,0,0,1,349.0908657247105,389.4000000000001) translate(0 14.4)"/><use xlink:href="#Y" transform="matrix(1,0,0,1,771.4613897466838,389.4000000000001) translate(0.004999999999999893 14.4)"/><path d="M838.5 657.5H742c-6.63 0-12-5.37-12-12V471.58c0-6.63-5.37-12-12-12H341.5" stroke="#333" fill="none"/><path d="M839 658h-.5v-1h.5zM341.5 460.08h-.5v-1h.5z" stroke="#333" stroke-width=".05" fill="#333"/><use xlink:href="#j" transform="matrix(1,0,0,1,355.7055684404444,433.97604330364936) translate(0 14.4)"/><use xlink:href="#k" transform="matrix(1,0,0,1,800.8350392689512,631.9) translate(0.004999999999999893 14.4)"/><path d="M1178.5 741.3H702c-6.63 0-12-5.38-12-12V505.96c0-6.63-5.37-12-12-12H341.5" stroke="#333" fill="none"/><path d="M1179 741.8h-.5v-1h.5zM341.5 494.47h-.5v-1h.5z" stroke="#333" stroke-width=".05" fill="#333"/><use xlink:href="#H" transform="matrix(1,0,0,1,365.35012802274576,468.3689540771783) translate(0 14.4)"/><use xlink:href="#I" transform="matrix(1,0,0,1,1124.384497936472,715.6920753251851) translate(0.004999999999999893 14.4)"/><path d="M1151 518.5V455c0-6.63-5.37-12-12-12H981.5" stroke="#333" fill="none"/><path d="M1151.5 519h-1v-.5h1zM981.5 443.5h-.5v-1h.5z" stroke="#333" stroke-width=".05" fill="#333"/><use xlink:href="#H" transform="matrix(1,0,0,1,982.1967591173393,417.4000000000001) translate(0 14.4)"/><use xlink:href="#I" transform="matrix(1,0,0,1,1158.9991006809848,495.9068247496331) translate(0.004999999999999893 14.4)"/><path d="M220 594.5v-91" stroke="#333" fill="none"/><path d="M220.5 595h-1v-.5h1zM220.5 503.5h-1v-.5h1z" stroke="#333" stroke-width=".05" fill="#333"/><use xlink:href="#l" transform="matrix(1,0,0,1,228,502.829606215444) translate(0 14.4)"/><use xlink:href="#k" transform="matrix(1,0,0,1,228,573.9688817831767) translate(0.004999999999999893 14.4)"/><path d="M128.5 634.5H90.24c-6.63 0-12 5.37-12 12v47" stroke="#333" fill="none"/><path d="M129 635h-.5v-1h.5zM78.74 694h-1v-.5h1z" stroke="#333" stroke-width=".05" fill="#333"/><use xlink:href="#l" transform="matrix(1,0,0,1,60.23751264635746,672.4396053328202) translate(0 14.4)"/><use xlink:href="#I" transform="matrix(1,0,0,1,117.94940798158116,608.9000000000001) translate(0.004999999999999893 14.4)"/><path d="M421.34 693.5v-47c0-6.63-5.37-12-12-12H311.5" stroke="#333" fill="none"/><path d="M421.84 694h-1v-.5h1zM311.5 635h-.5v-1h.5z" stroke="#333" stroke-width=".05" fill="#333"/><use xlink:href="#l" transform="matrix(1,0,0,1,311.46324930902506,608.9000000000001) translate(0 14.4)"/><use xlink:href="#I" transform="matrix(1,0,0,1,429.3389464179904,672.4094618811356) translate(0.004999999999999893 14.4)"/><path d="M1400 860h160v120h-160z" stroke="#333" stroke-width="2" fill="#fff"/><path d="M1400 897.6h160" stroke="#333" stroke-width="2" fill="none"/><use xlink:href="#Z" transform="matrix(1,0,0,1,1408,868) translate(16.099999999999994 14.6)"/><use xlink:href="#aa" transform="matrix(1,0,0,1,1408,868) translate(81.9 14.6)"/><use xlink:href="#ab" transform="matrix(1,0,0,1,1412,905.6) translate(0 15.500000000000002)"/><use xlink:href="#ac" transform="matrix(1,0,0,1,1412,905.6) translate(0 37.1)"/><use xlink:href="#ad" transform="matrix(1,0,0,1,1412,905.6) translate(0 58.7)"/><path d="M130 596h180v77H130z" stroke="#333" stroke-width="2" fill="#fff"/><path d="M130 633.6h180" stroke="#333" stroke-width="2" fill="none"/><use xlink:href="#ae" transform="matrix(1,0,0,1,138,604) translate(10.649999999999991 14.6)"/><use xlink:href="#af" transform="matrix(1,0,0,1,142,641.6) translate(0 15.6)"/><path d="M680 820h180v97H680z" stroke="#333" stroke-width="2" fill="#fff"/><path d="M680 857.6h180" stroke="#333" stroke-width="2" fill="none"/><use xlink:href="#ag" transform="matrix(1,0,0,1,688,828) translate(24.17499999999999 14.6)"/><use xlink:href="#ah" transform="matrix(1,0,0,1,692,865.6) translate(0 14.799999999999999)"/><use xlink:href="#ai" transform="matrix(1,0,0,1,692,865.6) translate(0 36.4)"/><path d="M861.5 868.5H1258c6.63 0 12-5.37 12-12v-20" stroke="#333" fill="none"/><path d="M861.5 869h-.5v-1h.5zM1270.5 836.5h-1v-.5h1z" stroke="#333" stroke-width=".05" fill="#333"/><use xlink:href="#j" transform="matrix(1,0,0,1,1278,838.4280492546048) translate(0 14.4)"/><use xlink:href="#Y" transform="matrix(1,0,0,1,875.86026668565,872.5) translate(0.004999999999999893 14.4)"/><path d="M800 384h180v118H800z" stroke="#333" stroke-width="2" fill="#fff"/><path d="M800 421.6h180" stroke="#333" stroke-width="2" fill="none"/><use xlink:href="#aj" transform="matrix(1,0,0,1,808,392.0000000000001) translate(27.624999999999993 14.6)"/><use xlink:href="#ak" transform="matrix(1,0,0,1,812,429.60000000000014) translate(0 14.500000000000002)"/><use xlink:href="#al" transform="matrix(1,0,0,1,812,429.60000000000014) translate(0 36.1)"/><use xlink:href="#B" transform="matrix(1,0,0,1,812,429.60000000000014) translate(0 57.7)"/><path d="M1380 53.45h200v97h-200z" stroke="#333" stroke-width="2" fill="#fff"/><path d="M1380 91.05h200" stroke="#333" stroke-width="2" fill="none"/><g><use xlink:href="#am" transform="matrix(1,0,0,1,1388,61.451099363210346) translate(34.12499999999999 14.6)"/></g><g><use xlink:href="#al" transform="matrix(1,0,0,1,1392,99.05109936321034) translate(0 14.799999999999999)"/><use xlink:href="#ai" transform="matrix(1,0,0,1,1392,99.05109936321034) translate(0 36.4)"/></g><path d="M1480 238.5v-86.55" stroke="#333" fill="none"/><path d="M1480.5 239h-1v-.5h1zM1480.5 151.96h-1v-.5h1z" stroke="#333" stroke-width=".05" fill="#333"/><g><use xlink:href="#W" transform="matrix(1,0,0,1,1488,151.15348124657768) translate(0 14.4)"/></g><g><use xlink:href="#X" transform="matrix(1,0,0,1,1488,218.17358969187862) translate(0.004999999999999893 14.4)"/></g><path d="M1380 502h200v118h-200z" stroke="#333" stroke-width="2" fill="#fff"/><path d="M1380 539.6h200" stroke="#333" stroke-width="2" fill="none"/><g><use xlink:href="#an" transform="matrix(1,0,0,1,1388,510.0000000000002) translate(4.1499999999999915 14.6)"/></g><g><use xlink:href="#ao" transform="matrix(1,0,0,1,1392,547.6000000000003) translate(0 14.500000000000002)"/><use xlink:href="#ap" transform="matrix(1,0,0,1,1392,547.6000000000003) translate(0 36.1)"/><use xlink:href="#aq" transform="matrix(1,0,0,1,1392,547.6000000000003) translate(0 57.7)"/></g><path d="M1480 424.5v76" stroke="#333" fill="none"/><path d="M1480.5 424.5h-1v-.5h1zM1480.5 501h-1v-.5h1z" stroke="#333" stroke-width=".05" fill="#333"/><g><use xlink:href="#W" transform="matrix(1,0,0,1,1459.05,479.9991339283786) translate(0 14.4)"/></g><g><use xlink:href="#X" transform="matrix(1,0,0,1,1462,423.7412619858196) translate(0.004999999999999893 14.4)"/></g><path d="M200 860h160v162H200z" stroke="#333" stroke-width="2" fill="#fff"/><path d="M200 897.6h160" stroke="#333" stroke-width="2" fill="none"/><g><use xlink:href="#ar" transform="matrix(1,0,0,1,208,868) translate(17.82499999999999 14.6)"/></g><g><use xlink:href="#as" transform="matrix(1,0,0,1,212,905.6) translate(0 14.899999999999993)"/><use xlink:href="#at" transform="matrix(1,0,0,1,212,905.6) translate(0 36.49999999999999)"/><use xlink:href="#au" transform="matrix(1,0,0,1,212,905.6) translate(0 58.099999999999994)"/><use xlink:href="#av" transform="matrix(1,0,0,1,212,905.6) translate(0 79.70000000000002)"/><use xlink:href="#T" transform="matrix(1,0,0,1,212,905.6) translate(0 101.30000000000001)"/></g><path d="M378.5 775H292c-6.63 0-12 5.37-12 12v71.5" stroke="#333" fill="none"/><path d="M379 775.5h-.5v-1h.5zM280.5 859h-1v-.5h1z" stroke="#333" stroke-width=".05" fill="#333"/><g><use xlink:href="#j" transform="matrix(1,0,0,1,262,838.3605725572679) translate(0 14.4)"/></g><g><use xlink:href="#X" transform="matrix(1,0,0,1,364.604179559794,749.4000000000001) translate(0.004999999999999893 14.4)"/></g><path d="M840 609h180v97H840z" stroke="#333" stroke-width="2" fill="#fff"/><path d="M840 646.6h180" stroke="#333" stroke-width="2" fill="none"/><g><use xlink:href="#aw" transform="matrix(1,0,0,1,848,617) translate(30.125 14.6)"/></g><g><use xlink:href="#ak" transform="matrix(1,0,0,1,852,654.6) translate(0 14.799999999999999)"/><use xlink:href="#ax" transform="matrix(1,0,0,1,852,654.6) translate(0 36.4)"/></g><path d="M1098.5 557.5H1072c-6.63 0-12 5.37-12 12v76c0 6.63-5.37 12-12 12h-26.5" stroke="#333" fill="none"/><path d="M1099 558h-.5v-1h.5zM1021.5 658h-.5v-1h.5z" stroke="#333" stroke-width=".05" fill="#333"/><g><use xlink:href="#W" transform="matrix(1,0,0,1,1020.4164049895952,631.9) translate(0 14.4)"/></g><g><use xlink:href="#X" transform="matrix(1,0,0,1,1086.1126651849222,531.9000000000001) translate(0.004999999999999893 14.4)"/></g><defs><path fill="#333" d="M238-95c0 69-44 99-111 99C63 4 22-25 22-93v-155h51v151c-1 38 19 59 55 60 90 1 49-130 58-211h52v153" id="ay"/><path fill="#333" d="M137-138c1-29-70-34-71-4 15 46 118 7 119 86 1 83-164 76-172 9l43-7c4 19 20 25 44 25 33 8 57-30 24-41C81-84 22-81 20-136c-2-80 154-74 161-7" id="az"/><path fill="#333" d="M185-48c-13 30-37 53-82 52C43 2 14-33 14-96s30-98 90-98c62 0 83 45 84 108H66c0 31 8 55 39 56 18 0 30-7 34-22zm-45-69c5-46-57-63-70-21-2 6-4 13-4 21h74" id="aA"/><path fill="#333" d="M135-150c-39-12-60 13-60 57V0H25l-1-190h47c2 13-1 29 3 40 6-28 27-53 61-41v41" id="aB"/><g id="a"><use transform="matrix(0.05,0,0,0.05,0,0)" xlink:href="#ay"/><use transform="matrix(0.05,0,0,0.05,12.950000000000001,0)" xlink:href="#az"/><use transform="matrix(0.05,0,0,0.05,22.950000000000003,0)" xlink:href="#aA"/><use transform="matrix(0.05,0,0,0.05,32.95,0)" xlink:href="#aB"/></g><path fill="#333" d="M24-231v-30h32v30H24zM24 0v-190h32V0H24" id="aC"/><path fill="#333" d="M85-194c31 0 48 13 60 33l-1-100h32l1 261h-30c-2-10 0-23-3-31C134-8 116 4 85 4 32 4 16-35 15-94c0-66 23-100 70-100zm9 24c-40 0-46 34-46 75 0 40 6 74 45 74 42 0 51-32 51-76 0-42-9-74-50-73" id="aD"/><g id="b"><use transform="matrix(0.05,0,0,0.05,0,0)" xlink:href="#aC"/><use transform="matrix(0.05,0,0,0.05,3.95,0)" xlink:href="#aD"/><path fill="#333" d="M-.9 1.25h15.75v1.32H-.9z"/></g><path fill="#333" d="M100-194c63 0 86 42 84 106H49c0 40 14 67 53 68 26 1 43-12 49-29l28 8c-11 28-37 45-77 45C44 4 14-33 15-96c1-61 26-98 85-98zm52 81c6-60-76-77-97-28-3 7-6 17-6 28h103" id="aE"/><path fill="#333" d="M210-169c-67 3-38 105-44 169h-31v-121c0-29-5-50-35-48C34-165 62-65 56 0H25l-1-190h30c1 10-1 24 2 32 10-44 99-50 107 0 11-21 27-35 58-36 85-2 47 119 55 194h-31v-121c0-29-5-49-35-48" id="aF"/><path fill="#333" d="M141-36C126-15 110 5 73 4 37 3 15-17 15-53c-1-64 63-63 125-63 3-35-9-54-41-54-24 1-41 7-42 31l-33-3c5-37 33-52 76-52 45 0 72 20 72 64v82c-1 20 7 32 28 27v20c-31 9-61-2-59-35zM48-53c0 20 12 33 32 33 41-3 63-29 60-74-43 2-92-5-92 41" id="aG"/><path fill="#333" d="M24 0v-261h32V0H24" id="aH"/><g id="c"><use transform="matrix(0.05,0,0,0.05,0,0)" xlink:href="#aE"/><use transform="matrix(0.05,0,0,0.05,10,0)" xlink:href="#aF"/><use transform="matrix(0.05,0,0,0.05,24.950000000000003,0)" xlink:href="#aG"/><use transform="matrix(0.05,0,0,0.05,34.95,0)" xlink:href="#aC"/><use transform="matrix(0.05,0,0,0.05,38.900000000000006,0)" xlink:href="#aH"/></g><path fill="#333" d="M117-194c89-4 53 116 60 194h-32v-121c0-31-8-49-39-48C34-167 62-67 57 0H25l-1-190h30c1 10-1 24 2 32 11-22 29-35 61-36" id="aI"/><g id="d"><use transform="matrix(0.05,0,0,0.05,0,0)" xlink:href="#aI"/><use transform="matrix(0.05,0,0,0.05,10,0)" xlink:href="#aG"/><use transform="matrix(0.05,0,0,0.05,20,0)" xlink:href="#aF"/><use transform="matrix(0.05,0,0,0.05,34.95,0)" xlink:href="#aE"/></g><path fill="#333" d="M115-194c55 1 70 41 70 98S169 2 115 4C84 4 66-9 55-30l1 105H24l-1-265h31l2 30c10-21 28-34 59-34zm-8 174c40 0 45-34 45-75s-6-73-45-74c-42 0-51 32-51 76 0 43 10 73 51 73" id="aJ"/><path fill="#333" d="M135-143c-3-34-86-38-87 0 15 53 115 12 119 90S17 21 10-45l28-5c4 36 97 45 98 0-10-56-113-15-118-90-4-57 82-63 122-42 12 7 21 19 24 35" id="aK"/><path fill="#333" d="M206 0h-36l-40-164L89 0H53L-1-190h32L70-26l43-164h34l41 164 42-164h31" id="aL"/><path fill="#333" d="M100-194c62-1 85 37 85 99 1 63-27 99-86 99S16-35 15-95c0-66 28-99 85-99zM99-20c44 1 53-31 53-75 0-43-8-75-51-75s-53 32-53 75 10 74 51 75" id="aM"/><path fill="#333" d="M114-163C36-179 61-72 57 0H25l-1-190h30c1 12-1 29 2 39 6-27 23-49 58-41v29" id="aN"/><g id="e"><use transform="matrix(0.05,0,0,0.05,0,0)" xlink:href="#aJ"/><use transform="matrix(0.05,0,0,0.05,10,0)" xlink:href="#aG"/><use transform="matrix(0.05,0,0,0.05,20,0)" xlink:href="#aK"/><use transform="matrix(0.05,0,0,0.05,29,0)" xlink:href="#aK"/><use transform="matrix(0.05,0,0,0.05,38,0)" xlink:href="#aL"/><use transform="matrix(0.05,0,0,0.05,50.95,0)" xlink:href="#aM"/><use transform="matrix(0.05,0,0,0.05,60.95,0)" xlink:href="#aN"/><use transform="matrix(0.05,0,0,0.05,66.9,0)" xlink:href="#aD"/></g><g id="f"><use transform="matrix(0.05,0,0,0.05,0,0)" xlink:href="#aN"/><use transform="matrix(0.05,0,0,0.05,5.95,0)" xlink:href="#aM"/><use transform="matrix(0.05,0,0,0.05,15.949999999999998,0)" xlink:href="#aH"/><use transform="matrix(0.05,0,0,0.05,19.9,0)" xlink:href="#aE"/></g><path fill="#333" d="M96-169c-40 0-48 33-48 73s9 75 48 75c24 0 41-14 43-38l32 2c-6 37-31 61-74 61-59 0-76-41-82-99-10-93 101-131 147-64 4 7 5 14 7 22l-32 3c-4-21-16-35-41-35" id="aO"/><path fill="#333" d="M59-47c-2 24 18 29 38 22v24C64 9 27 4 27-40v-127H5v-23h24l9-43h21v43h35v23H59v120" id="aP"/><path fill="#333" d="M108 0H70L1-190h34L89-25l56-165h34" id="aQ"/><g id="g"><use transform="matrix(0.05,0,0,0.05,0,0)" xlink:href="#aG"/><use transform="matrix(0.05,0,0,0.05,10,0)" xlink:href="#aO"/><use transform="matrix(0.05,0,0,0.05,19,0)" xlink:href="#aP"/><use transform="matrix(0.05,0,0,0.05,24,0)" xlink:href="#aC"/><use transform="matrix(0.05,0,0,0.05,27.950000000000003,0)" xlink:href="#aQ"/><use transform="matrix(0.05,0,0,0.05,36.95,0)" xlink:href="#aE"/></g><g id="h"><use transform="matrix(0.05,0,0,0.05,0,0)" xlink:href="#aG"/><use transform="matrix(0.05,0,0,0.05,10,0)" xlink:href="#aJ"/><use transform="matrix(0.05,0,0,0.05,20,0)" xlink:href="#aJ"/><use transform="matrix(0.05,0,0,0.05,30,0)" xlink:href="#aN"/><use transform="matrix(0.05,0,0,0.05,35.95,0)" xlink:href="#aM"/><use transform="matrix(0.05,0,0,0.05,45.95,0)" xlink:href="#aQ"/><use transform="matrix(0.05,0,0,0.05,54.95,0)" xlink:href="#aE"/><use transform="matrix(0.05,0,0,0.05,64.95,0)" xlink:href="#aD"/></g><path fill="#333" d="M115-194c53 0 69 39 70 98 0 66-23 100-70 100C84 3 66-7 56-30L54 0H23l1-261h32v101c10-23 28-34 59-34zm-8 174c40 0 45-34 45-75 0-40-5-75-45-74-42 0-51 32-51 76 0 43 10 73 51 73" id="aR"/><g id="i"><use transform="matrix(0.05,0,0,0.05,0,0)" xlink:href="#aD"/><use transform="matrix(0.05,0,0,0.05,10,0)" xlink:href="#aC"/><use transform="matrix(0.05,0,0,0.05,13.949999999999998,0)" xlink:href="#aK"/><use transform="matrix(0.05,0,0,0.05,22.95,0)" xlink:href="#aG"/><use transform="matrix(0.05,0,0,0.05,32.95,0)" xlink:href="#aR"/><use transform="matrix(0.05,0,0,0.05,42.95,0)" xlink:href="#aH"/><use transform="matrix(0.05,0,0,0.05,46.900000000000006,0)" xlink:href="#aE"/><use transform="matrix(0.05,0,0,0.05,56.900000000000006,0)" xlink:href="#aD"/></g><path fill="#333" d="M27 0v-27h64v-190l-56 39v-29l58-41h29v221h61V0H27" id="aS"/><use transform="matrix(0.05,0,0,0.05,0,0)" xlink:href="#aS" id="j"/><path fill="#333" d="M190 0L58-211 59 0H30v-248h39L202-35l-2-213h31V0h-41" id="aT"/><use transform="matrix(0.05,0,0,0.05,0,0)" xlink:href="#aT" id="k"/><use transform="matrix(0.05,0,0,0.05,0,0)" xlink:href="#aS" id="l"/><path fill="#a9afb8" d="M24-248c120-7 223 5 221 122C244-46 201 0 124 0H24v-248zM76-40c74 7 117-18 117-86 0-67-45-88-117-82v168" id="aU"/><path fill="#a9afb8" d="M110-194c64 0 96 36 96 99 0 64-35 99-97 99-61 0-95-36-95-99 0-62 34-99 96-99zm-1 164c35 0 45-28 45-65 0-40-10-65-43-65-34 0-45 26-45 65 0 36 10 65 43 65" id="aV"/><path fill="#a9afb8" d="M220-157c-53 9-28 100-34 157h-49v-107c1-27-5-49-29-50C55-147 81-57 75 0H25l-1-190h47c2 12-1 28 3 38 10-53 101-56 108 0 13-22 24-43 59-42 82 1 51 116 57 194h-49v-107c-1-25-5-48-29-50" id="aW"/><path fill="#a9afb8" d="M133-34C117-15 103 5 69 4 32 3 11-16 11-54c-1-60 55-63 116-61 1-26-3-47-28-47-18 1-26 9-28 27l-52-2c7-38 36-58 82-57s74 22 75 68l1 82c-1 14 12 18 25 15v27c-30 8-71 5-69-32zm-48 3c29 0 43-24 42-57-32 0-66-3-65 30 0 17 8 27 23 27" id="aX"/><path fill="#a9afb8" d="M25-224v-37h50v37H25zM25 0v-190h50V0H25" id="aY"/><path fill="#a9afb8" d="M135-194c87-1 58 113 63 194h-50c-7-57 23-157-34-157-59 0-34 97-39 157H25l-1-190h47c2 12-1 28 3 38 12-26 28-41 61-42" id="aZ"/><g id="m"><use transform="matrix(0.0728395061728395,0,0,0.0728395061728395,0,0)" xlink:href="#aU"/><use transform="matrix(0.0728395061728395,0,0,0.0728395061728395,18.86543209876543,0)" xlink:href="#aV"/><use transform="matrix(0.0728395061728395,0,0,0.0728395061728395,34.81728395061728,0)" xlink:href="#aW"/><use transform="matrix(0.0728395061728395,0,0,0.0728395061728395,58.12592592592593,0)" xlink:href="#aX"/><use transform="matrix(0.0728395061728395,0,0,0.0728395061728395,72.69382716049383,0)" xlink:href="#aY"/><use transform="matrix(0.0728395061728395,0,0,0.0728395061728395,79.97777777777777,0)" xlink:href="#aZ"/></g><path fill="#a9afb8" d="M88-194c31-1 46 15 58 34l-1-101h50l1 261h-48c-2-10 0-23-3-31C134-8 116 4 84 4 32 4 16-41 15-95c0-56 19-97 73-99zm17 164c33 0 40-30 41-66 1-37-9-64-41-64s-38 30-39 65c0 43 13 65 39 65" id="ba"/><path fill="#a9afb8" d="M185-48c-13 30-37 53-82 52C43 2 14-33 14-96s30-98 90-98c62 0 83 45 84 108H66c0 31 8 55 39 56 18 0 30-7 34-22zm-45-69c5-46-57-63-70-21-2 6-4 13-4 21h74" id="bb"/><path fill="#a9afb8" d="M25 0v-261h50V0H25" id="bc"/><g id="n"><use transform="matrix(0.0728395061728395,0,0,0.0728395061728395,0,0)" xlink:href="#aW"/><use transform="matrix(0.0728395061728395,0,0,0.0728395061728395,23.308641975308642,0)" xlink:href="#aV"/><use transform="matrix(0.0728395061728395,0,0,0.0728395061728395,39.260493827160495,0)" xlink:href="#ba"/><use transform="matrix(0.0728395061728395,0,0,0.0728395061728395,55.212345679012344,0)" xlink:href="#bb"/><use transform="matrix(0.0728395061728395,0,0,0.0728395061728395,69.78024691358024,0)" xlink:href="#bc"/></g><path d="M24-248c93 1 206-16 204 79-1 75-69 88-152 82V0H24v-248zm52 121c47 0 100 7 100-41 0-47-54-39-100-39v80" id="bd"/><path d="M135-150c-39-12-60 13-60 57V0H25l-1-190h47c2 13-1 29 3 40 6-28 27-53 61-41v41" id="be"/><path d="M110-194c64 0 96 36 96 99 0 64-35 99-97 99-61 0-95-36-95-99 0-62 34-99 96-99zm-1 164c35 0 45-28 45-65 0-40-10-65-43-65-34 0-45 26-45 65 0 36 10 65 43 65" id="bf"/><path d="M25-224v-37h50v37H25zM75 22c2 45-34 59-81 51V38c22 5 31-5 31-27v-201h50V22" id="bg"/><path d="M185-48c-13 30-37 53-82 52C43 2 14-33 14-96s30-98 90-98c62 0 83 45 84 108H66c0 31 8 55 39 56 18 0 30-7 34-22zm-45-69c5-46-57-63-70-21-2 6-4 13-4 21h74" id="bh"/><path d="M190-63c-7 42-38 67-86 67-59 0-84-38-90-98-12-110 154-137 174-36l-49 2c-2-19-15-32-35-32-30 0-35 28-38 64-6 74 65 87 74 30" id="bi"/><path d="M115-3C79 11 28 4 28-45v-112H4v-33h27l15-45h31v45h36v33H77v99c-1 23 16 31 38 25v30" id="bj"/><g id="o"><use transform="matrix(0.05,0,0,0.05,0,0)" xlink:href="#bd"/><use transform="matrix(0.05,0,0,0.05,12,0)" xlink:href="#be"/><use transform="matrix(0.05,0,0,0.05,19,0)" xlink:href="#bf"/><use transform="matrix(0.05,0,0,0.05,29.950000000000003,0)" xlink:href="#bg"/><use transform="matrix(0.05,0,0,0.05,34.95,0)" xlink:href="#bh"/><use transform="matrix(0.05,0,0,0.05,44.95,0)" xlink:href="#bi"/><use transform="matrix(0.05,0,0,0.05,54.95,0)" xlink:href="#bj"/></g><g id="p"><use transform="matrix(0.05,0,0,0.05,0,0)" xlink:href="#aC"/><use transform="matrix(0.05,0,0,0.05,3.95,0)" xlink:href="#aD"/><path fill="#333" d="M-.9 1.25h15.75v1.32H-.9z"/></g><path fill="#333" d="M-5 72V49h209v23H-5" id="bk"/><path fill="#333" d="M179-190L93 31C79 59 56 82 12 73V49c39 6 53-20 64-50L1-190h34L92-34l54-156h33" id="bl"/><g id="q"><use transform="matrix(0.05,0,0,0.05,0,0)" xlink:href="#aE"/><use transform="matrix(0.05,0,0,0.05,10,0)" xlink:href="#aD"/><use transform="matrix(0.05,0,0,0.05,20,0)" xlink:href="#aC"/><use transform="matrix(0.05,0,0,0.05,23.95,0)" xlink:href="#aP"/><use transform="matrix(0.05,0,0,0.05,28.950000000000003,0)" xlink:href="#aC"/><use transform="matrix(0.05,0,0,0.05,32.9,0)" xlink:href="#aM"/><use transform="matrix(0.05,0,0,0.05,42.9,0)" xlink:href="#aI"/><use transform="matrix(0.05,0,0,0.05,52.900000000000006,0)" xlink:href="#bk"/><use transform="matrix(0.05,0,0,0.05,62.900000000000006,0)" xlink:href="#bl"/><use transform="matrix(0.05,0,0,0.05,71.9,0)" xlink:href="#aE"/><use transform="matrix(0.05,0,0,0.05,81.9,0)" xlink:href="#aG"/><use transform="matrix(0.05,0,0,0.05,91.9,0)" xlink:href="#aN"/></g><g id="r"><use transform="matrix(0.05,0,0,0.05,0,0)" xlink:href="#aI"/><use transform="matrix(0.05,0,0,0.05,10,0)" xlink:href="#aG"/><use transform="matrix(0.05,0,0,0.05,20,0)" xlink:href="#aF"/><use transform="matrix(0.05,0,0,0.05,34.95,0)" xlink:href="#aE"/></g><g id="s"><use transform="matrix(0.05,0,0,0.05,0,0)" xlink:href="#aD"/><use transform="matrix(0.05,0,0,0.05,10,0)" xlink:href="#aE"/><use transform="matrix(0.05,0,0,0.05,20,0)" xlink:href="#aK"/><use transform="matrix(0.05,0,0,0.05,29,0)" xlink:href="#aO"/><use transform="matrix(0.05,0,0,0.05,38,0)" xlink:href="#aN"/><use transform="matrix(0.05,0,0,0.05,43.95,0)" xlink:href="#aC"/><use transform="matrix(0.05,0,0,0.05,47.900000000000006,0)" xlink:href="#aJ"/><use transform="matrix(0.05,0,0,0.05,57.900000000000006,0)" xlink:href="#aP"/><use transform="matrix(0.05,0,0,0.05,62.900000000000006,0)" xlink:href="#aC"/><use transform="matrix(0.05,0,0,0.05,66.85000000000001,0)" xlink:href="#aM"/><use transform="matrix(0.05,0,0,0.05,76.85000000000001,0)" xlink:href="#aI"/></g><g id="t"><use transform="matrix(0.05,0,0,0.05,0,0)" xlink:href="#aJ"/><use transform="matrix(0.05,0,0,0.05,10,0)" xlink:href="#aG"/><use transform="matrix(0.05,0,0,0.05,20,0)" xlink:href="#aN"/><use transform="matrix(0.05,0,0,0.05,25.950000000000003,0)" xlink:href="#aP"/><use transform="matrix(0.05,0,0,0.05,30.950000000000003,0)" xlink:href="#aI"/><use transform="matrix(0.05,0,0,0.05,40.95,0)" xlink:href="#aE"/><use transform="matrix(0.05,0,0,0.05,50.95,0)" xlink:href="#aN"/><use transform="matrix(0.05,0,0,0.05,56.900000000000006,0)" xlink:href="#bk"/><use transform="matrix(0.05,0,0,0.05,66.9,0)" xlink:href="#aI"/><use transform="matrix(0.05,0,0,0.05,76.9,0)" xlink:href="#aG"/><use transform="matrix(0.05,0,0,0.05,86.9,0)" xlink:href="#aF"/><use transform="matrix(0.05,0,0,0.05,101.85000000000001,0)" xlink:href="#aE"/></g><g id="u"><use transform="matrix(0.05,0,0,0.05,0,0)" xlink:href="#aJ"/><use transform="matrix(0.05,0,0,0.05,10,0)" xlink:href="#aG"/><use transform="matrix(0.05,0,0,0.05,20,0)" xlink:href="#aN"/><use transform="matrix(0.05,0,0,0.05,25.950000000000003,0)" xlink:href="#aP"/><use transform="matrix(0.05,0,0,0.05,30.950000000000003,0)" xlink:href="#aI"/><use transform="matrix(0.05,0,0,0.05,40.95,0)" xlink:href="#aE"/><use transform="matrix(0.05,0,0,0.05,50.95,0)" xlink:href="#aN"/><use transform="matrix(0.05,0,0,0.05,56.900000000000006,0)" xlink:href="#bk"/><use transform="matrix(0.05,0,0,0.05,66.9,0)" xlink:href="#aD"/><use transform="matrix(0.05,0,0,0.05,76.9,0)" xlink:href="#aE"/><use transform="matrix(0.05,0,0,0.05,86.9,0)" xlink:href="#aK"/><use transform="matrix(0.05,0,0,0.05,95.9,0)" xlink:href="#aO"/><use transform="matrix(0.05,0,0,0.05,104.9,0)" xlink:href="#aN"/><use transform="matrix(0.05,0,0,0.05,110.85000000000001,0)" xlink:href="#aC"/><use transform="matrix(0.05,0,0,0.05,114.80000000000001,0)" xlink:href="#aJ"/><use transform="matrix(0.05,0,0,0.05,124.80000000000001,0)" xlink:href="#aP"/><use transform="matrix(0.05,0,0,0.05,129.8,0)" xlink:href="#aC"/><use transform="matrix(0.05,0,0,0.05,133.75,0)" xlink:href="#aM"/><use transform="matrix(0.05,0,0,0.05,143.75,0)" xlink:href="#aI"/></g><path d="M169-182c-1-43-94-46-97-3 18 66 151 10 154 114 3 95-165 93-204 36-6-8-10-19-12-30l50-8c3 46 112 56 116 5-17-69-150-10-154-114-4-87 153-88 188-35 5 8 8 18 10 28" id="bm"/><path d="M85 4C-2 5 27-109 22-190h50c7 57-23 150 33 157 60-5 35-97 40-157h50l1 190h-47c-2-12 1-28-3-38-12 25-28 42-61 42" id="bn"/><path d="M195-6C206 82 75 100 31 46c-4-6-6-13-8-21l49-6c3 16 16 24 34 25 40 0 42-37 40-79-11 22-30 35-61 35-53 0-70-43-70-97 0-56 18-96 73-97 30 0 46 14 59 34l2-30h47zm-90-29c32 0 41-27 41-63 0-35-9-62-40-62-32 0-39 29-40 63 0 36 9 62 39 62" id="bo"/><path d="M137-138c1-29-70-34-71-4 15 46 118 7 119 86 1 83-164 76-172 9l43-7c4 19 20 25 44 25 33 8 57-30 24-41C81-84 22-81 20-136c-2-80 154-74 161-7" id="bp"/><path d="M25-224v-37h50v37H25zM25 0v-190h50V0H25" id="bq"/><path d="M135-194c87-1 58 113 63 194h-50c-7-57 23-157-34-157-59 0-34 97-39 157H25l-1-190h47c2 12-1 28 3 38 12-26 28-41 61-42" id="br"/><g id="v"><use transform="matrix(0.05,0,0,0.05,0,0)" xlink:href="#bm"/><use transform="matrix(0.05,0,0,0.05,12,0)" xlink:href="#bn"/><use transform="matrix(0.05,0,0,0.05,22.950000000000003,0)" xlink:href="#bo"/><use transform="matrix(0.05,0,0,0.05,33.900000000000006,0)" xlink:href="#bo"/><use transform="matrix(0.05,0,0,0.05,44.85000000000001,0)" xlink:href="#bh"/><use transform="matrix(0.05,0,0,0.05,54.85,0)" xlink:href="#bp"/><use transform="matrix(0.05,0,0,0.05,64.85000000000001,0)" xlink:href="#bj"/><use transform="matrix(0.05,0,0,0.05,70.80000000000001,0)" xlink:href="#bq"/><use transform="matrix(0.05,0,0,0.05,75.80000000000001,0)" xlink:href="#bf"/><use transform="matrix(0.05,0,0,0.05,86.75000000000001,0)" xlink:href="#br"/></g><g id="w"><use transform="matrix(0.05,0,0,0.05,0,0)" xlink:href="#aD"/><use transform="matrix(0.05,0,0,0.05,10,0)" xlink:href="#aE"/><use transform="matrix(0.05,0,0,0.05,20,0)" xlink:href="#aO"/><use transform="matrix(0.05,0,0,0.05,29,0)" xlink:href="#aC"/><use transform="matrix(0.05,0,0,0.05,32.95,0)" xlink:href="#aK"/><use transform="matrix(0.05,0,0,0.05,41.95,0)" xlink:href="#aC"/><use transform="matrix(0.05,0,0,0.05,45.900000000000006,0)" xlink:href="#aM"/><use transform="matrix(0.05,0,0,0.05,55.900000000000006,0)" xlink:href="#aI"/><use transform="matrix(0.05,0,0,0.05,65.9,0)" xlink:href="#bk"/><use transform="matrix(0.05,0,0,0.05,75.9,0)" xlink:href="#aM"/><use transform="matrix(0.05,0,0,0.05,85.9,0)" xlink:href="#aJ"/><use transform="matrix(0.05,0,0,0.05,95.9,0)" xlink:href="#aP"/><use transform="matrix(0.05,0,0,0.05,100.9,0)" xlink:href="#aC"/><use transform="matrix(0.05,0,0,0.05,104.85000000000001,0)" xlink:href="#aM"/><use transform="matrix(0.05,0,0,0.05,114.85000000000001,0)" xlink:href="#aI"/></g><g id="x"><use transform="matrix(0.05,0,0,0.05,0,0)" xlink:href="#aN"/><use transform="matrix(0.05,0,0,0.05,5.95,0)" xlink:href="#aE"/><use transform="matrix(0.05,0,0,0.05,15.949999999999998,0)" xlink:href="#aG"/><use transform="matrix(0.05,0,0,0.05,25.950000000000003,0)" xlink:href="#aK"/><use transform="matrix(0.05,0,0,0.05,34.95,0)" xlink:href="#aM"/><use transform="matrix(0.05,0,0,0.05,44.95,0)" xlink:href="#aI"/></g><path fill="#333" d="M84 4C-5 8 30-112 23-190h32v120c0 31 7 50 39 49 72-2 45-101 50-169h31l1 190h-30c-1-10 1-25-2-33-11 22-28 36-60 37" id="bs"/><g id="y"><use transform="matrix(0.05,0,0,0.05,0,0)" xlink:href="#aK"/><use transform="matrix(0.05,0,0,0.05,9,0)" xlink:href="#aP"/><use transform="matrix(0.05,0,0,0.05,14,0)" xlink:href="#bs"/><use transform="matrix(0.05,0,0,0.05,24,0)" xlink:href="#aD"/><use transform="matrix(0.05,0,0,0.05,34,0)" xlink:href="#aE"/><use transform="matrix(0.05,0,0,0.05,44,0)" xlink:href="#aI"/><use transform="matrix(0.05,0,0,0.05,54,0)" xlink:href="#aP"/><use transform="matrix(0.05,0,0,0.05,59,0)" xlink:href="#bk"/><use transform="matrix(0.05,0,0,0.05,69,0)" xlink:href="#aC"/><use transform="matrix(0.05,0,0,0.05,72.95,0)" xlink:href="#aD"/></g><path fill="#333" d="M177-190C167-65 218 103 67 71c-23-6-38-20-44-43l32-5c15 47 100 32 89-28v-30C133-14 115 1 83 1 29 1 15-40 15-95c0-56 16-97 71-98 29-1 48 16 59 35 1-10 0-23 2-32h30zM94-22c36 0 50-32 50-73 0-42-14-75-50-75-39 0-46 34-46 75s6 73 46 73" id="bt"/><g id="z"><use transform="matrix(0.05,0,0,0.05,0,0)" xlink:href="#aK"/><use transform="matrix(0.05,0,0,0.05,9,0)" xlink:href="#bs"/><use transform="matrix(0.05,0,0,0.05,19,0)" xlink:href="#bt"/><use transform="matrix(0.05,0,0,0.05,29,0)" xlink:href="#bt"/><use transform="matrix(0.05,0,0,0.05,39,0)" xlink:href="#aE"/><use transform="matrix(0.05,0,0,0.05,49,0)" xlink:href="#aK"/><use transform="matrix(0.05,0,0,0.05,58,0)" xlink:href="#aP"/><use transform="matrix(0.05,0,0,0.05,63,0)" xlink:href="#aE"/><use transform="matrix(0.05,0,0,0.05,73,0)" xlink:href="#aD"/><use transform="matrix(0.05,0,0,0.05,83,0)" xlink:href="#bk"/><use transform="matrix(0.05,0,0,0.05,93,0)" xlink:href="#aR"/><use transform="matrix(0.05,0,0,0.05,103,0)" xlink:href="#bl"/><use transform="matrix(0.05,0,0,0.05,112,0)" xlink:href="#bk"/><use transform="matrix(0.05,0,0,0.05,122,0)" xlink:href="#aC"/><use transform="matrix(0.05,0,0,0.05,125.95,0)" xlink:href="#aD"/></g><path fill="#333" d="M24-231v-30h32v30H24zM-9 49c24 4 33-6 33-30v-209h32V24c2 40-23 58-65 49V49" id="bu"/><g id="A"><use transform="matrix(0.05,0,0,0.05,0,0)" xlink:href="#aJ"/><use transform="matrix(0.05,0,0,0.05,10,0)" xlink:href="#aN"/><use transform="matrix(0.05,0,0,0.05,15.949999999999998,0)" xlink:href="#aM"/><use transform="matrix(0.05,0,0,0.05,25.950000000000003,0)" xlink:href="#bu"/><use transform="matrix(0.05,0,0,0.05,29.899999999999995,0)" xlink:href="#aE"/><use transform="matrix(0.05,0,0,0.05,39.9,0)" xlink:href="#aO"/><use transform="matrix(0.05,0,0,0.05,48.9,0)" xlink:href="#aP"/><use transform="matrix(0.05,0,0,0.05,53.900000000000006,0)" xlink:href="#bk"/><use transform="matrix(0.05,0,0,0.05,63.900000000000006,0)" xlink:href="#aC"/><use transform="matrix(0.05,0,0,0.05,67.85,0)" xlink:href="#aD"/></g><path fill="#333" d="M143 0L79-87 56-68V0H24v-261h32v163l83-92h37l-77 82L181 0h-38" id="bv"/><g id="B"><use transform="matrix(0.05,0,0,0.05,0,0)" xlink:href="#aK"/><use transform="matrix(0.05,0,0,0.05,9,0)" xlink:href="#bv"/><use transform="matrix(0.05,0,0,0.05,18,0)" xlink:href="#aC"/><use transform="matrix(0.05,0,0,0.05,21.95,0)" xlink:href="#aH"/><use transform="matrix(0.05,0,0,0.05,25.899999999999995,0)" xlink:href="#aH"/><use transform="matrix(0.05,0,0,0.05,29.849999999999994,0)" xlink:href="#bk"/><use transform="matrix(0.05,0,0,0.05,39.849999999999994,0)" xlink:href="#aI"/><use transform="matrix(0.05,0,0,0.05,49.849999999999994,0)" xlink:href="#aG"/><use transform="matrix(0.05,0,0,0.05,59.849999999999994,0)" xlink:href="#aF"/><use transform="matrix(0.05,0,0,0.05,74.8,0)" xlink:href="#aE"/></g><path d="M88-194c31-1 46 15 58 34l-1-101h50l1 261h-48c-2-10 0-23-3-31C134-8 116 4 84 4 32 4 16-41 15-95c0-56 19-97 73-99zm17 164c33 0 40-30 41-66 1-37-9-64-41-64s-38 30-39 65c0 43 13 65 39 65" id="bw"/><g id="C"><use transform="matrix(0.05,0,0,0.05,0,0)" xlink:href="#bm"/><use transform="matrix(0.05,0,0,0.05,12,0)" xlink:href="#bj"/><use transform="matrix(0.05,0,0,0.05,17.95,0)" xlink:href="#bn"/><use transform="matrix(0.05,0,0,0.05,28.899999999999995,0)" xlink:href="#bw"/><use transform="matrix(0.05,0,0,0.05,39.85,0)" xlink:href="#bh"/><use transform="matrix(0.05,0,0,0.05,49.85,0)" xlink:href="#br"/><use transform="matrix(0.05,0,0,0.05,60.800000000000004,0)" xlink:href="#bj"/></g><g id="D"><use transform="matrix(0.05,0,0,0.05,0,0)" xlink:href="#aD"/><use transform="matrix(0.05,0,0,0.05,10,0)" xlink:href="#aE"/><use transform="matrix(0.05,0,0,0.05,20,0)" xlink:href="#aO"/><use transform="matrix(0.05,0,0,0.05,29,0)" xlink:href="#aC"/><use transform="matrix(0.05,0,0,0.05,32.95,0)" xlink:href="#aK"/><use transform="matrix(0.05,0,0,0.05,41.95,0)" xlink:href="#aC"/><use transform="matrix(0.05,0,0,0.05,45.900000000000006,0)" xlink:href="#aM"/><use transform="matrix(0.05,0,0,0.05,55.900000000000006,0)" xlink:href="#aI"/></g><g id="E"><use transform="matrix(0.05,0,0,0.05,0,0)" xlink:href="#aE"/><use transform="matrix(0.05,0,0,0.05,10,0)" xlink:href="#aF"/><use transform="matrix(0.05,0,0,0.05,24.950000000000003,0)" xlink:href="#aG"/><use transform="matrix(0.05,0,0,0.05,34.95,0)" xlink:href="#aC"/><use transform="matrix(0.05,0,0,0.05,38.900000000000006,0)" xlink:href="#aH"/><use transform="matrix(0.05,0,0,0.05,42.85000000000001,0)" xlink:href="#bk"/><use transform="matrix(0.05,0,0,0.05,52.85,0)" xlink:href="#aK"/><use transform="matrix(0.05,0,0,0.05,61.85,0)" xlink:href="#aE"/><use transform="matrix(0.05,0,0,0.05,71.85000000000001,0)" xlink:href="#aI"/><use transform="matrix(0.05,0,0,0.05,81.85000000000001,0)" xlink:href="#aP"/></g><path d="M147 0L96-86 75-71V0H25v-261h50v150l67-79h53l-66 74L201 0h-54" id="bx"/><path d="M25 0v-261h50V0H25" id="by"/><g id="F"><use transform="matrix(0.05,0,0,0.05,0,0)" xlink:href="#bm"/><use transform="matrix(0.05,0,0,0.05,12,0)" xlink:href="#bx"/><use transform="matrix(0.05,0,0,0.05,22,0)" xlink:href="#bq"/><use transform="matrix(0.05,0,0,0.05,27,0)" xlink:href="#by"/><use transform="matrix(0.05,0,0,0.05,32,0)" xlink:href="#by"/></g><g id="G"><use transform="matrix(0.05,0,0,0.05,0,0)" xlink:href="#aI"/><use transform="matrix(0.05,0,0,0.05,10,0)" xlink:href="#aG"/><use transform="matrix(0.05,0,0,0.05,20,0)" xlink:href="#aF"/><use transform="matrix(0.05,0,0,0.05,34.95,0)" xlink:href="#aE"/><path fill="#333" d="M-.9 1.25h46.75v1.32H-.9z"/></g><use transform="matrix(0.05,0,0,0.05,0,0)" xlink:href="#aT" id="H"/><use transform="matrix(0.05,0,0,0.05,0,0)" xlink:href="#aS" id="I"/><path d="M24 0v-248h195v40H76v63h132v40H76v65h150V0H24" id="bz"/><g id="J"><use transform="matrix(0.05,0,0,0.05,0,0)" xlink:href="#bz"/><use transform="matrix(0.05,0,0,0.05,12,0)" xlink:href="#bw"/><use transform="matrix(0.05,0,0,0.05,22.950000000000003,0)" xlink:href="#bq"/><use transform="matrix(0.05,0,0,0.05,27.950000000000003,0)" xlink:href="#bj"/><use transform="matrix(0.05,0,0,0.05,33.900000000000006,0)" xlink:href="#bq"/><use transform="matrix(0.05,0,0,0.05,38.900000000000006,0)" xlink:href="#bf"/><use transform="matrix(0.05,0,0,0.05,49.85000000000001,0)" xlink:href="#br"/></g><g id="K"><use transform="matrix(0.05,0,0,0.05,0,0)" xlink:href="#bl"/><use transform="matrix(0.05,0,0,0.05,9,0)" xlink:href="#aE"/><use transform="matrix(0.05,0,0,0.05,19,0)" xlink:href="#aG"/><use transform="matrix(0.05,0,0,0.05,29,0)" xlink:href="#aN"/><path fill="#333" d="M-.9 1.25h36.75v1.32H-.9z"/></g><g id="L"><use transform="matrix(0.05,0,0,0.05,0,0)" xlink:href="#aD"/><use transform="matrix(0.05,0,0,0.05,10,0)" xlink:href="#aE"/><use transform="matrix(0.05,0,0,0.05,20,0)" xlink:href="#aK"/><use transform="matrix(0.05,0,0,0.05,29,0)" xlink:href="#aO"/><use transform="matrix(0.05,0,0,0.05,38,0)" xlink:href="#aN"/><use transform="matrix(0.05,0,0,0.05,43.95,0)" xlink:href="#aC"/><use transform="matrix(0.05,0,0,0.05,47.900000000000006,0)" xlink:href="#aJ"/><use transform="matrix(0.05,0,0,0.05,57.900000000000006,0)" xlink:href="#aP"/><use transform="matrix(0.05,0,0,0.05,62.900000000000006,0)" xlink:href="#aC"/><use transform="matrix(0.05,0,0,0.05,66.85000000000001,0)" xlink:href="#aM"/><use transform="matrix(0.05,0,0,0.05,76.85000000000001,0)" xlink:href="#aI"/></g><g id="M"><use transform="matrix(0.05,0,0,0.05,0,0)" xlink:href="#aN"/><use transform="matrix(0.05,0,0,0.05,5.95,0)" xlink:href="#aE"/><use transform="matrix(0.05,0,0,0.05,15.949999999999998,0)" xlink:href="#aG"/><use transform="matrix(0.05,0,0,0.05,25.950000000000003,0)" xlink:href="#aD"/><use transform="matrix(0.05,0,0,0.05,35.95,0)" xlink:href="#bk"/><use transform="matrix(0.05,0,0,0.05,45.95,0)" xlink:href="#aM"/><use transform="matrix(0.05,0,0,0.05,55.95,0)" xlink:href="#aI"/><use transform="matrix(0.05,0,0,0.05,65.95,0)" xlink:href="#aH"/><use transform="matrix(0.05,0,0,0.05,69.9,0)" xlink:href="#bl"/></g><path d="M199 0l-22-63H83L61 0H9l90-248h61L250 0h-51zm-33-102l-36-108c-10 38-24 72-36 108h72" id="bA"/><path d="M231 0h-52l-39-155L100 0H48L-1-190h46L77-45c9-52 24-97 36-145h53l37 145 32-145h46" id="bB"/><g id="N"><use transform="matrix(0.05,0,0,0.05,0,0)" xlink:href="#bA"/><use transform="matrix(0.05,0,0,0.05,12.950000000000001,0)" xlink:href="#br"/><use transform="matrix(0.05,0,0,0.05,23.900000000000002,0)" xlink:href="#bp"/><use transform="matrix(0.05,0,0,0.05,33.900000000000006,0)" xlink:href="#bB"/><use transform="matrix(0.05,0,0,0.05,47.900000000000006,0)" xlink:href="#bh"/><use transform="matrix(0.05,0,0,0.05,57.900000000000006,0)" xlink:href="#be"/></g><g id="O"><use transform="matrix(0.05,0,0,0.05,0,0)" xlink:href="#aC"/><use transform="matrix(0.05,0,0,0.05,3.95,0)" xlink:href="#aD"/><path fill="#333" d="M-.9 1.25h15.75v1.32H-.9z"/></g><g id="P"><use transform="matrix(0.05,0,0,0.05,0,0)" xlink:href="#aG"/><use transform="matrix(0.05,0,0,0.05,10,0)" xlink:href="#aI"/><use transform="matrix(0.05,0,0,0.05,20,0)" xlink:href="#aK"/><use transform="matrix(0.05,0,0,0.05,29,0)" xlink:href="#aL"/><use transform="matrix(0.05,0,0,0.05,41.95,0)" xlink:href="#aE"/><use transform="matrix(0.05,0,0,0.05,51.95,0)" xlink:href="#aN"/></g><path d="M140-251c80 0 125 45 125 126 0 70-33 111-92 124 6 28 34 38 68 31l-1 36C177 83 129 55 120 2 51-6 15-50 15-125c0-81 44-126 125-126zm-1 214c52 0 73-35 73-88 0-50-21-86-72-86-52 0-73 35-73 86s22 88 72 88" id="bC"/><g id="Q"><use transform="matrix(0.05,0,0,0.05,0,0)" xlink:href="#bC"/><use transform="matrix(0.05,0,0,0.05,14,0)" xlink:href="#bn"/><use transform="matrix(0.05,0,0,0.05,24.950000000000003,0)" xlink:href="#bh"/><use transform="matrix(0.05,0,0,0.05,34.95,0)" xlink:href="#bp"/><use transform="matrix(0.05,0,0,0.05,44.95,0)" xlink:href="#bj"/><use transform="matrix(0.05,0,0,0.05,50.900000000000006,0)" xlink:href="#bq"/><use transform="matrix(0.05,0,0,0.05,55.900000000000006,0)" xlink:href="#bf"/><use transform="matrix(0.05,0,0,0.05,66.85000000000001,0)" xlink:href="#br"/></g><g id="R"><use transform="matrix(0.05,0,0,0.05,0,0)" xlink:href="#aP"/><use transform="matrix(0.05,0,0,0.05,5,0)" xlink:href="#aG"/><use transform="matrix(0.05,0,0,0.05,15,0)" xlink:href="#aH"/><use transform="matrix(0.05,0,0,0.05,18.95,0)" xlink:href="#aH"/><use transform="matrix(0.05,0,0,0.05,22.9,0)" xlink:href="#bl"/><use transform="matrix(0.05,0,0,0.05,31.899999999999995,0)" xlink:href="#bk"/><use transform="matrix(0.05,0,0,0.05,41.9,0)" xlink:href="#aC"/><use transform="matrix(0.05,0,0,0.05,45.85,0)" xlink:href="#aD"/></g><path fill="#333" d="M145-31C134-9 116 4 85 4 32 4 16-35 15-94c0-59 17-99 70-100 32-1 48 14 60 33 0-11-1-24 2-32h30l-1 268h-32zM93-21c41 0 51-33 51-76s-8-73-50-73c-40 0-46 35-46 75s5 74 45 74" id="bD"/><g id="S"><use transform="matrix(0.05,0,0,0.05,0,0)" xlink:href="#bD"/><use transform="matrix(0.05,0,0,0.05,10,0)" xlink:href="#bs"/><use transform="matrix(0.05,0,0,0.05,20,0)" xlink:href="#aE"/><use transform="matrix(0.05,0,0,0.05,30,0)" xlink:href="#aK"/><use transform="matrix(0.05,0,0,0.05,39,0)" xlink:href="#aP"/><use transform="matrix(0.05,0,0,0.05,44,0)" xlink:href="#aC"/><use transform="matrix(0.05,0,0,0.05,47.95,0)" xlink:href="#aM"/><use transform="matrix(0.05,0,0,0.05,57.95,0)" xlink:href="#aI"/></g><g id="T"><use transform="matrix(0.05,0,0,0.05,0,0)" xlink:href="#aE"/><use transform="matrix(0.05,0,0,0.05,10,0)" xlink:href="#aD"/><use transform="matrix(0.05,0,0,0.05,20,0)" xlink:href="#aC"/><use transform="matrix(0.05,0,0,0.05,23.95,0)" xlink:href="#aP"/><use transform="matrix(0.05,0,0,0.05,28.950000000000003,0)" xlink:href="#aC"/><use transform="matrix(0.05,0,0,0.05,32.9,0)" xlink:href="#aM"/><use transform="matrix(0.05,0,0,0.05,42.9,0)" xlink:href="#aI"/><use transform="matrix(0.05,0,0,0.05,52.900000000000006,0)" xlink:href="#bk"/><use transform="matrix(0.05,0,0,0.05,62.900000000000006,0)" xlink:href="#bl"/><use transform="matrix(0.05,0,0,0.05,71.9,0)" xlink:href="#aE"/><use transform="matrix(0.05,0,0,0.05,81.9,0)" xlink:href="#aG"/><use transform="matrix(0.05,0,0,0.05,91.9,0)" xlink:href="#aN"/></g><path d="M190 0L58-211 59 0H30v-248h39L202-35l-2-213h31V0h-41" id="bE"/><use transform="matrix(0.05,0,0,0.05,0,0)" xlink:href="#bE" id="U"/><path d="M27 0v-27h64v-190l-56 39v-29l58-41h29v221h61V0H27" id="bF"/><use transform="matrix(0.05,0,0,0.05,0,0)" xlink:href="#bF" id="V"/><use transform="matrix(0.05,0,0,0.05,0,0)" xlink:href="#aT" id="W"/><use transform="matrix(0.05,0,0,0.05,0,0)" xlink:href="#aS" id="X"/><use transform="matrix(0.05,0,0,0.05,0,0)" xlink:href="#aT" id="Y"/><path d="M24-248c120-7 223 5 221 122C244-46 201 0 124 0H24v-248zM76-40c74 7 117-18 117-86 0-67-45-88-117-82v168" id="bG"/><path d="M121-226c-27-7-43 5-38 36h38v33H83V0H34v-157H6v-33h28c-9-59 32-81 87-68v32" id="bH"/><path d="M133-34C117-15 103 5 69 4 32 3 11-16 11-54c-1-60 55-63 116-61 1-26-3-47-28-47-18 1-26 9-28 27l-52-2c7-38 36-58 82-57s74 22 75 68l1 82c-1 14 12 18 25 15v27c-30 8-71 5-69-32zm-48 3c29 0 43-24 42-57-32 0-66-3-65 30 0 17 8 27 23 27" id="bI"/><g id="Z"><use transform="matrix(0.05,0,0,0.05,0,0)" xlink:href="#bG"/><use transform="matrix(0.05,0,0,0.05,12.950000000000001,0)" xlink:href="#bh"/><use transform="matrix(0.05,0,0,0.05,22.950000000000003,0)" xlink:href="#bH"/><use transform="matrix(0.05,0,0,0.05,28.900000000000002,0)" xlink:href="#bI"/><use transform="matrix(0.05,0,0,0.05,38.900000000000006,0)" xlink:href="#bn"/><use transform="matrix(0.05,0,0,0.05,49.85000000000001,0)" xlink:href="#by"/><use transform="matrix(0.05,0,0,0.05,54.85,0)" xlink:href="#bj"/></g><path d="M220-157c-53 9-28 100-34 157h-49v-107c1-27-5-49-29-50C55-147 81-57 75 0H25l-1-190h47c2 12-1 28 3 38 10-53 101-56 108 0 13-22 24-43 59-42 82 1 51 116 57 194h-49v-107c-1-25-5-48-29-50" id="bJ"/><g id="aa"><use transform="matrix(0.05,0,0,0.05,0,0)" xlink:href="#bh"/><use transform="matrix(0.05,0,0,0.05,10,0)" xlink:href="#bJ"/><use transform="matrix(0.05,0,0,0.05,26,0)" xlink:href="#bI"/><use transform="matrix(0.05,0,0,0.05,36,0)" xlink:href="#bq"/><use transform="matrix(0.05,0,0,0.05,41,0)" xlink:href="#by"/></g><g id="ab"><use transform="matrix(0.05,0,0,0.05,0,0)" xlink:href="#aC"/><use transform="matrix(0.05,0,0,0.05,3.95,0)" xlink:href="#aD"/><path fill="#333" d="M-.9 1.25h15.75v1.32H-.9z"/></g><g id="ac"><use transform="matrix(0.05,0,0,0.05,0,0)" xlink:href="#aP"/><use transform="matrix(0.05,0,0,0.05,5,0)" xlink:href="#bl"/><use transform="matrix(0.05,0,0,0.05,14,0)" xlink:href="#aJ"/><use transform="matrix(0.05,0,0,0.05,24,0)" xlink:href="#aE"/></g><g id="ad"><use transform="matrix(0.05,0,0,0.05,0,0)" xlink:href="#aO"/><use transform="matrix(0.05,0,0,0.05,9,0)" xlink:href="#aM"/><use transform="matrix(0.05,0,0,0.05,19,0)" xlink:href="#aI"/><use transform="matrix(0.05,0,0,0.05,29,0)" xlink:href="#aP"/><use transform="matrix(0.05,0,0,0.05,34,0)" xlink:href="#aE"/><use transform="matrix(0.05,0,0,0.05,44,0)" xlink:href="#aI"/><use transform="matrix(0.05,0,0,0.05,54,0)" xlink:href="#aP"/></g><g id="ae"><use transform="matrix(0.05,0,0,0.05,0,0)" xlink:href="#bC"/><use transform="matrix(0.05,0,0,0.05,14,0)" xlink:href="#bn"/><use transform="matrix(0.05,0,0,0.05,24.950000000000003,0)" xlink:href="#bh"/><use transform="matrix(0.05,0,0,0.05,34.95,0)" xlink:href="#bp"/><use transform="matrix(0.05,0,0,0.05,44.95,0)" xlink:href="#bj"/><use transform="matrix(0.05,0,0,0.05,50.900000000000006,0)" xlink:href="#bq"/><use transform="matrix(0.05,0,0,0.05,55.900000000000006,0)" xlink:href="#bf"/><use transform="matrix(0.05,0,0,0.05,66.85000000000001,0)" xlink:href="#br"/><use transform="matrix(0.05,0,0,0.05,77.80000000000001,0)" xlink:href="#bA"/><use transform="matrix(0.05,0,0,0.05,90.75000000000001,0)" xlink:href="#br"/><use transform="matrix(0.05,0,0,0.05,101.70000000000002,0)" xlink:href="#bp"/><use transform="matrix(0.05,0,0,0.05,111.7,0)" xlink:href="#bB"/><use transform="matrix(0.05,0,0,0.05,125.7,0)" xlink:href="#bh"/><use transform="matrix(0.05,0,0,0.05,135.70000000000002,0)" xlink:href="#be"/></g><g id="af"><use transform="matrix(0.05,0,0,0.05,0,0)" xlink:href="#aC"/><use transform="matrix(0.05,0,0,0.05,3.95,0)" xlink:href="#aD"/><path fill="#333" d="M-.9 1.25h15.75v1.32H-.9z"/></g><path d="M67-125c0 53 21 87 73 88 37 1 54-22 65-47l45 17C233-25 199 4 140 4 58 4 20-42 15-125 8-235 124-281 211-232c18 10 29 29 36 50l-46 12c-8-25-30-41-62-41-52 0-71 34-72 86" id="bK"/><path d="M114-157C55-157 80-60 75 0H25v-261h50l-1 109c12-26 28-41 61-42 86-1 58 113 63 194h-50c-7-57 23-157-34-157" id="bL"/><g id="ag"><use transform="matrix(0.05,0,0,0.05,0,0)" xlink:href="#bz"/><use transform="matrix(0.05,0,0,0.05,12,0)" xlink:href="#bw"/><use transform="matrix(0.05,0,0,0.05,22.950000000000003,0)" xlink:href="#bq"/><use transform="matrix(0.05,0,0,0.05,27.950000000000003,0)" xlink:href="#bj"/><use transform="matrix(0.05,0,0,0.05,33.900000000000006,0)" xlink:href="#bq"/><use transform="matrix(0.05,0,0,0.05,38.900000000000006,0)" xlink:href="#bf"/><use transform="matrix(0.05,0,0,0.05,49.85000000000001,0)" xlink:href="#br"/><use transform="matrix(0.05,0,0,0.05,60.80000000000001,0)" xlink:href="#bK"/><use transform="matrix(0.05,0,0,0.05,73.75000000000001,0)" xlink:href="#bf"/><use transform="matrix(0.05,0,0,0.05,84.70000000000002,0)" xlink:href="#bI"/><use transform="matrix(0.05,0,0,0.05,94.70000000000002,0)" xlink:href="#bi"/><use transform="matrix(0.05,0,0,0.05,104.7,0)" xlink:href="#bL"/></g><g id="ah"><use transform="matrix(0.05,0,0,0.05,0,0)" xlink:href="#aE"/><use transform="matrix(0.05,0,0,0.05,10,0)" xlink:href="#aD"/><use transform="matrix(0.05,0,0,0.05,20,0)" xlink:href="#aC"/><use transform="matrix(0.05,0,0,0.05,23.95,0)" xlink:href="#aP"/><use transform="matrix(0.05,0,0,0.05,28.950000000000003,0)" xlink:href="#aC"/><use transform="matrix(0.05,0,0,0.05,32.9,0)" xlink:href="#aM"/><use transform="matrix(0.05,0,0,0.05,42.9,0)" xlink:href="#aI"/><use transform="matrix(0.05,0,0,0.05,52.900000000000006,0)" xlink:href="#bk"/><use transform="matrix(0.05,0,0,0.05,62.900000000000006,0)" xlink:href="#bl"/><use transform="matrix(0.05,0,0,0.05,71.9,0)" xlink:href="#aE"/><use transform="matrix(0.05,0,0,0.05,81.9,0)" xlink:href="#aG"/><use transform="matrix(0.05,0,0,0.05,91.9,0)" xlink:href="#aN"/><path fill="#333" d="M-.9 1.25h99.65v1.32H-.9z"/></g><path fill="#333" d="M106-169C34-169 62-67 57 0H25v-261h32l-1 103c12-21 28-36 61-36 89 0 53 116 60 194h-32v-121c2-32-8-49-39-48" id="bM"/><g id="ai"><use transform="matrix(0.05,0,0,0.05,0,0)" xlink:href="#aO"/><use transform="matrix(0.05,0,0,0.05,9,0)" xlink:href="#aM"/><use transform="matrix(0.05,0,0,0.05,19,0)" xlink:href="#aG"/><use transform="matrix(0.05,0,0,0.05,29,0)" xlink:href="#aO"/><use transform="matrix(0.05,0,0,0.05,38,0)" xlink:href="#bM"/><use transform="matrix(0.05,0,0,0.05,48,0)" xlink:href="#bk"/><use transform="matrix(0.05,0,0,0.05,58,0)" xlink:href="#aC"/><use transform="matrix(0.05,0,0,0.05,61.95,0)" xlink:href="#aD"/><path fill="#333" d="M-.9 1.25h73.75v1.32H-.9z"/></g><path d="M135-194c53 0 70 44 70 98 0 56-19 98-73 100-31 1-45-17-59-34 3 33 2 69 2 105H25l-1-265h48c2 10 0 23 3 31 11-24 29-35 60-35zM114-30c33 0 39-31 40-66 0-38-9-64-40-64-56 0-55 130 0 130" id="bN"/><g id="aj"><use transform="matrix(0.05,0,0,0.05,0,0)" xlink:href="#bd"/><use transform="matrix(0.05,0,0,0.05,12,0)" xlink:href="#bI"/><use transform="matrix(0.05,0,0,0.05,22,0)" xlink:href="#be"/><use transform="matrix(0.05,0,0,0.05,29,0)" xlink:href="#bj"/><use transform="matrix(0.05,0,0,0.05,34.95,0)" xlink:href="#bq"/><use transform="matrix(0.05,0,0,0.05,39.95,0)" xlink:href="#bi"/><use transform="matrix(0.05,0,0,0.05,49.95,0)" xlink:href="#bq"/><use transform="matrix(0.05,0,0,0.05,54.95,0)" xlink:href="#bN"/><use transform="matrix(0.05,0,0,0.05,65.9,0)" xlink:href="#bI"/><use transform="matrix(0.05,0,0,0.05,75.9,0)" xlink:href="#bj"/><use transform="matrix(0.05,0,0,0.05,81.85000000000001,0)" xlink:href="#bq"/><use transform="matrix(0.05,0,0,0.05,86.85000000000001,0)" xlink:href="#bf"/><use transform="matrix(0.05,0,0,0.05,97.80000000000001,0)" xlink:href="#br"/></g><g id="ak"><use transform="matrix(0.05,0,0,0.05,0,0)" xlink:href="#aK"/><use transform="matrix(0.05,0,0,0.05,9,0)" xlink:href="#aP"/><use transform="matrix(0.05,0,0,0.05,14,0)" xlink:href="#bs"/><use transform="matrix(0.05,0,0,0.05,24,0)" xlink:href="#aD"/><use transform="matrix(0.05,0,0,0.05,34,0)" xlink:href="#aE"/><use transform="matrix(0.05,0,0,0.05,44,0)" xlink:href="#aI"/><use transform="matrix(0.05,0,0,0.05,54,0)" xlink:href="#aP"/><use transform="matrix(0.05,0,0,0.05,59,0)" xlink:href="#bk"/><use transform="matrix(0.05,0,0,0.05,69,0)" xlink:href="#aC"/><use transform="matrix(0.05,0,0,0.05,72.95,0)" xlink:href="#aD"/><path fill="#333" d="M-.9 1.25h84.75v1.32H-.9z"/></g><g id="al"><use transform="matrix(0.05,0,0,0.05,0,0)" xlink:href="#aJ"/><use transform="matrix(0.05,0,0,0.05,10,0)" xlink:href="#aN"/><use transform="matrix(0.05,0,0,0.05,15.949999999999998,0)" xlink:href="#aM"/><use transform="matrix(0.05,0,0,0.05,25.950000000000003,0)" xlink:href="#bu"/><use transform="matrix(0.05,0,0,0.05,29.899999999999995,0)" xlink:href="#aE"/><use transform="matrix(0.05,0,0,0.05,39.9,0)" xlink:href="#aO"/><use transform="matrix(0.05,0,0,0.05,48.9,0)" xlink:href="#aP"/><use transform="matrix(0.05,0,0,0.05,53.900000000000006,0)" xlink:href="#bk"/><use transform="matrix(0.05,0,0,0.05,63.900000000000006,0)" xlink:href="#aC"/><use transform="matrix(0.05,0,0,0.05,67.85,0)" xlink:href="#aD"/><path fill="#333" d="M-.9 1.25h79.65v1.32H-.9z"/></g><g id="am"><use transform="matrix(0.05,0,0,0.05,0,0)" xlink:href="#bd"/><use transform="matrix(0.05,0,0,0.05,12,0)" xlink:href="#be"/><use transform="matrix(0.05,0,0,0.05,19,0)" xlink:href="#bf"/><use transform="matrix(0.05,0,0,0.05,29.950000000000003,0)" xlink:href="#bg"/><use transform="matrix(0.05,0,0,0.05,34.95,0)" xlink:href="#bh"/><use transform="matrix(0.05,0,0,0.05,44.95,0)" xlink:href="#bi"/><use transform="matrix(0.05,0,0,0.05,54.95,0)" xlink:href="#bj"/><use transform="matrix(0.05,0,0,0.05,60.900000000000006,0)" xlink:href="#bK"/><use transform="matrix(0.05,0,0,0.05,73.85000000000001,0)" xlink:href="#bf"/><use transform="matrix(0.05,0,0,0.05,84.80000000000001,0)" xlink:href="#bI"/><use transform="matrix(0.05,0,0,0.05,94.80000000000001,0)" xlink:href="#bi"/><use transform="matrix(0.05,0,0,0.05,104.80000000000001,0)" xlink:href="#bL"/></g><path d="M240-174c0 40-23 61-54 70L253 0h-59l-57-94H76V0H24v-248c93 4 217-23 216 74zM76-134c48-2 112 12 112-38 0-48-66-32-112-35v73" id="bO"/><path d="M84 4C32 4 15-41 15-95c0-55 18-99 73-99 29 0 47 12 58 34l2-30h48l-1 265h-49V-32C136-9 114 4 84 4zm21-34c32 0 41-29 41-66 0-36-9-64-40-64-33 0-39 30-40 65 0 43 13 65 39 65" id="bP"/><g id="an"><use transform="matrix(0.05,0,0,0.05,0,0)" xlink:href="#bd"/><use transform="matrix(0.05,0,0,0.05,12,0)" xlink:href="#be"/><use transform="matrix(0.05,0,0,0.05,19,0)" xlink:href="#bf"/><use transform="matrix(0.05,0,0,0.05,29.950000000000003,0)" xlink:href="#bg"/><use transform="matrix(0.05,0,0,0.05,34.95,0)" xlink:href="#bh"/><use transform="matrix(0.05,0,0,0.05,44.95,0)" xlink:href="#bi"/><use transform="matrix(0.05,0,0,0.05,54.95,0)" xlink:href="#bj"/><use transform="matrix(0.05,0,0,0.05,60.900000000000006,0)" xlink:href="#bO"/><use transform="matrix(0.05,0,0,0.05,73.85000000000001,0)" xlink:href="#bh"/><use transform="matrix(0.05,0,0,0.05,83.85000000000001,0)" xlink:href="#bP"/><use transform="matrix(0.05,0,0,0.05,94.80000000000001,0)" xlink:href="#bn"/><use transform="matrix(0.05,0,0,0.05,105.75,0)" xlink:href="#bq"/><use transform="matrix(0.05,0,0,0.05,110.75,0)" xlink:href="#be"/><use transform="matrix(0.05,0,0,0.05,117.75,0)" xlink:href="#bh"/><use transform="matrix(0.05,0,0,0.05,127.75,0)" xlink:href="#bw"/><use transform="matrix(0.05,0,0,0.05,138.70000000000002,0)" xlink:href="#bm"/><use transform="matrix(0.05,0,0,0.05,150.70000000000002,0)" xlink:href="#bx"/><use transform="matrix(0.05,0,0,0.05,160.70000000000002,0)" xlink:href="#bq"/><use transform="matrix(0.05,0,0,0.05,165.70000000000002,0)" xlink:href="#by"/><use transform="matrix(0.05,0,0,0.05,170.70000000000002,0)" xlink:href="#by"/></g><path d="M115-194c55 1 70 41 70 98S169 2 115 4C84 4 66-9 55-30l1 105H24l-1-265h31l2 30c10-21 28-34 59-34zm-8 174c40 0 45-34 45-75s-6-73-45-74c-42 0-51 32-51 76 0 43 10 73 51 73" id="bQ"/><path d="M114-163C36-179 61-72 57 0H25l-1-190h30c1 12-1 29 2 39 6-27 23-49 58-41v29" id="bR"/><path d="M100-194c62-1 85 37 85 99 1 63-27 99-86 99S16-35 15-95c0-66 28-99 85-99zM99-20c44 1 53-31 53-75 0-43-8-75-51-75s-53 32-53 75 10 74 51 75" id="bS"/><path d="M24-231v-30h32v30H24zM-9 49c24 4 33-6 33-30v-209h32V24c2 40-23 58-65 49V49" id="bT"/><path d="M100-194c63 0 86 42 84 106H49c0 40 14 67 53 68 26 1 43-12 49-29l28 8c-11 28-37 45-77 45C44 4 14-33 15-96c1-61 26-98 85-98zm52 81c6-60-76-77-97-28-3 7-6 17-6 28h103" id="bU"/><path d="M96-169c-40 0-48 33-48 73s9 75 48 75c24 0 41-14 43-38l32 2c-6 37-31 61-74 61-59 0-76-41-82-99-10-93 101-131 147-64 4 7 5 14 7 22l-32 3c-4-21-16-35-41-35" id="bV"/><path d="M59-47c-2 24 18 29 38 22v24C64 9 27 4 27-40v-127H5v-23h24l9-43h21v43h35v23H59v120" id="bW"/><path d="M-5 72V49h209v23H-5" id="bX"/><path d="M24-231v-30h32v30H24zM24 0v-190h32V0H24" id="bY"/><path d="M85-194c31 0 48 13 60 33l-1-100h32l1 261h-30c-2-10 0-23-3-31C134-8 116 4 85 4 32 4 16-35 15-94c0-66 23-100 70-100zm9 24c-40 0-46 34-46 75 0 40 6 74 45 74 42 0 51-32 51-76 0-42-9-74-50-73" id="bZ"/><g id="ao"><use transform="matrix(0.05,0,0,0.05,0,0)" xlink:href="#bQ"/><use transform="matrix(0.05,0,0,0.05,10,0)" xlink:href="#bR"/><use transform="matrix(0.05,0,0,0.05,15.949999999999998,0)" xlink:href="#bS"/><use transform="matrix(0.05,0,0,0.05,25.950000000000003,0)" xlink:href="#bT"/><use transform="matrix(0.05,0,0,0.05,29.899999999999995,0)" xlink:href="#bU"/><use transform="matrix(0.05,0,0,0.05,39.9,0)" xlink:href="#bV"/><use transform="matrix(0.05,0,0,0.05,48.9,0)" xlink:href="#bW"/><use transform="matrix(0.05,0,0,0.05,53.900000000000006,0)" xlink:href="#bX"/><use transform="matrix(0.05,0,0,0.05,63.900000000000006,0)" xlink:href="#bY"/><use transform="matrix(0.05,0,0,0.05,67.85,0)" xlink:href="#bZ"/></g><path d="M135-143c-3-34-86-38-87 0 15 53 115 12 119 90S17 21 10-45l28-5c4 36 97 45 98 0-10-56-113-15-118-90-4-57 82-63 122-42 12 7 21 19 24 35" id="ca"/><path d="M143 0L79-87 56-68V0H24v-261h32v163l83-92h37l-77 82L181 0h-38" id="cb"/><path d="M24 0v-261h32V0H24" id="cc"/><path d="M117-194c89-4 53 116 60 194h-32v-121c0-31-8-49-39-48C34-167 62-67 57 0H25l-1-190h30c1 10-1 24 2 32 11-22 29-35 61-36" id="cd"/><path d="M141-36C126-15 110 5 73 4 37 3 15-17 15-53c-1-64 63-63 125-63 3-35-9-54-41-54-24 1-41 7-42 31l-33-3c5-37 33-52 76-52 45 0 72 20 72 64v82c-1 20 7 32 28 27v20c-31 9-61-2-59-35zM48-53c0 20 12 33 32 33 41-3 63-29 60-74-43 2-92-5-92 41" id="ce"/><path d="M210-169c-67 3-38 105-44 169h-31v-121c0-29-5-50-35-48C34-165 62-65 56 0H25l-1-190h30c1 10-1 24 2 32 10-44 99-50 107 0 11-21 27-35 58-36 85-2 47 119 55 194h-31v-121c0-29-5-49-35-48" id="cf"/><g id="ap"><use transform="matrix(0.05,0,0,0.05,0,0)" xlink:href="#ca"/><use transform="matrix(0.05,0,0,0.05,9,0)" xlink:href="#cb"/><use transform="matrix(0.05,0,0,0.05,18,0)" xlink:href="#bY"/><use transform="matrix(0.05,0,0,0.05,21.95,0)" xlink:href="#cc"/><use transform="matrix(0.05,0,0,0.05,25.899999999999995,0)" xlink:href="#cc"/><use transform="matrix(0.05,0,0,0.05,29.849999999999994,0)" xlink:href="#bX"/><use transform="matrix(0.05,0,0,0.05,39.849999999999994,0)" xlink:href="#cd"/><use transform="matrix(0.05,0,0,0.05,49.849999999999994,0)" xlink:href="#ce"/><use transform="matrix(0.05,0,0,0.05,59.849999999999994,0)" xlink:href="#cf"/><use transform="matrix(0.05,0,0,0.05,74.8,0)" xlink:href="#bU"/></g><path d="M84 4C-5 8 30-112 23-190h32v120c0 31 7 50 39 49 72-2 45-101 50-169h31l1 190h-30c-1-10 1-25-2-33-11 22-28 36-60 37" id="cg"/><g id="aq"><use transform="matrix(0.05,0,0,0.05,0,0)" xlink:href="#ce"/><use transform="matrix(0.05,0,0,0.05,10,0)" xlink:href="#cf"/><use transform="matrix(0.05,0,0,0.05,24.950000000000003,0)" xlink:href="#bS"/><use transform="matrix(0.05,0,0,0.05,34.95,0)" xlink:href="#cg"/><use transform="matrix(0.05,0,0,0.05,44.95,0)" xlink:href="#cd"/><use transform="matrix(0.05,0,0,0.05,54.95,0)" xlink:href="#bW"/></g><path d="M136-208V0H84v-208H4v-40h212v40h-80" id="ch"/><g id="ar"><use transform="matrix(0.05,0,0,0.05,0,0)" xlink:href="#bC"/><use transform="matrix(0.05,0,0,0.05,14,0)" xlink:href="#bn"/><use transform="matrix(0.05,0,0,0.05,24.950000000000003,0)" xlink:href="#bh"/><use transform="matrix(0.05,0,0,0.05,34.95,0)" xlink:href="#bp"/><use transform="matrix(0.05,0,0,0.05,44.95,0)" xlink:href="#bj"/><use transform="matrix(0.05,0,0,0.05,50.900000000000006,0)" xlink:href="#bq"/><use transform="matrix(0.05,0,0,0.05,55.900000000000006,0)" xlink:href="#bf"/><use transform="matrix(0.05,0,0,0.05,66.85000000000001,0)" xlink:href="#br"/><use transform="matrix(0.05,0,0,0.05,77.80000000000001,0)" xlink:href="#ch"/><use transform="matrix(0.05,0,0,0.05,87.40000000000002,0)" xlink:href="#bI"/><use transform="matrix(0.05,0,0,0.05,97.40000000000002,0)" xlink:href="#bo"/></g><g id="as"><use transform="matrix(0.05,0,0,0.05,0,0)" xlink:href="#aP"/><use transform="matrix(0.05,0,0,0.05,5,0)" xlink:href="#aG"/><use transform="matrix(0.05,0,0,0.05,15,0)" xlink:href="#bt"/><path fill="#333" d="M-.9 1.25h26.8v1.32H-.9z"/></g><g id="at"><use transform="matrix(0.05,0,0,0.05,0,0)" xlink:href="#bD"/><use transform="matrix(0.05,0,0,0.05,10,0)" xlink:href="#bs"/><use transform="matrix(0.05,0,0,0.05,20,0)" xlink:href="#aE"/><use transform="matrix(0.05,0,0,0.05,30,0)" xlink:href="#aK"/><use transform="matrix(0.05,0,0,0.05,39,0)" xlink:href="#aP"/><use transform="matrix(0.05,0,0,0.05,44,0)" xlink:href="#aC"/><use transform="matrix(0.05,0,0,0.05,47.95,0)" xlink:href="#aM"/><use transform="matrix(0.05,0,0,0.05,57.95,0)" xlink:href="#aI"/><use transform="matrix(0.05,0,0,0.05,67.95,0)" xlink:href="#bk"/><use transform="matrix(0.05,0,0,0.05,77.95,0)" xlink:href="#aC"/><use transform="matrix(0.05,0,0,0.05,81.9,0)" xlink:href="#aD"/></g><g id="au"><use transform="matrix(0.05,0,0,0.05,0,0)" xlink:href="#aF"/><use transform="matrix(0.05,0,0,0.05,14.950000000000001,0)" xlink:href="#aG"/><use transform="matrix(0.05,0,0,0.05,24.950000000000003,0)" xlink:href="#aI"/><use transform="matrix(0.05,0,0,0.05,34.95,0)" xlink:href="#aD"/><use transform="matrix(0.05,0,0,0.05,44.95,0)" xlink:href="#aG"/><use transform="matrix(0.05,0,0,0.05,54.95,0)" xlink:href="#aP"/><use transform="matrix(0.05,0,0,0.05,59.95,0)" xlink:href="#aM"/><use transform="matrix(0.05,0,0,0.05,69.95,0)" xlink:href="#aN"/><use transform="matrix(0.05,0,0,0.05,75.9,0)" xlink:href="#bl"/></g><g id="av"><use transform="matrix(0.05,0,0,0.05,0,0)" xlink:href="#aK"/><use transform="matrix(0.05,0,0,0.05,9,0)" xlink:href="#bM"/><use transform="matrix(0.05,0,0,0.05,19,0)" xlink:href="#aM"/><use transform="matrix(0.05,0,0,0.05,29,0)" xlink:href="#aL"/><use transform="matrix(0.05,0,0,0.05,41.95,0)" xlink:href="#bk"/><use transform="matrix(0.05,0,0,0.05,51.95,0)" xlink:href="#aC"/><use transform="matrix(0.05,0,0,0.05,55.900000000000006,0)" xlink:href="#aI"/><use transform="matrix(0.05,0,0,0.05,65.9,0)" xlink:href="#bk"/><use transform="matrix(0.05,0,0,0.05,75.9,0)" xlink:href="#aH"/><use transform="matrix(0.05,0,0,0.05,79.85000000000001,0)" xlink:href="#aC"/><use transform="matrix(0.05,0,0,0.05,83.80000000000001,0)" xlink:href="#aK"/><use transform="matrix(0.05,0,0,0.05,92.80000000000001,0)" xlink:href="#aP"/></g><g id="aw"><use transform="matrix(0.05,0,0,0.05,0,0)" xlink:href="#bm"/><use transform="matrix(0.05,0,0,0.05,12,0)" xlink:href="#bj"/><use transform="matrix(0.05,0,0,0.05,17.95,0)" xlink:href="#bn"/><use transform="matrix(0.05,0,0,0.05,28.899999999999995,0)" xlink:href="#bw"/><use transform="matrix(0.05,0,0,0.05,39.85,0)" xlink:href="#bh"/><use transform="matrix(0.05,0,0,0.05,49.85,0)" xlink:href="#br"/><use transform="matrix(0.05,0,0,0.05,60.800000000000004,0)" xlink:href="#bj"/><use transform="matrix(0.05,0,0,0.05,66.75,0)" xlink:href="#bm"/><use transform="matrix(0.05,0,0,0.05,78.75,0)" xlink:href="#bx"/><use transform="matrix(0.05,0,0,0.05,88.75,0)" xlink:href="#bq"/><use transform="matrix(0.05,0,0,0.05,93.75,0)" xlink:href="#by"/><use transform="matrix(0.05,0,0,0.05,98.75,0)" xlink:href="#by"/></g><g id="ax"><use transform="matrix(0.05,0,0,0.05,0,0)" xlink:href="#aK"/><use transform="matrix(0.05,0,0,0.05,9,0)" xlink:href="#bv"/><use transform="matrix(0.05,0,0,0.05,18,0)" xlink:href="#aC"/><use transform="matrix(0.05,0,0,0.05,21.95,0)" xlink:href="#aH"/><use transform="matrix(0.05,0,0,0.05,25.899999999999995,0)" xlink:href="#aH"/><use transform="matrix(0.05,0,0,0.05,29.849999999999994,0)" xlink:href="#bk"/><use transform="matrix(0.05,0,0,0.05,39.849999999999994,0)" xlink:href="#aI"/><use transform="matrix(0.05,0,0,0.05,49.849999999999994,0)" xlink:href="#aG"/><use transform="matrix(0.05,0,0,0.05,59.849999999999994,0)" xlink:href="#aF"/><use transform="matrix(0.05,0,0,0.05,74.8,0)" xlink:href="#aE"/><path fill="#333" d="M-.9 1.25h86.6v1.32H-.9z"/></g></defs></g></svg>
